# Blender v2.79 (sub 0) OBJ File: 'book2.blend'
# www.blender.org
mtllib book2.mtl
o object_static_book2_lowPoly_Cube.002
v -0.247014 -0.284270 0.066173
v -0.247014 0.438453 0.066173
v -0.247014 -0.284270 -0.052934
v -0.247014 0.438453 -0.052934
v 0.276161 -0.284270 0.066173
v 0.276161 0.438453 0.066173
v 0.276161 -0.284270 -0.052934
v 0.276161 0.438453 -0.052934
v 0.276161 -0.284270 0.055467
v 0.276161 0.438453 0.055467
v 0.276161 -0.284270 -0.042227
v 0.276161 0.438453 -0.042227
v -0.234743 0.438453 0.055467
v -0.234743 -0.284270 0.055467
v -0.234743 -0.284270 -0.042227
v -0.234743 0.438453 -0.042227
v 0.261160 0.423453 -0.042227
v 0.261160 0.423453 0.055467
v -0.234743 0.423453 0.055467
v -0.234743 0.423453 -0.042227
v 0.261160 -0.269270 -0.042227
v 0.261160 -0.269270 0.055467
v -0.234743 -0.269270 -0.042227
v -0.234743 -0.269270 0.055467
vt 0.768012 0.008446
vt 0.768012 0.496004
vt 0.415072 0.496004
vt 0.415072 0.008446
vt 0.964988 0.008446
vt 0.964988 0.496027
vt 0.957764 0.496027
vt 0.957766 0.008446
vt 0.096374 0.868386
vt 0.441032 0.868387
vt 0.441032 0.875610
vt 0.088096 0.875609
vt 0.089442 0.768243
vt 0.081163 0.775466
vt 0.081163 0.695114
vt 0.089441 0.702337
vt 0.502777 0.549113
vt 0.436871 0.549113
vt 0.436871 0.538994
vt 0.502777 0.538994
vt 0.414393 0.675618
vt 0.079851 0.675618
vt 0.079850 0.609713
vt 0.414393 0.609713
vt 0.948696 0.008446
vt 0.948696 0.496028
vt 0.941473 0.496028
vt 0.941474 0.008446
vt 0.088096 0.795257
vt 0.441033 0.795256
vt 0.441033 0.802479
vt 0.096374 0.802480
vt 0.857431 0.008446
vt 0.857431 0.496004
vt 0.777080 0.496004
vt 0.777080 0.008446
vt 0.434098 0.775464
vt 0.434098 0.768242
vt 0.397755 0.992647
vt 0.053116 0.992682
vt 0.063233 0.982563
vt 0.397754 0.982528
vt 0.434103 0.702336
vt 0.434103 0.695113
vt 0.406004 0.008446
vt 0.406004 0.496004
vt 0.053064 0.496004
vt 0.053064 0.008446
vt 0.932405 0.475766
vt 0.866499 0.475766
vt 0.866500 0.008446
vt 0.932405 0.008446
vt 0.751519 0.992650
vt 0.406825 0.992674
vt 0.406824 0.982553
vt 0.741399 0.982531
vt 0.414393 0.534739
vt 0.414393 0.600645
vt 0.079851 0.600645
vt 0.079850 0.534739
vt 0.436871 0.558181
vt 0.502777 0.558181
vt 0.502777 0.568300
vt 0.436871 0.568300
vt 0.751485 0.505072
vt 0.741368 0.515191
vt 0.406860 0.515213
vt 0.406859 0.505095
vt 0.397755 0.505072
vt 0.397756 0.515192
vt 0.063185 0.515227
vt 0.053064 0.505109
vn 0.0000 0.0000 -1.0000
vn 1.0000 0.0000 0.0000
vn 0.0000 -1.0000 0.0000
vn 0.0000 1.0000 0.0000
vn -1.0000 0.0000 0.0000
vn 0.0000 0.0000 1.0000
usemtl Material.001
s off
f 3/1/1 4/2/1 8/3/1 7/4/1
f 9/5/2 10/6/2 6/7/2 5/8/2
f 14/9/3 9/10/3 5/11/3 1/12/3
f 16/13/4 4/14/4 2/15/4 13/16/4
f 16/17/2 13/18/2 19/19/2 20/20/2
f 17/21/4 20/22/4 19/23/4 18/24/4
f 7/25/2 8/26/2 12/27/2 11/28/2
f 3/29/3 7/30/3 11/31/3 15/32/3
f 1/33/5 2/34/5 4/35/5 3/36/5
f 8/37/4 4/14/4 16/13/4 12/38/4
f 3/29/3 15/32/3 14/9/3 1/12/3
f 13/39/1 10/40/1 18/41/1 19/42/1
f 10/43/4 13/16/4 2/15/4 6/44/4
f 5/45/6 6/46/6 2/47/6 1/48/6
f 17/49/2 18/50/2 22/51/2 21/52/2
f 12/53/6 16/54/6 20/55/6 17/56/6
f 21/57/3 22/58/3 24/59/3 23/60/3
f 14/61/2 15/62/2 23/63/2 24/64/2
f 11/65/6 21/66/6 23/67/6 15/68/6
f 14/69/1 24/70/1 22/71/1 9/72/1
f 9/72/1 22/71/1 18/41/1 10/40/1
f 12/53/6 17/56/6 21/66/6 11/65/6
