# Blender v2.79 (sub 0) OBJ File: 'painting2_collider.blend'
# www.blender.org
mtllib painting2_collider.mtl
o object_static_painting_lowPoly_Cube.001
v 0.046130 -1.190141 -1.745854
v 0.046130 -1.190141 2.166440
v -0.033042 1.190141 2.166442
v -0.033042 1.190141 -1.745853
v 0.046130 1.190141 -1.745853
v 0.046130 1.190141 2.166442
v -0.033042 -1.190141 2.166440
v -0.033042 -1.190141 -1.745854
v 0.086083 -1.002365 -1.558077
v 0.086083 1.002365 -1.558077
v 0.086083 -1.002365 1.978665
v 0.086083 1.002365 1.978666
vt 0.771966 0.480912
vt 0.810593 0.520403
vt 0.005806 0.520403
vt 0.044433 0.480912
vt 0.810571 0.548578
vt 0.005806 0.548300
vt 0.005811 0.532015
vt 0.810577 0.532291
vt 0.950010 0.500720
vt 0.950011 0.011080
vt 0.966297 0.011080
vt 0.966296 0.500720
vt 0.994194 0.011080
vt 0.994194 0.500721
vt 0.977908 0.500721
vt 0.977908 0.011080
vt 0.861696 0.049707
vt 0.861696 0.462097
vt 0.822204 0.500724
vt 0.822204 0.011080
vt 0.044433 0.443697
vt 0.771954 0.443696
vt 0.898907 0.462095
vt 0.005806 0.560189
vt 0.810571 0.560191
vt 0.810571 0.576477
vt 0.005806 0.576477
vt 0.810580 0.404205
vt 0.005806 0.404205
vt 0.938399 0.011080
vt 0.938399 0.500722
vt 0.898907 0.049707
vn 0.9781 0.2081 0.0000
vn 0.0000 -1.0000 0.0000
vn 0.0000 0.0000 -1.0000
vn 0.0000 -0.0000 1.0000
vn 0.9781 -0.0000 0.2081
vn 1.0000 0.0000 0.0000
vn 0.0000 1.0000 -0.0000
vn 0.9781 -0.2081 0.0000
vn 0.9781 0.0000 -0.2081
usemtl None
s off
f 10/1/1 5/2/1 6/3/1 12/4/1
f 1/5/2 2/6/2 7/7/2 8/8/2
f 5/9/3 1/10/3 8/11/3 4/12/3
f 2/13/4 6/14/4 3/15/4 7/16/4
f 11/17/5 12/18/5 6/19/5 2/20/5
f 11/21/6 9/22/6 10/23/6 12/4/6
f 6/24/7 5/25/7 4/26/7 3/27/7
f 1/28/8 9/22/8 11/21/8 2/29/8
f 1/30/9 5/31/9 10/23/9 9/32/9
