# Blender v2.79 (sub 0) OBJ File: 'drawer_collider.blend'
# www.blender.org
mtllib drawer_collider.mtl
o object_static_drawer_Cube.001
v -0.981427 0.514732 1.845771
v -0.981427 0.514732 -1.938284
v 1.372105 0.514732 1.845771
v 1.372105 0.514732 -1.938284
v -0.981427 1.323876 1.998748
v -0.981427 1.323876 -2.091261
v 1.372105 1.323876 -2.091261
v 1.372105 1.323876 1.998748
v -1.107445 1.449598 2.133161
v -1.107445 1.449598 -2.225674
v 1.498123 1.449598 -2.225674
v 1.498123 1.449598 2.133161
v -1.107445 1.529069 2.133161
v -1.107445 1.529069 -2.225674
v 1.498123 1.529069 -2.225674
v 1.498123 1.529069 2.133161
v -0.981427 -1.514604 1.687703
v 1.372105 0.514732 1.687703
v 1.372105 -1.514604 1.687703
v 1.372105 1.255685 1.687703
v 1.372105 -1.514604 -1.780216
v -0.981427 -1.514604 -1.780216
v 1.372105 0.514732 -1.780216
v 1.372105 1.255685 -1.780216
v 1.202441 -1.514604 -1.938284
v 1.202441 -1.514604 1.845771
v 1.202441 -1.514604 1.687703
v 1.202441 -1.514604 -1.780216
v -0.811762 -1.514604 -1.938284
v -0.811762 -1.514604 1.845771
v -0.811762 -1.514604 1.687703
v -0.811762 -1.514604 -1.780216
v -0.981427 -2.325536 1.687703
v -0.981427 -2.325536 1.845771
v -0.811762 -2.325536 -1.938284
v -0.981427 -2.325536 -1.938284
v 1.372105 -2.325536 -1.780216
v 1.372105 -2.325536 -1.938284
v 1.202441 -2.325536 1.845771
v 1.372105 -2.325536 1.845771
v 1.372105 -2.325536 1.687703
v 1.202441 -2.325536 1.687703
v -0.981427 -2.325536 -1.780216
v 1.202441 -2.325536 -1.780216
v 1.202441 -2.325536 -1.938284
v -0.811762 -2.325536 1.845771
v -0.811762 -2.325536 1.687703
v -0.811762 -2.325536 -1.780216
v -0.981427 -1.047878 1.845771
v -0.981427 -1.047878 -1.938284
v 1.372105 -1.047878 -1.938284
v 1.372105 -1.047878 1.845771
v 1.372105 -1.047878 1.687703
v 1.372105 -1.047878 -1.780216
v -0.634967 0.514732 -1.780216
v -0.634967 0.514732 1.687703
v -0.634967 1.255685 -1.780216
v -0.634967 1.255685 1.687703
v -0.634967 -1.047878 1.687703
v -0.634967 -1.047878 -1.780216
vt 0.576775 0.629758
vt 0.562575 0.643196
vt 0.562575 0.536262
vt 0.576775 0.536262
vt 0.335913 0.727645
vt 0.321713 0.727645
vt 0.321713 0.634149
vt 0.335913 0.634149
vt 0.316718 0.555030
vt 0.329947 0.555030
vt 0.331308 0.585386
vt 0.316718 0.585386
vt 0.858247 0.107371
vt 0.661269 0.107371
vt 0.675469 0.093934
vt 0.844047 0.093934
vt 0.562575 0.773978
vt 0.759554 0.773978
vt 0.759554 0.804364
vt 0.562575 0.804364
vt 0.013244 0.555027
vt 0.026473 0.555028
vt 0.026473 0.585384
vt 0.011883 0.585384
vt 0.562575 0.933397
vt 0.927384 0.933397
vt 0.927384 0.940048
vt 0.562575 0.940048
vt 0.316719 0.424247
vt 0.026475 0.424245
vt 0.026475 0.410807
vt 0.316719 0.410809
vt 0.342811 0.010962
vt 0.000438 0.010962
vt 0.000438 0.000438
vt 0.342811 0.000438
vt 0.906295 0.534592
vt 0.709315 0.534592
vt 0.709315 0.524070
vt 0.906295 0.524070
vt 0.343627 0.901074
vt 0.343627 0.536262
vt 0.561699 0.536262
vt 0.561699 0.901074
vt 0.013420 0.078804
vt 0.330013 0.078802
vt 0.330013 0.209537
vt 0.013421 0.209540
vt 0.928412 0.860717
vt 0.928412 0.891073
vt 0.760430 0.891073
vt 0.760430 0.860717
vt 0.928412 0.729935
vt 0.760430 0.729935
vt 0.356916 0.183216
vt 0.647163 0.183217
vt 0.647163 0.197417
vt 0.356916 0.197417
vt 0.356916 0.014638
vt 0.647163 0.014638
vt 0.343687 0.014638
vt 0.343687 0.183216
vt 0.759554 0.643196
vt 0.745354 0.629758
vt 0.660392 0.014638
vt 0.660392 0.183217
vt 0.661269 0.238154
vt 0.858247 0.238154
vt 0.858247 0.268540
vt 0.661269 0.268540
vt 0.356916 0.000438
vt 0.647163 0.000438
vt 0.709315 0.512672
vt 0.906295 0.512671
vt 0.906295 0.523194
vt 0.709315 0.523194
vt 0.320743 0.836122
vt 0.320743 0.822892
vt 0.334943 0.822892
vt 0.334943 0.836122
vt 0.305666 0.836122
vt 0.305666 0.822892
vt 0.319866 0.822892
vt 0.319866 0.836122
vt 0.320743 0.850228
vt 0.320743 0.836998
vt 0.334943 0.836998
vt 0.334943 0.850228
vt 0.305666 0.850228
vt 0.305666 0.836998
vt 0.319866 0.836998
vt 0.319866 0.850228
vt 0.329948 0.424247
vt 0.316720 0.317314
vt 0.329950 0.317314
vt 0.305761 0.727645
vt 0.291561 0.727645
vt 0.291561 0.634149
vt 0.305761 0.634149
vt 0.745354 0.536262
vt 0.759554 0.536262
vt 0.653829 0.303420
vt 0.639629 0.303420
vt 0.639629 0.209925
vt 0.653829 0.209925
vt 0.304790 0.822016
vt 0.291561 0.822016
vt 0.291561 0.728521
vt 0.304790 0.728521
vt 0.318896 0.822016
vt 0.305666 0.822016
vt 0.305666 0.728521
vt 0.318896 0.728521
vt 0.333002 0.822016
vt 0.319772 0.822016
vt 0.319772 0.728521
vt 0.333002 0.728521
vt 0.872353 0.093933
vt 0.859123 0.093933
vt 0.859123 0.000438
vt 0.872353 0.000438
vt 0.320837 0.727645
vt 0.306637 0.727645
vt 0.306637 0.634149
vt 0.320837 0.634149
vt 0.013245 0.424245
vt 0.013246 0.317313
vt 0.026475 0.317313
vt 0.844047 0.000438
vt 0.858247 0.000438
vt 0.000438 0.827822
vt 0.290685 0.827822
vt 0.290685 0.995804
vt 0.000438 0.995804
vt 0.316789 0.222971
vt 0.026647 0.222973
vt 0.000438 0.764932
vt 0.290685 0.764932
vt 0.290685 0.795288
vt 0.000438 0.795288
vt 0.000438 0.634149
vt 0.290684 0.634149
vt 0.760430 0.667045
vt 0.760430 0.536262
vt 0.928412 0.536262
vt 0.928412 0.667045
vt 0.760430 0.697400
vt 0.928412 0.697400
vt 0.671437 0.512638
vt 0.381190 0.512638
vt 0.381190 0.344657
vt 0.671437 0.344657
vt 0.026647 0.316437
vt 0.013422 0.316437
vt 0.661269 0.000438
vt 0.675469 0.000438
vt 0.330014 0.316432
vt 0.316790 0.316432
vt 0.343625 0.909478
vt 0.561699 0.909478
vt 0.561699 0.916129
vt 0.343625 0.916129
vt 0.012060 0.048459
vt 0.331372 0.048457
vt 0.561699 0.908602
vt 0.343625 0.908601
vt 0.343625 0.901950
vt 0.561699 0.901950
vt 0.026473 0.617043
vt 0.316718 0.617044
vt 0.342751 0.622751
vt 0.000438 0.622751
vt 0.927384 0.932520
vt 0.562575 0.932521
vt 0.562575 0.925869
vt 0.927384 0.925869
vt 0.342751 0.633273
vt 0.000438 0.633273
vn -0.0000 0.0000 -1.0000
vn 0.0000 0.0000 1.0000
vn 1.0000 -0.0000 0.0000
vn 0.0000 -0.1858 -0.9826
vn -0.7063 -0.7079 0.0000
vn 0.0000 -0.7303 -0.6831
vn 0.0000 1.0000 0.0000
vn -1.0000 0.0000 0.0000
vn 0.0000 -1.0000 0.0000
vn 0.0000 -0.1858 0.9826
vn 0.0000 -0.7303 0.6831
vn 0.7063 -0.7079 0.0000
usemtl None
s off
f 25/1/1 51/2/1 38/3/1 45/4/1
f 21/5/2 28/6/2 44/7/2 37/8/2
f 23/9/3 4/10/3 7/11/3 24/12/3
f 52/13/2 49/14/2 30/15/2 26/16/2
f 4/17/4 2/18/4 6/19/4 7/20/4
f 3/21/3 18/22/3 20/23/3 8/24/3
f 12/25/3 11/26/3 15/27/3 16/28/3
f 54/29/3 53/30/3 19/31/3 21/32/3
f 6/33/5 5/34/5 9/35/5 10/36/5
f 7/37/6 6/38/6 10/39/6 11/40/6
f 16/41/7 15/42/7 14/43/7 13/44/7
f 1/45/8 2/46/8 50/47/8 49/48/8
f 23/49/2 24/50/2 57/51/2 55/52/2
f 54/53/2 23/49/2 55/52/2 60/54/2
f 27/55/9 28/56/9 21/57/9 19/58/9
f 31/59/9 32/60/9 28/56/9 27/55/9
f 30/61/9 31/59/9 27/55/9 26/62/9
f 50/63/1 51/2/1 25/1/1 29/64/1
f 32/60/9 29/65/9 25/66/9 28/56/9
f 1/67/10 3/68/10 8/69/10 5/70/10
f 17/71/9 22/72/9 32/60/9 31/59/9
f 5/73/11 8/74/11 12/75/11 9/76/11
f 2/18/1 4/17/1 51/2/1 50/63/1
f 3/68/2 1/67/2 49/14/2 52/13/2
f 44/77/9 45/78/9 38/79/9 37/80/9
f 39/81/9 42/82/9 41/83/9 40/84/9
f 43/85/9 36/86/9 35/87/9 48/88/9
f 34/89/9 33/90/9 47/91/9 46/92/9
f 51/93/3 21/32/3 37/94/3 38/95/3
f 17/96/1 31/97/1 47/98/1 33/99/1
f 50/63/1 29/64/1 35/100/1 36/101/1
f 32/102/2 22/103/2 43/104/2 48/105/2
f 26/106/8 27/107/8 42/108/8 39/109/8
f 28/110/8 25/111/8 45/112/8 44/113/8
f 51/93/3 54/29/3 21/32/3
f 31/114/3 30/115/3 46/116/3 47/117/3
f 29/118/3 32/119/3 48/120/3 35/121/3
f 27/122/1 19/123/1 41/124/1 42/125/1
f 19/31/3 52/126/3 40/127/3 41/128/3
f 52/13/2 26/16/2 39/129/2 40/130/2
f 4/10/3 23/9/3 54/29/3 51/93/3
f 53/131/7 54/132/7 60/133/7 59/134/7
f 53/30/3 52/126/3 19/31/3
f 18/22/3 3/21/3 52/126/3 53/30/3
f 49/48/8 50/47/8 22/135/8 17/136/8
f 56/137/3 55/138/3 57/139/3 58/140/3
f 55/138/3 56/137/3 59/141/3 60/142/3
f 18/143/1 53/144/1 59/145/1 56/146/1
f 20/147/1 18/143/1 56/146/1 58/148/1
f 24/149/9 20/150/9 58/151/9 57/152/9
f 49/48/8 17/136/8 33/153/8 34/154/8
f 30/15/2 49/14/2 34/155/2 46/156/2
f 22/135/8 50/47/8 36/157/8 43/158/8
f 9/159/2 12/160/2 16/161/2 13/162/2
f 2/46/8 1/45/8 5/163/8 6/164/8
f 11/165/1 10/166/1 14/167/1 15/168/1
f 20/169/3 24/170/3 7/171/3 8/172/3
f 10/173/8 9/174/8 13/175/8 14/176/8
f 8/172/12 7/171/12 11/177/12 12/178/12
