# Blender v2.79 (sub 0) OBJ File: 'drawer_collider.blend'
# www.blender.org
mtllib drawerdrawer_collider.mtl
o object_drawerDrawer_Cube.006
v 1.461807 -0.612036 -0.895381
v 1.461807 -0.715327 -0.895381
v 1.461807 -0.612036 -0.792090
v 1.461807 -0.715327 -0.792090
v 1.372108 -0.612036 -0.895381
v 1.372108 -0.715327 -0.895381
v 1.372108 -0.612036 -0.792090
v 1.372108 -0.715327 -0.792090
v -0.634964 -1.047878 1.687703
v -0.634964 -0.666254 1.687703
v -0.634964 -1.047878 -1.780216
v -0.634964 -0.666254 -1.780216
v 1.372108 -1.047878 -1.780216
v 1.372108 -0.280024 -1.780216
v 1.324319 -0.280024 -1.780216
v 1.372108 -1.047878 1.687703
v 1.324319 -0.280024 1.687703
v 1.372108 -0.280024 1.687703
v 1.324319 -0.666254 1.605828
v -0.581788 -0.666254 1.605828
v 1.324319 -0.666254 -1.694598
v -0.581788 -0.666254 -1.694598
v 1.324319 -0.971678 -1.694598
v 1.324319 -0.971678 1.605828
v -0.581788 -0.971678 -1.694598
v -0.581788 -0.971678 1.605828
v 1.372108 -0.715327 0.937998
v 1.372108 -0.612036 0.937998
v 1.372108 -0.715327 0.834707
v 1.372108 -0.612036 0.834707
v 1.461807 -0.715327 0.937998
v 1.461807 -0.612036 0.937998
v 1.461807 -0.715327 0.834707
v 1.461807 -0.612036 0.834707
v 1.324319 -0.666254 1.687703
v 1.324319 -0.666254 -1.780216
vt 0.000000 0.000000
vt 0.000000 0.000000
vt 0.000000 0.000000
vt 0.000000 0.000000
vt 0.000000 0.000000
vt 0.000000 0.000000
vt 0.000000 0.000000
vt 0.000000 0.000000
vt 0.356543 0.670279
vt 0.970242 0.670279
vt 0.970242 0.739009
vt 0.356543 0.739009
vt 0.365400 0.966822
vt 0.931594 0.967001
vt 0.942072 0.977058
vt 0.356543 0.976856
vt 0.991110 0.132104
vt 0.991110 0.142088
vt 0.638244 0.142088
vt 0.647821 0.132104
vt 0.010817 0.004418
vt 0.622589 0.004418
vt 0.622590 0.356176
vt 0.010817 0.356176
vt 0.981113 0.514314
vt 0.356543 0.514099
vt 0.356567 0.444954
vt 0.981137 0.445169
vt 0.911533 0.995582
vt 0.356575 0.995581
vt 0.356543 0.985895
vt 0.911501 0.985896
vt 0.950948 0.802852
vt 0.356543 0.802852
vt 0.356543 0.747845
vt 0.950948 0.747845
vt 0.991106 0.150925
vt 0.991106 0.160234
vt 0.647822 0.160235
vt 0.638244 0.150924
vt 0.638244 0.307361
vt 0.638244 0.238216
vt 0.646851 0.238216
vt 0.646851 0.307361
vt 0.709409 0.880419
vt 0.356543 0.880419
vt 0.356543 0.811688
vt 0.709409 0.811688
vt 0.004418 0.970214
vt 0.004418 0.375809
vt 0.347707 0.375809
vt 0.347707 0.970213
vt 0.371289 0.592712
vt 0.965692 0.592711
vt 0.965692 0.647718
vt 0.371289 0.647719
vt 0.638244 0.068261
vt 0.981533 0.068261
vt 0.981533 0.123268
vt 0.638244 0.123268
vt 0.981533 0.059425
vt 0.638244 0.059425
vt 0.638244 0.004418
vt 0.981533 0.004418
vt 0.356543 0.889255
vt 0.709409 0.889255
vt 0.709409 0.957985
vt 0.356543 0.957985
vt 0.664294 0.238216
vt 0.664294 0.307361
vt 0.655687 0.307361
vt 0.655687 0.238216
vt 0.000000 0.000000
vt 0.000000 0.000000
vt 0.000000 0.000000
vt 0.000000 0.000000
vt 0.000000 0.000000
vt 0.000000 0.000000
vt 0.000000 0.000000
vt 0.000000 0.000000
vn 0.0000 0.0000 1.0000
vn 0.0000 1.0000 0.0000
vn 1.0000 0.0000 0.0000
vn 0.0000 -1.0000 0.0000
vn 0.0000 0.0000 -1.0000
vn -1.0000 0.0000 0.0000
usemtl None
s off
f 4/1/1 3/2/1 7/3/1 8/4/1
f 1/5/2 5/6/2 7/3/2 3/2/2
f 2/7/3 1/5/3 3/2/3 4/1/3
f 6/8/4 2/7/4 4/1/4 8/4/4
f 6/8/5 5/6/5 1/5/5 2/7/5
f 10/9/6 12/10/6 11/11/6 9/12/6
f 20/13/2 22/14/2 12/15/2 10/16/2
f 21/17/2 36/18/2 12/19/2 22/20/2
f 9/21/4 11/22/4 13/23/4 16/24/4
f 14/25/3 18/26/3 16/27/3 13/28/3
f 15/29/2 17/30/2 18/31/2 14/32/2
f 22/33/3 20/34/3 26/35/3 25/36/3
f 35/37/2 19/38/2 20/39/2 10/40/2
f 19/38/6 17/41/6 15/29/6 21/17/6
f 17/41/1 35/42/1 16/43/1 18/44/1
f 35/45/1 10/46/1 9/47/1 16/48/1
f 24/49/2 23/50/2 25/51/2 26/52/2
f 19/53/6 21/54/6 23/55/6 24/56/6
f 20/57/5 19/58/5 24/59/5 26/60/5
f 21/61/1 22/62/1 25/63/1 23/64/1
f 12/65/5 36/66/5 13/67/5 11/68/5
f 36/69/5 15/70/5 14/71/5 13/72/5
f 35/37/6 17/41/6 19/38/6
f 36/18/6 21/17/6 15/70/6
f 29/73/5 30/74/5 34/75/5 33/76/5
f 33/76/3 34/75/3 32/77/3 31/78/3
f 31/78/1 32/77/1 28/79/1 27/80/1
f 29/73/4 33/76/4 31/78/4 27/80/4
f 34/75/2 30/74/2 28/79/2 32/77/2
