# Blender v2.79 (sub 0) OBJ File: 'chandelier_collider.blend'
# www.blender.org
mtllib chandelier_collider.mtl
o object_static_chandelier_Cylinder
v -5.248800 -1.799809 -1.033644
v -5.248800 1.815679 -1.033644
v 3.629209 1.815679 -4.832364
v 3.629209 -1.854912 -4.832364
v 3.629209 1.815679 4.807071
v 3.629209 -1.854912 4.807071
v -0.091995 1.815679 -4.832364
v -0.091995 -1.854912 -4.832364
v -0.091995 1.815679 4.807071
v -0.091995 -1.854912 4.807071
v 2.272514 5.025426 -3.154874
v 2.272514 5.025426 3.273312
v -3.737519 5.025426 -0.680603
v -0.246582 5.025426 -3.154874
v -0.246582 5.025426 3.273312
v -3.737519 5.025426 0.799040
v -5.248800 -1.799809 1.152082
v -5.248800 1.815679 1.152082
v -1.062483 7.213506 1.062483
v -1.062483 7.213506 -1.062484
v 1.062483 7.213506 1.062483
v 1.062483 7.213506 -1.062484
v 1.062483 7.108678 -1.062484
v 1.062483 7.108678 1.062483
v -1.062483 7.108678 -1.062484
v -1.062483 7.108678 1.062483
v 0.518026 6.870851 -0.518027
v 0.518026 5.025426 -0.518027
v 0.518026 6.870851 0.518026
v 0.518026 5.025426 0.518026
v -0.518026 6.870851 -0.518027
v -0.518026 5.025426 -0.518027
v -0.518026 6.870851 0.518026
v -0.518026 5.025426 0.518026
vt 0.000000 0.000000
vt 0.000000 0.000000
vt 0.000000 0.000000
vt 0.000000 0.000000
vt 0.000000 0.000000
vt 0.000000 0.000000
vt 0.000000 0.000000
vt 0.000000 0.000000
vt 0.000000 0.000000
vt 0.000000 0.000000
vt 0.000000 0.000000
vt 0.000000 0.000000
vt 0.000000 0.000000
vt 0.000000 0.000000
vt 0.000000 0.000000
vt 0.000000 0.000000
vt 0.000000 0.000000
vt 0.000000 0.000000
vt 0.000000 0.000000
vt 0.000000 0.000000
vt 0.000000 0.000000
vt 0.000000 0.000000
vt 0.000000 0.000000
vt 0.000000 0.000000
vt 0.000000 0.000000
vt 0.000000 0.000000
vt 0.000000 0.000000
vt 0.000000 0.000000
vt 0.000000 0.000000
vt 0.000000 0.000000
vt 0.000000 0.000000
vt 0.000000 0.000000
vt 0.000000 0.000000
vt 0.000000 0.000000
vn -0.5931 0.0000 -0.8051
vn -0.5783 0.0000 0.8159
vn -0.0107 -0.9999 0.0000
vn -1.0000 0.0000 0.0000
vn -0.5437 0.3404 0.7671
vn 0.0000 -1.0000 0.0000
vn 0.0000 0.0000 1.0000
vn 1.0000 0.0000 0.0000
vn 0.0000 0.0000 -1.0000
vn -0.5489 0.3553 -0.7566
vn 0.9211 0.3893 0.0000
vn 0.0000 1.0000 0.0000
vn 0.0000 0.4311 0.9023
vn 0.0000 0.4632 -0.8863
vn -0.9047 0.4260 0.0000
vn -0.4003 -0.9164 0.0000
vn 0.4003 -0.9164 0.0000
vn 0.0000 -0.9164 0.4003
vn 0.0000 -0.9164 -0.4003
usemtl None
s off
f 7/1/1 8/2/1 1/3/1 2/4/1
f 10/5/2 9/6/2 18/7/2 17/8/2
f 8/2/3 10/5/3 17/8/3 1/3/3
f 17/8/4 18/7/4 2/4/4 1/3/4
f 18/7/5 9/6/5 15/9/5 16/10/5
f 8/2/6 4/11/6 6/12/6 10/5/6
f 6/12/7 5/13/7 9/6/7 10/5/7
f 4/11/8 3/14/8 5/13/8 6/12/8
f 8/2/9 7/1/9 3/14/9 4/11/9
f 7/1/10 2/4/10 13/15/10 14/16/10
f 5/13/11 3/14/11 11/17/11 12/18/11
f 15/9/12 14/16/12 13/15/12 16/10/12
f 9/6/13 5/13/13 12/18/13 15/9/13
f 3/14/14 7/1/14 14/16/14 11/17/14
f 2/4/15 18/7/15 16/10/15 13/15/15
f 11/17/12 14/16/12 15/9/12 12/18/12
f 31/19/16 33/20/16 26/21/16 25/22/16
f 29/23/17 27/24/17 23/25/17 24/26/17
f 30/27/7 29/23/7 33/20/7 34/28/7
f 32/29/9 31/19/9 27/24/9 28/30/9
f 23/25/9 25/22/9 20/31/9 22/32/9
f 33/20/18 29/23/18 24/26/18 26/21/18
f 25/22/4 26/21/4 19/33/4 20/31/4
f 27/24/19 31/19/19 25/22/19 23/25/19
f 24/26/8 23/25/8 22/32/8 21/34/8
f 28/30/8 27/24/8 29/23/8 30/27/8
f 34/28/4 33/20/4 31/19/4 32/29/4
f 26/21/7 24/26/7 21/34/7 19/33/7
