# Blender v2.79 (sub 0) OBJ File: 'wallLighting_v2_combined.blend'
# www.blender.org
mtllib lightBulb.mtl
o object_static_lightBulb_Cylinder.001
v -1.474513 7.487021 -2.536926
v -1.474513 7.824733 -2.677451
v -1.233792 7.487021 -2.397945
v -1.112094 7.824733 -2.468208
v -1.233792 7.487021 -2.119984
v -1.112094 7.824733 -2.049722
v -1.474513 7.487021 -1.981004
v -1.474513 7.824733 -1.840479
v -1.715235 7.487021 -2.119984
v -1.836933 7.824733 -2.049722
v -1.715235 7.487021 -2.397945
v -1.836933 7.824733 -2.468208
v -1.474513 8.055185 -2.719064
v -1.076056 8.055185 -2.489014
v -1.076056 8.055185 -2.028915
v -1.474513 8.055185 -1.798866
v -1.872971 8.055185 -2.028915
v -1.872971 8.055185 -2.489014
v -1.474513 8.305221 -2.701010
v -1.091691 8.305221 -2.479987
v -1.091691 8.305221 -2.037942
v -1.474513 8.305221 -1.816920
v -1.857335 8.305221 -2.037942
v -1.857335 8.305221 -2.479987
v -1.474513 8.630716 -2.609115
v -1.171275 8.630716 -2.434040
v -1.171275 8.630716 -2.083890
v -1.474513 8.630716 -1.908815
v -1.777752 8.630716 -2.083890
v -1.777752 8.630716 -2.434040
v -1.474513 8.883521 -2.484069
v -1.279567 8.883521 -2.371517
v -1.279567 8.883521 -2.146412
v -1.474513 8.883521 -2.033860
v -1.669460 8.883521 -2.146412
v -1.669460 8.883521 -2.371517
v -1.474513 9.044719 -2.361173
v -1.385998 9.044719 -2.310069
v -1.385998 9.044719 -2.207861
v -1.474513 9.044719 -2.156756
v -1.563028 9.044719 -2.207861
v -1.563028 9.044719 -2.310069
vt 0.256861 0.331061
vt 0.355287 0.464539
vt 0.230894 0.560743
vt 0.134538 0.410971
vt 0.071193 0.670280
vt 0.000922 0.479234
vt 0.706523 0.000922
vt 0.857595 0.105823
vt 0.707994 0.219042
vt 0.606241 0.098272
vt 0.584285 0.301064
vt 0.492649 0.175936
vt 0.755052 0.291787
vt 0.626348 0.364631
vt 0.469527 0.379628
vt 0.375511 0.251745
vt 0.513747 0.439609
vt 0.665718 0.429251
vt 0.558552 0.498008
vt 0.288956 0.630302
vt 0.137598 0.770542
vt 0.405264 0.525521
vt 0.929024 0.200485
vt 0.459333 0.582841
vt 0.620597 0.577261
vt 0.540115 0.655335
vt 0.970954 0.317032
vt 0.793094 0.370670
vt 0.358228 0.693642
vt 0.237965 0.856746
vt 0.713301 0.520595
vt 0.751075 0.609860
vt 0.680742 0.652709
vt 0.825464 0.484977
vt 0.469340 0.763433
vt 0.412651 0.926654
vt 0.973180 0.481878
vt 0.623949 0.716792
vt 0.740090 0.725105
vt 0.708388 0.769391
vt 0.931058 0.610111
vt 0.834686 0.591546
vt 0.584786 0.804783
vt 0.578667 0.926654
vt 0.062046 0.928499
vt 0.082420 0.963788
vt 0.062046 0.999078
vt 0.021297 0.999078
vt 0.000922 0.963788
vt 0.021297 0.928499
vt 0.831181 0.682400
vt 0.782315 0.694714
vt 0.691750 0.824234
vt 0.697439 0.884494
vt 0.879512 0.694299
vn 0.0000 -0.3842 -0.9232
vn 0.0000 -0.2737 -0.9618
vn 0.8329 -0.2737 -0.4809
vn 0.7996 -0.3842 -0.4616
vn 0.8329 -0.2737 0.4809
vn 0.7996 -0.3842 0.4616
vn 0.0000 -0.2737 0.9618
vn 0.0000 -0.3842 0.9232
vn -0.8329 -0.2737 0.4809
vn -0.7996 -0.3842 0.4616
vn 0.0000 -0.0512 0.9987
vn -0.8649 -0.0512 0.4993
vn -0.8329 -0.2737 -0.4809
vn -0.7996 -0.3842 -0.4616
vn -0.8649 -0.0512 -0.4993
vn -0.8538 0.1675 0.4929
vn -0.8538 0.1675 -0.4929
vn 0.8649 -0.0512 -0.4993
vn 0.8649 -0.0512 0.4993
vn 0.0000 -0.0512 -0.9987
vn 0.0000 0.1675 -0.9859
vn -0.8114 0.3495 -0.4684
vn 0.0000 0.3495 -0.9369
vn 0.8538 0.1675 0.4929
vn 0.0000 0.1675 0.9859
vn 0.8538 0.1675 -0.4929
vn -0.8114 0.3495 0.4684
vn -0.7429 0.5139 0.4289
vn -0.7429 0.5139 -0.4289
vn 0.0000 0.3495 0.9369
vn 0.8114 0.3495 -0.4684
vn 0.8114 0.3495 0.4684
vn 0.0000 0.5139 -0.8578
vn -0.4730 0.8376 -0.2731
vn 0.0000 0.8376 -0.5462
vn 0.7429 0.5139 0.4289
vn 0.0000 0.5139 0.8578
vn 0.7429 0.5139 -0.4289
vn 0.4730 0.8376 -0.2731
vn -0.4730 0.8376 0.2731
vn 0.0000 0.8376 0.5462
vn 0.4730 0.8376 0.2731
usemtl None
s 1
f 1/1/1 2/2/2 4/3/3 3/4/4
f 3/4/4 4/3/3 6/5/5 5/6/6
f 5/7/6 6/8/5 8/9/7 7/10/8
f 7/10/8 8/9/7 10/11/9 9/12/10
f 10/11/9 8/9/7 16/13/11 17/14/12
f 9/12/10 10/11/9 12/15/13 11/16/14
f 11/16/14 12/15/13 2/2/2 1/1/1
f 18/17/15 17/14/12 23/18/16 24/19/17
f 6/5/5 4/3/3 14/20/18 15/21/19
f 12/15/13 10/11/9 17/14/12 18/17/15
f 4/3/3 2/2/2 13/22/20 14/20/18
f 8/9/7 6/8/5 15/23/19 16/13/11
f 2/2/2 12/15/13 18/17/15 13/22/20
f 19/24/21 24/19/17 30/25/22 25/26/23
f 16/13/11 15/23/19 21/27/24 22/28/25
f 14/20/18 13/22/20 19/24/21 20/29/26
f 13/22/20 18/17/15 24/19/17 19/24/21
f 17/14/12 16/13/11 22/28/25 23/18/16
f 15/21/19 14/20/18 20/29/26 21/30/24
f 30/25/22 29/31/27 35/32/28 36/33/29
f 23/18/16 22/28/25 28/34/30 29/31/27
f 21/30/24 20/29/26 26/35/31 27/36/32
f 24/19/17 23/18/16 29/31/27 30/25/22
f 22/28/25 21/27/24 27/37/32 28/34/30
f 20/29/26 19/24/21 25/26/23 26/35/31
f 31/38/33 36/33/29 42/39/34 37/40/35
f 28/34/30 27/37/32 33/41/36 34/42/37
f 26/35/31 25/26/23 31/38/33 32/43/38
f 25/26/23 30/25/22 36/33/29 31/38/33
f 29/31/27 28/34/30 34/42/37 35/32/28
f 27/36/32 26/35/31 32/43/38 33/44/36
f 38/45/39 37/46/35 42/47/34 41/48/40 40/49/41 39/50/42
f 35/32/28 34/42/37 40/51/41 41/52/40
f 33/44/36 32/43/38 38/53/39 39/54/42
f 36/33/29 35/32/28 41/52/40 42/39/34
f 34/42/37 33/41/36 39/55/42 40/51/41
f 32/43/38 31/38/33 37/40/35 38/53/39
