# Blender v2.79 (sub 0) OBJ File: 'rumBottle.blend'
# www.blender.org
mtllib rumBottle.mtl
o object_static_rumBottle_Cylinder
v 0.000000 -1.000000 -1.000000
v -0.000000 1.562641 -1.140591
v 0.587785 -1.000000 -0.809017
v 0.670422 1.562641 -0.922757
v 0.951057 -1.000000 -0.309017
v 1.084766 1.562641 -0.352462
v 0.951056 -1.000000 0.309017
v 1.084766 1.562641 0.352462
v 0.587785 -1.000000 0.809017
v 0.670422 1.562641 0.922757
v -0.000000 -1.000000 1.000000
v -0.000000 1.562641 1.140591
v -0.587785 -1.000000 0.809017
v -0.670423 1.562641 0.922757
v -0.951056 -1.000000 0.309017
v -1.084766 1.562641 0.352462
v -0.951056 -1.000000 -0.309017
v -1.084766 1.562641 -0.352462
v -0.587785 -1.000000 -0.809017
v -0.670422 1.562641 -0.922758
v -0.000000 1.791259 -1.140591
v 0.670422 1.791259 -0.922757
v 1.084766 1.791259 -0.352462
v 1.084766 1.791259 0.352462
v 0.670422 1.791259 0.922757
v -0.000000 1.791259 1.140591
v -0.670423 1.791259 0.922757
v -1.084766 1.791259 0.352462
v -1.084766 1.791259 -0.352462
v -0.670422 1.791259 -0.922758
v -0.000000 2.122589 -1.038546
v 0.610442 2.122589 -0.840202
v 0.987716 2.122589 -0.320928
v 0.987716 2.122589 0.320929
v 0.610442 2.122589 0.840202
v -0.000000 2.122589 1.038546
v -0.610442 2.122589 0.840202
v -0.987716 2.122589 0.320929
v -0.987716 2.122589 -0.320929
v -0.610442 2.122589 -0.840202
v 0.000000 2.454375 -0.488792
v 0.287305 2.454375 -0.395441
v 0.464869 2.454375 -0.151045
v 0.464869 2.454375 0.151045
v 0.287305 2.454375 0.395441
v -0.000000 2.454375 0.488792
v -0.287305 2.454375 0.395441
v -0.464869 2.454375 0.151045
v -0.464869 2.454375 -0.151045
v -0.287305 2.454375 -0.395442
v -0.000000 2.608577 -0.490429
v 0.288267 2.608577 -0.396766
v 0.466426 2.608577 -0.151551
v 0.466426 2.608577 0.151551
v 0.288267 2.608577 0.396766
v -0.000000 2.608577 0.490430
v -0.288267 2.608577 0.396766
v -0.466426 2.608577 0.151551
v -0.466426 2.608577 -0.151551
v -0.288267 2.608577 -0.396766
v -0.000000 2.684627 -0.402663
v 0.236679 2.684627 -0.325761
v 0.382955 2.684627 -0.124430
v 0.382955 2.684627 0.124430
v 0.236679 2.684627 0.325761
v -0.000000 2.684627 0.402663
v -0.236680 2.684627 0.325761
v -0.382955 2.684627 0.124430
v -0.382955 2.684627 -0.124430
v -0.236679 2.684627 -0.325761
v -0.000000 2.784413 -0.384108
v 0.225773 2.784413 -0.310750
v 0.365308 2.784413 -0.118696
v 0.365308 2.784413 0.118696
v 0.225773 2.784413 0.310750
v -0.000000 2.784413 0.384108
v -0.225773 2.784413 0.310750
v -0.365308 2.784413 0.118696
v -0.365308 2.784413 -0.118696
v -0.225773 2.784413 -0.310750
v -0.225773 3.350041 -0.310750
v -0.365308 3.350041 -0.118696
v -0.365308 3.350041 0.118696
v -0.225773 3.350041 0.310750
v -0.000000 3.350041 0.384108
v 0.225773 3.350041 0.310750
v 0.365308 3.350041 0.118696
v 0.365308 3.350041 -0.118696
v 0.225773 3.350041 -0.310750
v -0.000000 3.350041 -0.384108
v 0.000000 2.327948 -0.832307
v 0.489218 2.327948 -0.673350
v -0.791571 2.327948 0.257197
v -0.791571 2.327948 -0.257197
v 0.489218 2.327948 0.673350
v -0.000000 2.327948 0.832307
v 0.791571 2.327948 -0.257197
v -0.489217 2.327948 -0.673351
v -0.489218 2.327948 0.673350
v 0.791571 2.327948 0.257197
v -0.253265 3.405886 -0.348589
v -0.409791 3.405886 -0.133149
v -0.409791 3.405886 0.133149
v -0.253265 3.405886 0.348589
v -0.000000 3.405886 0.430880
v 0.253265 3.405886 0.348589
v 0.409791 3.405886 0.133149
v 0.409791 3.405886 -0.133149
v 0.253265 3.405886 -0.348589
v -0.000000 3.405886 -0.430880
v -0.253264 3.997503 -0.348589
v -0.409791 3.997503 -0.133149
v -0.409791 3.997503 0.133149
v -0.253265 3.997503 0.348589
v 0.000000 3.997503 0.430880
v 0.253265 3.997503 0.348589
v 0.409791 3.997503 0.133149
v 0.409791 3.997503 -0.133149
v 0.253265 3.997503 -0.348589
v 0.000000 3.997503 -0.430880
vt 0.199291 0.638751
vt 0.204583 0.951342
vt 0.118714 0.951342
vt 0.124006 0.638751
vt 0.895822 0.010948
vt 0.901114 0.323539
vt 0.815244 0.323539
vt 0.820536 0.010948
vt 0.937860 0.385151
vt 0.943152 0.697742
vt 0.857283 0.697742
vt 0.862574 0.385151
vt 0.788055 0.010948
vt 0.793348 0.323539
vt 0.707478 0.323539
vt 0.712770 0.010948
vt 0.091526 0.638751
vt 0.096818 0.951342
vt 0.010948 0.951342
vt 0.016240 0.638751
vt 0.722328 0.385151
vt 0.727621 0.697742
vt 0.641751 0.697742
vt 0.647042 0.385151
vt 0.357050 0.676461
vt 0.362342 0.989052
vt 0.276473 0.989052
vt 0.281765 0.676461
vt 0.830094 0.385151
vt 0.835387 0.697742
vt 0.749517 0.697742
vt 0.754809 0.385151
vt 0.418605 0.332672
vt 0.331155 0.363255
vt 0.325975 0.334644
vt 0.404272 0.307202
vt 0.680290 0.010948
vt 0.685582 0.323539
vt 0.599712 0.323539
vt 0.605005 0.010948
vt 0.464816 0.676461
vt 0.470108 0.989052
vt 0.384238 0.989052
vt 0.389530 0.676461
vt 0.254577 0.501003
vt 0.231312 0.572604
vt 0.170405 0.616855
vt 0.095120 0.616855
vt 0.034212 0.572604
vt 0.010948 0.501003
vt 0.034212 0.429402
vt 0.095120 0.385151
vt 0.170405 0.385151
vt 0.231312 0.429403
vt 0.102457 0.256264
vt 0.059248 0.186539
vt 0.095967 0.170748
vt 0.131538 0.229415
vt 0.238985 0.363255
vt 0.243545 0.334686
vt 0.152443 0.332835
vt 0.166180 0.307497
vt 0.081093 0.275604
vt 0.032495 0.197916
vt 0.577817 0.109634
vt 0.543903 0.197939
vt 0.517603 0.184633
vt 0.549178 0.098635
vt 0.010948 0.107601
vt 0.040827 0.104749
vt 0.014567 0.010948
vt 0.046449 0.012566
vt 0.491707 0.275117
vt 0.469994 0.255359
vt 0.459771 0.084847
vt 0.446481 0.153646
vt 0.399619 0.136061
vt 0.404912 0.091978
vt 0.479343 0.167162
vt 0.502037 0.086606
vt 0.318334 0.295394
vt 0.384014 0.272389
vt 0.184639 0.272471
vt 0.094003 0.022420
vt 0.082259 0.101572
vt 0.439327 0.228518
vt 0.249316 0.295350
vt 0.411109 0.521023
vt 0.376197 0.516845
vt 0.378678 0.499147
vt 0.412224 0.503067
vt 0.367867 0.243702
vt 0.312662 0.263304
vt 0.305882 0.216701
vt 0.345653 0.201668
vt 0.200197 0.244296
vt 0.155620 0.208167
vt 0.191048 0.178929
vt 0.223887 0.204452
vt 0.115820 0.101217
vt 0.130083 0.038403
vt 0.172019 0.064515
vt 0.161431 0.103886
vt 0.414129 0.206302
vt 0.378329 0.173895
vt 0.254601 0.263426
vt 0.263683 0.217592
vt 0.126093 0.158936
vt 0.169098 0.144026
vt 0.314349 0.483309
vt 0.283801 0.469747
vt 0.291494 0.459747
vt 0.318881 0.471164
vt 0.308748 0.500058
vt 0.276473 0.486791
vt 0.552279 0.510536
vt 0.517202 0.517500
vt 0.514098 0.499594
vt 0.547523 0.493012
vt 0.446396 0.522548
vt 0.446157 0.504480
vt 0.341956 0.509928
vt 0.345873 0.492672
vt 0.586571 0.500010
vt 0.580148 0.483407
vt 0.481828 0.521411
vt 0.480203 0.503356
vt 0.619855 0.485803
vt 0.612658 0.468788
vt 0.544392 0.479269
vt 0.512226 0.485570
vt 0.510416 0.472462
vt 0.541465 0.466484
vt 0.413600 0.489050
vt 0.446493 0.490341
vt 0.349330 0.479400
vt 0.575368 0.469990
vt 0.479467 0.489211
vt 0.381085 0.485391
vt 0.603523 0.457140
vt 0.571190 0.457870
vt 0.528059 0.398199
vt 0.554413 0.392258
vt 0.414765 0.475886
vt 0.446703 0.477075
vt 0.322982 0.459184
vt 0.352370 0.466881
vt 0.478691 0.475959
vt 0.383187 0.472462
vt 0.598219 0.446876
vt 0.296194 0.449309
vt 0.312213 0.385151
vt 0.339140 0.391874
vt 0.580264 0.385151
vt 0.392739 0.402259
vt 0.419836 0.405058
vt 0.365837 0.397776
vt 0.501291 0.402585
vt 0.332024 0.641832
vt 0.303502 0.654565
vt 0.297809 0.646290
vt 0.328964 0.633167
vt 0.447043 0.406062
vt 0.474240 0.405232
vt 0.358927 0.625005
vt 0.308968 0.564493
vt 0.342978 0.555873
vt 0.389914 0.628143
vt 0.360908 0.633639
vt 0.388660 0.619496
vt 0.477467 0.624955
vt 0.448290 0.623854
vt 0.448331 0.615183
vt 0.478152 0.616325
vt 0.506425 0.628232
vt 0.507770 0.619701
vt 0.562446 0.641916
vt 0.534918 0.633773
vt 0.536990 0.625442
vt 0.565483 0.634039
vt 0.419063 0.624913
vt 0.418463 0.616242
vt 0.588604 0.654565
vt 0.594001 0.647468
vt 0.591841 0.712729
vt 0.591841 0.745168
vt 0.572774 0.771411
vt 0.541922 0.781436
vt 0.511071 0.771412
vt 0.492004 0.745168
vt 0.492004 0.712729
vt 0.511071 0.686485
vt 0.541922 0.676461
vt 0.572774 0.686485
vt 0.517102 0.549538
vt 0.551536 0.555867
vt 0.377471 0.549555
vt 0.482312 0.545719
vt 0.447322 0.544444
vt 0.585524 0.564631
vt 0.412314 0.545727
vt 0.276473 0.574097
vt 0.619210 0.575647
vn 0.0000 -0.6641 -0.7476
vn 0.0000 -0.0273 -0.9996
vn 0.5875 -0.0273 -0.8087
vn 0.4395 -0.6641 -0.6048
vn 0.9507 -0.0273 -0.3089
vn 0.7111 -0.6641 -0.2310
vn 0.9507 -0.0273 0.3089
vn 0.7111 -0.6641 0.2310
vn 0.5875 -0.0273 0.8087
vn 0.4395 -0.6641 0.6048
vn 0.0000 -0.0273 0.9996
vn 0.0000 -0.6641 0.7476
vn -0.5875 -0.0273 0.8087
vn -0.4395 -0.6641 0.6048
vn -0.9507 -0.0273 0.3089
vn -0.7111 -0.6641 0.2310
vn -0.9507 -0.0273 -0.3089
vn -0.7111 -0.6641 -0.2310
vn -0.9410 0.1447 0.3058
vn -0.9410 0.1447 -0.3058
vn -0.5875 -0.0273 -0.8087
vn -0.4395 -0.6641 -0.6048
vn 0.5816 0.1447 0.8005
vn 0.9410 0.1447 0.3058
vn 0.8254 0.4967 0.2682
vn 0.5101 0.4967 0.7021
vn -0.5816 0.1447 0.8005
vn 0.0000 0.1447 0.9895
vn 0.0000 0.1447 -0.9895
vn 0.5816 0.1447 -0.8005
vn 0.9410 0.1447 -0.3058
vn -0.5816 0.1447 -0.8005
vn 0.3331 0.8238 -0.4585
vn 0.0000 0.8238 -0.5668
vn 0.0000 0.6277 -0.7784
vn 0.4575 0.6277 -0.6297
vn 0.0000 0.4967 -0.8679
vn 0.5101 0.4967 -0.7021
vn -0.8254 0.4967 0.2682
vn -0.8254 0.4967 -0.2682
vn 0.0000 0.4967 0.8679
vn 0.8254 0.4967 -0.2682
vn -0.5101 0.4967 -0.7021
vn -0.5101 0.4967 0.7021
vn 0.0000 0.6277 0.7784
vn 0.4575 0.6277 0.6297
vn 0.5431 0.3825 0.7475
vn 0.0000 0.3825 0.9239
vn -0.5390 0.8238 -0.1751
vn -0.5390 0.8238 0.1751
vn -0.7403 0.6277 0.2405
vn -0.7403 0.6277 -0.2405
vn 0.0000 0.8238 0.5668
vn 0.3331 0.8238 0.4585
vn 0.5390 0.8238 -0.1751
vn 0.7403 0.6277 -0.2405
vn -0.3331 0.8238 -0.4585
vn -0.4575 0.6277 -0.6297
vn -0.3331 0.8238 0.4585
vn -0.4575 0.6277 0.6297
vn 0.5390 0.8238 0.1751
vn 0.7403 0.6277 0.2405
vn 0.8787 0.3825 -0.2855
vn 0.5431 0.3825 -0.7475
vn 0.4993 0.5275 -0.6873
vn 0.8079 0.5275 -0.2625
vn -0.8787 0.3825 -0.2855
vn -0.5431 0.3825 -0.7475
vn -0.5431 0.3825 0.7475
vn 0.8787 0.3825 0.2855
vn 0.0000 0.3825 -0.9239
vn -0.8787 0.3825 0.2855
vn -0.4993 0.5275 -0.6873
vn -0.8079 0.5275 -0.2625
vn -0.9469 0.0935 -0.3077
vn -0.5852 0.0935 -0.8054
vn 0.0000 0.5275 0.8495
vn -0.4993 0.5275 0.6873
vn 0.8079 0.5275 0.2625
vn 0.0000 0.5275 -0.8495
vn -0.8079 0.5275 0.2625
vn 0.4993 0.5275 0.6873
vn 0.0000 0.0935 -0.9956
vn -0.5471 -0.3653 -0.7531
vn 0.0000 -0.3653 -0.9309
vn 0.0000 0.0935 0.9956
vn -0.5852 0.0935 0.8054
vn 0.9469 0.0935 -0.3077
vn 0.9469 0.0935 0.3077
vn -0.9469 0.0935 0.3077
vn 0.5852 0.0935 0.8054
vn 0.5852 0.0935 -0.8054
vn 0.5471 -0.3653 -0.7531
vn 0.8853 -0.3653 -0.2876
vn 0.5471 -0.3653 0.7531
vn 0.0000 -0.3653 0.9309
vn 0.8853 -0.3653 0.2876
vn -0.8853 -0.3653 -0.2876
vn 0.5565 -0.3217 -0.7660
vn 0.9005 -0.3217 -0.2926
vn -0.5471 -0.3653 0.7531
vn -0.8853 -0.3653 0.2876
vn 0.9005 -0.3217 0.2926
vn 0.7278 0.6437 -0.2365
vn 0.7278 0.6437 0.2365
vn 0.5565 -0.3217 0.7660
vn -0.5565 -0.3217 0.7660
vn -0.9005 -0.3217 0.2926
vn -0.9005 -0.3217 -0.2926
vn -0.5565 -0.3217 -0.7660
vn 0.0000 -0.3217 -0.9468
vn 0.0000 -0.3217 0.9468
vn 0.4498 0.6437 -0.6191
vn 0.0000 0.6437 -0.7653
vn -0.4498 0.6437 -0.6191
vn -0.7278 0.6437 -0.2365
vn -0.7278 0.6437 0.2365
vn -0.4498 0.6437 0.6191
vn 0.0000 0.6437 0.7653
vn 0.4498 0.6437 0.6191
usemtl Material.001
s 1
f 1/1/1 2/2/2 4/3/3 3/4/4
f 3/5/4 4/6/3 6/7/5 5/8/6
f 5/9/6 6/10/5 8/11/7 7/12/8
f 7/13/8 8/14/7 10/15/9 9/16/10
f 9/17/10 10/18/9 12/19/11 11/20/12
f 11/21/12 12/22/11 14/23/13 13/24/14
f 13/25/14 14/26/13 16/27/15 15/28/16
f 15/29/16 16/30/15 18/31/17 17/32/18
f 18/33/17 16/34/15 28/35/19 29/36/20
f 17/37/18 18/38/17 20/39/21 19/40/22
f 19/41/22 20/42/21 2/43/2 1/44/1
f 1/45/1 3/46/4 5/47/6 7/48/8 9/49/10 11/50/12 13/51/14 15/52/16 17/53/18 19/54/22
f 25/55/23 24/56/24 34/57/25 35/58/26
f 16/34/15 14/59/13 27/60/27 28/35/19
f 14/59/13 12/61/11 26/62/28 27/60/27
f 12/61/11 10/63/9 25/55/23 26/62/28
f 10/63/9 8/64/7 24/56/24 25/55/23
f 4/65/3 2/66/2 21/67/29 22/68/30
f 8/64/7 6/69/5 23/70/31 24/56/24
f 6/69/5 4/71/3 22/72/30 23/70/31
f 2/66/2 20/73/21 30/74/32 21/67/29
f 20/73/21 18/33/17 29/36/20 30/74/32
f 92/75/33 91/76/34 41/77/35 42/78/36
f 22/68/30 21/67/29 31/79/37 32/80/38
f 29/36/20 28/35/19 38/81/39 39/82/40
f 26/62/28 25/55/23 35/58/26 36/83/41
f 23/70/31 22/72/30 32/84/38 33/85/42
f 30/74/32 29/36/20 39/82/40 40/86/43
f 27/60/27 26/62/28 36/83/41 37/87/44
f 24/56/24 23/70/31 33/85/42 34/57/25
f 21/67/29 30/74/32 40/86/43 31/79/37
f 28/35/19 27/60/27 37/87/44 38/81/39
f 46/88/45 45/89/46 55/90/47 56/91/48
f 94/92/49 93/93/50 48/94/51 49/95/52
f 96/96/53 95/97/54 45/98/46 46/99/45
f 97/100/55 92/101/33 42/102/36 43/103/56
f 98/104/57 94/92/49 49/95/52 50/105/58
f 99/106/59 96/96/53 46/99/45 47/107/60
f 100/108/61 97/100/55 43/103/56 44/109/62
f 91/76/34 98/104/57 50/105/58 41/77/35
f 93/93/50 99/106/59 47/107/60 48/94/51
f 95/97/54 100/108/61 44/109/62 45/98/46
f 53/110/63 52/111/64 62/112/65 63/113/66
f 43/114/56 42/115/36 52/111/64 53/110/63
f 50/116/58 49/117/52 59/118/67 60/119/68
f 47/120/60 46/88/45 56/91/48 57/121/69
f 44/122/62 43/114/56 53/110/63 54/123/70
f 41/124/35 50/116/58 60/119/68 51/125/71
f 48/126/51 47/120/60 57/121/69 58/127/72
f 45/89/46 44/122/62 54/123/70 55/90/47
f 42/128/36 41/124/35 51/125/71 52/129/64
f 49/117/52 48/126/51 58/127/72 59/118/67
f 70/130/73 69/131/74 79/132/75 80/133/76
f 60/119/68 59/118/67 69/131/74 70/130/73
f 57/121/69 56/91/48 66/134/77 67/135/78
f 54/123/70 53/110/63 63/113/66 64/136/79
f 51/125/71 60/119/68 70/130/73 61/137/80
f 58/127/72 57/121/69 67/135/78 68/138/81
f 55/90/47 54/123/70 64/136/79 65/139/82
f 52/129/64 51/125/71 61/137/80 62/140/65
f 59/118/67 58/127/72 68/138/81 69/131/74
f 56/91/48 55/90/47 65/139/82 66/134/77
f 71/141/83 80/133/76 81/142/84 90/143/85
f 67/135/78 66/134/77 76/144/86 77/145/87
f 64/136/79 63/113/66 73/146/88 74/147/89
f 61/137/80 70/130/73 80/133/76 71/141/83
f 68/138/81 67/135/78 77/145/87 78/148/90
f 65/139/82 64/136/79 74/147/89 75/149/91
f 62/140/65 61/137/80 71/141/83 72/150/92
f 69/131/74 68/138/81 78/148/90 79/132/75
f 66/134/77 65/139/82 75/149/91 76/144/86
f 63/113/66 62/112/65 72/151/92 73/146/88
f 73/146/88 72/151/92 89/152/93 88/153/94
f 72/150/92 71/141/83 90/143/85 89/154/93
f 76/144/86 75/149/91 86/155/95 85/156/96
f 74/147/89 73/146/88 88/153/94 87/157/97
f 75/149/91 74/147/89 87/157/97 86/155/95
f 80/133/76 79/132/75 82/158/98 81/142/84
f 88/159/94 89/160/93 109/161/99 108/162/100
f 78/148/90 77/145/87 84/163/101 83/164/102
f 79/132/75 78/148/90 83/164/102 82/158/98
f 77/145/87 76/144/86 85/156/96 84/163/101
f 35/58/26 34/57/25 100/108/61 95/97/54
f 38/81/39 37/87/44 99/106/59 93/93/50
f 31/79/37 40/86/43 98/104/57 91/76/34
f 34/57/25 33/85/42 97/100/55 100/108/61
f 37/87/44 36/83/41 96/96/53 99/106/59
f 40/86/43 39/82/40 94/92/49 98/104/57
f 33/85/42 32/84/38 92/101/33 97/100/55
f 36/83/41 35/58/26 95/97/54 96/96/53
f 39/82/40 38/81/39 93/93/50 94/92/49
f 32/80/38 31/79/37 91/76/34 92/75/33
f 107/165/103 108/162/100 118/166/104 117/167/105
f 86/168/95 87/169/97 107/165/103 106/170/106
f 83/171/102 84/172/101 104/173/107 103/174/108
f 82/175/98 83/171/102 103/174/108 102/176/109
f 90/177/85 81/178/84 101/179/110 110/180/111
f 85/181/96 86/168/95 106/170/106 105/182/112
f 89/183/93 90/177/85 110/180/111 109/184/99
f 84/172/101 85/181/96 105/182/112 104/173/107
f 87/169/97 88/159/94 108/162/100 107/165/103
f 81/178/84 82/175/98 102/176/109 101/179/110
f 119/185/113 120/186/114 111/187/115 112/188/116 113/189/117 114/190/118 115/191/119 116/192/120 117/193/105 118/194/104
f 101/179/110 102/176/109 112/195/116 111/196/115
f 106/170/106 107/165/103 117/167/105 116/197/120
f 102/176/109 103/174/108 113/198/117 112/195/116
f 103/174/108 104/173/107 114/199/118 113/198/117
f 110/180/111 101/179/110 111/196/115 120/200/114
f 104/173/107 105/182/112 115/201/119 114/199/118
f 105/182/112 106/170/106 116/197/120 115/201/119
f 108/162/100 109/161/99 119/202/113 118/166/104
f 109/184/99 110/180/111 120/200/114 119/203/113
