# Blender v2.79 (sub 0) OBJ File: 'ceiling_basic.blend'
# www.blender.org
mtllib ceiling_basic.mtl
o object_static_hallwayCeilingBasic_Plane.002
v -7.473372 0.948701 6.524280
v 7.812079 0.948701 6.524280
v -7.473372 0.948701 -4.986837
v 7.812079 0.948701 -4.986837
v -7.073372 0.948701 6.124280
v 7.412080 0.948701 6.124280
v -7.073372 0.948701 -4.586838
v 7.412080 0.948701 -4.586838
v -7.073372 1.159938 -4.586838
v -7.073372 1.159938 6.124280
v 7.412080 1.159938 6.124280
v 7.412080 1.159938 -4.586838
vt 0.002072 0.495278
vt 0.019211 0.478139
vt 0.639852 0.478138
vt 0.656991 0.495277
vt 0.019210 0.019213
vt 0.002071 0.002074
vt 0.656990 0.002071
vt 0.639851 0.019211
vt 0.465134 0.988878
vt 0.924055 0.988878
vt 0.924055 0.997929
vt 0.465134 0.997929
vt 0.002071 0.958348
vt 0.002071 0.499420
vt 0.622714 0.499420
vt 0.622713 0.958348
vt 0.460992 0.997929
vt 0.002071 0.997929
vt 0.002071 0.988878
vt 0.460992 0.988878
vt 0.622739 0.984734
vt 0.002071 0.984735
vt 0.002071 0.975684
vt 0.622739 0.975684
vt 0.002071 0.962492
vt 0.622739 0.962490
vt 0.622739 0.971541
vt 0.002071 0.971541
vn 0.0000 -1.0000 -0.0000
vn 1.0000 0.0000 0.0000
vn -1.0000 0.0000 0.0000
vn 0.0000 0.0000 -1.0000
vn 0.0000 0.0000 1.0000
usemtl Material
s off
f 1/1/1 5/2/1 6/3/1 2/4/1
f 7/5/1 3/6/1 4/7/1 8/8/1
f 5/9/2 7/10/2 9/11/2 10/12/2
f 1/1/1 3/6/1 7/5/1 5/2/1
f 6/3/1 8/8/1 4/7/1 2/4/1
f 10/13/1 9/14/1 12/15/1 11/16/1
f 8/17/3 6/18/3 11/19/3 12/20/3
f 6/21/4 5/22/4 10/23/4 11/24/4
f 7/25/5 8/26/5 12/27/5 9/28/5
