# Blender v2.79 (sub 0) OBJ File: 'ceiling_corner.blend'
# www.blender.org
mtllib ceiling_corner.mtl
o object_static_hallwayCeilingCorner_Plane.002
v -10.010448 0.948701 5.066828
v -4.602115 0.948701 5.066828
v -10.010448 0.948701 -6.444289
v -9.610448 0.948701 4.666829
v -4.202093 0.948701 4.666829
v -9.610448 0.948701 -6.044289
v -9.610448 1.159938 -6.044289
v -9.610448 1.159938 4.666829
v -4.202093 1.159938 4.666829
v -4.602094 0.948701 9.741142
v 6.909024 0.948701 -6.444289
v 6.909023 0.948701 9.741140
v -4.202095 0.948701 9.341141
v 6.509025 0.948701 -6.044289
v 6.509024 0.948701 9.341141
v 6.509025 1.159938 -6.044289
v -4.202095 1.159938 9.341141
v 6.509024 1.159938 9.341141
vt 0.208995 0.008396
vt 0.222404 0.021805
vt 0.222404 0.203099
vt 0.208995 0.189690
vt 0.581453 0.021805
vt 0.594861 0.008397
vt 0.594860 0.575556
vt 0.581452 0.562149
vt 0.052307 0.613300
vt 0.411350 0.613300
vt 0.411350 0.620381
vt 0.052307 0.620381
vt 0.602769 0.447271
vt 0.961818 0.447270
vt 0.961818 0.987613
vt 0.602770 0.628565
vt 0.596783 0.609175
vt 0.415488 0.609175
vt 0.415488 0.602094
vt 0.596783 0.602094
vt 0.052307 0.579681
vt 0.592620 0.579681
vt 0.592620 0.586762
vt 0.052307 0.586763
vt 0.065715 0.203099
vt 0.052307 0.189691
vt 0.052307 0.575556
vt 0.065715 0.562148
vt 0.446081 0.987613
vt 0.446081 0.628565
vt 0.411364 0.609175
vt 0.052307 0.609175
vt 0.052307 0.602094
vt 0.411364 0.602095
vt 0.415475 0.613300
vt 0.572164 0.613300
vt 0.572164 0.620381
vt 0.415475 0.620380
vt 0.568087 0.597969
vt 0.052307 0.597969
vt 0.052307 0.590888
vt 0.568086 0.590890
vn 0.0000 -1.0000 -0.0000
vn 1.0000 0.0000 0.0000
vn 0.0000 0.0000 -1.0000
vn 0.0000 0.0000 1.0000
vn -1.0000 0.0000 -0.0000
usemtl Material
s off
f 1/1/1 4/2/1 5/3/1 2/4/1
f 6/5/1 3/6/1 11/7/1 14/8/1
f 4/9/2 6/10/2 7/11/2 8/12/2
f 1/1/1 3/6/1 6/5/1 4/2/1
f 8/13/1 7/14/1 16/15/1 9/16/1
f 5/17/3 4/18/3 8/19/3 9/20/3
f 6/21/4 14/22/4 16/23/4 7/24/4
f 2/4/1 5/3/1 13/25/1 10/26/1
f 14/8/1 11/7/1 12/27/1 15/28/1
f 13/25/1 15/28/1 12/27/1 10/26/1
f 9/16/1 16/15/1 18/29/1 17/30/1
f 15/31/3 13/32/3 17/33/3 18/34/3
f 13/35/2 5/36/2 9/37/2 17/38/2
f 14/39/5 15/40/5 18/41/5 16/42/5
