# Blender v2.79 (sub 0) OBJ File: 'doorframe_collider.blend'
# www.blender.org
mtllib doorframe_collider.mtl
o object_static_doorFrame_collider_Cube.001
v -2.495683 -5.424610 0.913878
v -3.513113 -5.599128 1.138669
v -2.600733 -5.599128 1.138669
v -2.600733 -5.599128 0.913878
v -2.495683 -5.080110 0.913878
v -3.513113 -5.080110 1.138669
v -2.600733 -5.080110 1.138669
v -2.600733 -5.080110 0.913878
v -2.495683 -4.779293 0.913878
v -3.422222 -4.779293 1.032048
v -2.600733 -4.779293 1.032048
v -2.600733 -4.779293 0.913878
v -3.362029 -4.704770 0.913878
v -2.600733 -4.704770 0.913878
v -2.495683 5.696205 0.913878
v -3.362029 6.078139 0.913878
v -2.600733 6.078139 0.913878
v -3.410259 6.078139 0.963032
v -2.600733 6.078139 0.963032
v -2.600733 7.119735 0.913878
v -2.600733 6.999597 1.016255
v -3.463665 6.999597 1.016255
v -3.517962 7.119735 1.074962
v -2.600733 7.119735 1.074962
v -2.600733 7.960933 1.074962
v -3.517962 7.960933 1.074962
v -3.513113 -5.599128 -1.061331
v -3.513113 -5.080110 -1.061331
v -2.495683 -5.080110 -0.836540
v -2.600733 -5.599128 -0.836540
v -2.600733 -5.599128 -1.061331
v -2.495683 -5.424610 -0.836540
v -2.495683 -4.779293 -0.836540
v -2.600733 -5.080110 -0.836540
v -2.600733 -5.080110 -1.061331
v 2.788903 -5.424610 0.913878
v 3.806334 -5.599128 1.138669
v 2.893954 -5.599128 1.138669
v 2.893954 -5.599128 0.913878
v 2.788903 -5.080110 0.913878
v 3.806334 -5.080110 1.138669
v 2.893954 -5.080110 1.138669
v 2.893954 -5.080110 0.913878
v 2.788903 -4.779293 0.913878
v 3.715443 -4.779293 1.032048
v 2.893954 -4.779293 1.032048
v 2.893954 -4.779293 0.913878
v 3.655250 -4.704770 0.913878
v 2.893954 -4.704770 0.913878
v 2.788903 5.696205 0.913878
v 3.655250 6.078139 0.913878
v 2.893954 6.078139 0.913878
v 3.703480 6.078139 0.963032
v 2.893954 6.078139 0.963032
v 2.893954 7.119735 0.913878
v 2.893954 6.999597 1.016255
v 3.756886 6.999597 1.016255
v 3.811182 7.119735 1.074962
v 2.893954 7.119735 1.074962
v 2.893954 7.960933 1.074962
v 3.811182 7.960933 1.074962
v -2.600733 6.078139 -0.885694
v -3.410259 6.078139 -0.885694
v -2.600733 6.078139 -0.836540
v -3.362029 6.078139 -0.836540
v -2.495683 5.696205 -0.836540
v -2.600733 -4.704770 -0.836540
v -3.362029 -4.704770 -0.836540
v -2.600733 -4.779293 -0.836540
v -2.600733 -4.779293 -0.954710
v -3.422222 -4.779293 -0.954710
v -2.600733 7.119735 -0.836540
v -2.600733 6.999597 -0.938917
v -3.463665 6.999597 -0.938917
v -3.517962 7.119735 -0.997624
v -2.600733 7.119735 -0.997624
v -2.600733 7.960933 -0.997624
v -3.517962 7.960933 -0.997624
v 2.788903 -5.424610 -0.836540
v 3.806334 -5.599128 -1.061331
v 2.893954 -5.599128 -1.061331
v 2.893954 -5.599128 -0.836540
v 2.788903 -5.080110 -0.836540
v 3.806334 -5.080110 -1.061331
v 2.893954 -5.080110 -1.061331
v 2.893954 -5.080110 -0.836540
v 2.788903 -4.779293 -0.836540
v 3.715443 -4.779293 -0.954710
v 2.893954 -4.779293 -0.954710
v 2.893954 -4.779293 -0.836540
v 3.655250 -4.704770 -0.836540
v 2.893954 -4.704770 -0.836540
v 2.788903 5.696205 -0.836540
v 3.655250 6.078139 -0.836540
v 2.893954 6.078139 -0.836540
v 3.703480 6.078139 -0.885694
v 2.893954 6.078139 -0.885694
v 2.893954 7.119735 -0.836540
v 2.893954 6.999597 -0.938917
v 3.756886 6.999597 -0.938917
v 3.811182 7.119735 -0.997624
v 2.893954 7.119735 -0.997624
v 2.893954 7.960933 -0.997624
v 3.811182 7.960933 -0.997624
vt 0.900810 0.993415
vt 0.896198 0.985754
vt 0.896198 0.970631
vt 0.900810 0.970631
vt 0.586327 0.632502
vt 0.586327 0.592450
vt 0.609114 0.592450
vt 0.609114 0.632502
vt 0.975631 0.506894
vt 0.963253 0.506894
vt 0.963253 0.484110
vt 0.975631 0.484110
vt 0.970949 0.481980
vt 0.963253 0.481980
vt 0.963253 0.470905
vt 0.970949 0.470905
vt 0.622286 0.628512
vt 0.622286 0.592450
vt 0.633363 0.592450
vt 0.633363 0.628512
vt 0.900810 0.968501
vt 0.896198 0.968501
vt 0.896198 0.957426
vt 0.900810 0.957426
vt 0.965761 0.467634
vt 0.354293 0.834570
vt 0.354293 0.870632
vt 0.349104 0.870632
vt 0.349104 0.837212
vt 0.635940 0.525660
vt 0.602515 0.525660
vt 0.602515 0.064611
vt 0.635940 0.052309
vt 0.602515 0.052309
vt 0.632929 0.803563
vt 0.635087 0.803563
vt 0.635087 0.839100
vt 0.632929 0.836983
vt 0.573156 0.579280
vt 0.537614 0.579280
vt 0.537614 0.538830
vt 0.573156 0.538830
vt 0.458746 0.793207
vt 0.460904 0.793207
vt 0.460904 0.838931
vt 0.458746 0.833657
vt 0.649111 0.833964
vt 0.654386 0.833964
vt 0.654386 0.871846
vt 0.649111 0.871846
vt 0.456409 0.838931
vt 0.296858 0.860567
vt 0.296858 0.820302
vt 0.301597 0.820302
vt 0.301597 0.860567
vt 0.369938 0.780037
vt 0.369938 0.659434
vt 0.377600 0.659434
vt 0.377600 0.775426
vt 0.296858 0.699698
vt 0.301597 0.699698
vt 0.242956 0.699698
vt 0.242956 0.820302
vt 0.238461 0.820302
vt 0.238461 0.699698
vt 0.481894 0.052309
vt 0.481894 0.006585
vt 0.602515 0.006585
vt 0.481894 0.064611
vt 0.734118 0.038185
vt 0.900810 0.993415
vt 0.896198 0.985754
vt 0.896198 0.970631
vt 0.900810 0.970631
vt 0.586327 0.632502
vt 0.586327 0.592450
vt 0.609114 0.592450
vt 0.609114 0.632502
vt 0.975631 0.506894
vt 0.963253 0.506894
vt 0.963253 0.484110
vt 0.975631 0.484110
vt 0.970949 0.481980
vt 0.963253 0.481980
vt 0.963253 0.470905
vt 0.970949 0.470905
vt 0.622286 0.628512
vt 0.622286 0.592450
vt 0.633363 0.592450
vt 0.633363 0.628512
vt 0.900810 0.968501
vt 0.896198 0.968501
vt 0.896198 0.957426
vt 0.900810 0.957426
vt 0.965761 0.467634
vt 0.354293 0.834570
vt 0.354293 0.870632
vt 0.349104 0.870632
vt 0.349104 0.837212
vt 0.635940 0.525660
vt 0.602515 0.525660
vt 0.602515 0.064611
vt 0.635940 0.052309
vt 0.602515 0.052309
vt 0.632929 0.803563
vt 0.635087 0.803563
vt 0.635087 0.839100
vt 0.632929 0.836983
vt 0.573156 0.579280
vt 0.537614 0.579280
vt 0.537614 0.538830
vt 0.573156 0.538830
vt 0.458746 0.793207
vt 0.460904 0.793207
vt 0.460904 0.838931
vt 0.458746 0.833657
vt 0.649111 0.833964
vt 0.654386 0.833964
vt 0.654386 0.871846
vt 0.649111 0.871846
vt 0.456409 0.838931
vt 0.296858 0.860567
vt 0.296858 0.820302
vt 0.301597 0.820302
vt 0.301597 0.860567
vt 0.622286 0.628512
vt 0.622286 0.592450
vt 0.633363 0.592450
vt 0.633363 0.628512
vt 0.527535 0.813089
vt 0.527535 0.834747
vt 0.516458 0.834747
vt 0.516458 0.813089
vt 0.586327 0.632502
vt 0.586327 0.592450
vt 0.609114 0.592450
vt 0.609114 0.632502
vt 0.900810 0.993415
vt 0.896198 0.985754
vt 0.896198 0.970631
vt 0.900810 0.970631
vt 0.975631 0.506894
vt 0.963253 0.506894
vt 0.963253 0.484110
vt 0.975631 0.484110
vt 0.065332 0.783984
vt 0.065332 0.810323
vt 0.042544 0.810323
vt 0.042544 0.783984
vt 0.970949 0.481980
vt 0.963253 0.481980
vt 0.963253 0.470905
vt 0.970949 0.470905
vt 0.734118 0.038185
vt 0.900810 0.968501
vt 0.896198 0.968501
vt 0.896198 0.957426
vt 0.900810 0.957426
vt 0.965761 0.467634
vt 0.513186 0.829560
vt 0.513186 0.813089
vt 0.354293 0.834570
vt 0.354293 0.870632
vt 0.349104 0.870632
vt 0.349104 0.837212
vt 0.878414 0.006585
vt 0.894888 0.006585
vt 0.894888 0.479936
vt 0.878414 0.479936
vt 0.635940 0.525660
vt 0.602515 0.525660
vt 0.602515 0.064611
vt 0.635940 0.052309
vt 0.602515 0.052309
vt 0.327703 0.892365
vt 0.327703 0.875894
vt 0.329820 0.873736
vt 0.329820 0.892365
vt 0.632929 0.803563
vt 0.635087 0.803563
vt 0.635087 0.839100
vt 0.632929 0.836983
vt 0.569000 0.790394
vt 0.550368 0.790394
vt 0.550368 0.749943
vt 0.569000 0.749943
vt 0.573156 0.579280
vt 0.537614 0.579280
vt 0.537614 0.538830
vt 0.573156 0.538830
vt 0.458746 0.793207
vt 0.460904 0.793207
vt 0.460904 0.838931
vt 0.458746 0.833657
vt 0.649111 0.833964
vt 0.654386 0.833964
vt 0.654386 0.871846
vt 0.649111 0.871846
vt 0.456409 0.838931
vt 0.169373 0.894701
vt 0.164098 0.894701
vt 0.164098 0.873736
vt 0.169373 0.873736
vt 0.296858 0.860567
vt 0.296858 0.820302
vt 0.301597 0.820302
vt 0.301597 0.860567
vt 0.610147 0.838391
vt 0.610147 0.861934
vt 0.605409 0.861934
vt 0.605409 0.838391
vt 0.188573 0.860567
vt 0.165027 0.860567
vt 0.165027 0.820302
vt 0.188573 0.820302
vt 0.042503 0.770814
vt 0.006586 0.770814
vt 0.006586 0.654822
vt 0.042503 0.654822
vt 0.369938 0.780037
vt 0.369938 0.659434
vt 0.377600 0.659434
vt 0.377600 0.775426
vt 0.188573 0.699698
vt 0.165027 0.699698
vt 0.296858 0.699698
vt 0.301597 0.699698
vt 0.242956 0.699698
vt 0.242956 0.820302
vt 0.238461 0.820302
vt 0.238461 0.699698
vt 0.481894 0.052309
vt 0.481894 0.006585
vt 0.602515 0.006585
vt 0.481894 0.064611
vt 0.685029 0.623931
vt 0.720946 0.623931
vt 0.720946 0.739923
vt 0.685029 0.739923
vt 0.734118 0.034913
vt 0.770035 0.034913
vt 0.770035 0.038185
vt 0.734118 0.038185
vt 0.734118 0.023838
vt 0.770035 0.023838
vt 0.734118 0.006585
vt 0.770035 0.006585
vt 0.770035 0.021708
vt 0.734118 0.021708
vt 0.900810 0.993415
vt 0.896198 0.985754
vt 0.896198 0.970631
vt 0.900810 0.970631
vt 0.586327 0.632502
vt 0.586327 0.592450
vt 0.609114 0.592450
vt 0.609114 0.632502
vt 0.065332 0.783984
vt 0.065332 0.810323
vt 0.042544 0.810323
vt 0.042544 0.783984
vt 0.975631 0.506894
vt 0.963253 0.506894
vt 0.963253 0.484110
vt 0.975631 0.484110
vt 0.970949 0.481980
vt 0.963253 0.481980
vt 0.963253 0.470905
vt 0.970949 0.470905
vt 0.527535 0.813089
vt 0.527535 0.834747
vt 0.516458 0.834747
vt 0.516458 0.813089
vt 0.622286 0.628512
vt 0.622286 0.592450
vt 0.633363 0.592450
vt 0.633363 0.628512
vt 0.900810 0.968501
vt 0.896198 0.968501
vt 0.896198 0.957426
vt 0.900810 0.957426
vt 0.965761 0.467634
vt 0.513186 0.829560
vt 0.513186 0.813089
vt 0.354293 0.834570
vt 0.354293 0.870632
vt 0.349104 0.870632
vt 0.349104 0.837212
vt 0.878414 0.006585
vt 0.894888 0.006585
vt 0.894888 0.479936
vt 0.878414 0.479936
vt 0.635940 0.525660
vt 0.602515 0.525660
vt 0.602515 0.064611
vt 0.635940 0.052309
vt 0.602515 0.052309
vt 0.327703 0.892365
vt 0.327703 0.875894
vt 0.329820 0.873736
vt 0.329820 0.892365
vt 0.632929 0.803563
vt 0.635087 0.803563
vt 0.635087 0.839100
vt 0.632929 0.836983
vt 0.569000 0.790394
vt 0.550368 0.790394
vt 0.550368 0.749943
vt 0.569000 0.749943
vt 0.573156 0.579280
vt 0.537614 0.579280
vt 0.537614 0.538830
vt 0.573156 0.538830
vt 0.458746 0.793207
vt 0.460904 0.793207
vt 0.460904 0.838931
vt 0.458746 0.833657
vt 0.649111 0.833964
vt 0.654386 0.833964
vt 0.654386 0.871846
vt 0.649111 0.871846
vt 0.456409 0.838931
vt 0.169373 0.894701
vt 0.164098 0.894701
vt 0.164098 0.873736
vt 0.169373 0.873736
vt 0.296858 0.860567
vt 0.296858 0.820302
vt 0.301597 0.820302
vt 0.301597 0.860567
vt 0.610147 0.838391
vt 0.610147 0.861934
vt 0.605409 0.861934
vt 0.605409 0.838391
vt 0.188573 0.860567
vt 0.165027 0.860567
vt 0.165027 0.820302
vt 0.188573 0.820302
vt 0.734118 0.034913
vt 0.770035 0.034913
vt 0.770035 0.038185
vt 0.734118 0.038185
vt 0.734118 0.023838
vt 0.770035 0.023838
vt 0.734118 0.006585
vt 0.770035 0.006585
vt 0.770035 0.021708
vt 0.734118 0.021708
vn 0.0000 0.0000 1.0000
vn 1.0000 0.0000 0.0000
vn 0.0000 0.3341 0.9425
vn 0.0000 0.8458 0.5334
vn 0.0000 -1.0000 -0.0000
vn 0.0000 -0.0577 0.9983
vn 0.0000 -0.4390 0.8985
vn 0.0000 0.0000 -1.0000
vn 0.0000 -0.3341 -0.9425
vn 0.0000 -0.8458 -0.5334
vn 0.0000 1.0000 0.0000
vn 0.0000 0.0577 -0.9983
vn 0.0000 0.4390 -0.8985
vn 0.0000 -0.3341 0.9425
vn 0.9573 -0.2892 0.0000
vn -1.0000 0.0000 0.0000
vn 0.7779 -0.6283 0.0000
vn 0.0000 -0.8458 0.5334
vn 0.9983 0.0579 0.0000
vn 0.0000 0.0577 0.9983
vn 0.0000 0.4390 0.8985
vn 0.9113 0.4118 0.0000
vn 0.9573 0.2892 0.0000
vn 0.0000 0.3341 -0.9425
vn 0.7779 0.6283 0.0000
vn 0.0000 0.8458 -0.5334
vn 0.9983 -0.0579 0.0000
vn 0.0000 -0.0577 -0.9983
vn 0.0000 -0.4390 -0.8985
vn 0.9113 -0.4118 0.0000
usemtl None
s off
f 4/1/1 1/2/1 5/3/1 8/4/1
f 2/5/1 3/6/1 7/7/1 6/8/1
f 3/9/2 4/10/2 8/11/2 7/12/2
f 7/13/2 8/14/2 12/15/2 11/16/2
f 6/17/3 7/18/3 11/19/3 10/20/3
f 8/21/1 5/22/1 9/23/1 12/24/1
f 11/16/2 12/15/2 14/25/2
f 10/26/4 11/27/4 14/28/4 13/29/4
f 9/23/1 14/25/1 12/15/1
f 13/30/1 14/31/1 15/32/1 16/33/1
f 16/33/1 15/32/1 17/34/1
f 17/35/5 19/36/5 18/37/5 16/38/5
f 18/39/6 19/40/6 21/41/6 22/42/6
f 19/43/2 17/44/2 20/45/2 21/46/2
f 21/47/7 24/48/7 23/49/7 22/50/7
f 21/46/2 20/45/2 24/51/2
f 23/52/1 24/53/1 25/54/1 26/55/1
f 4/56/1 39/57/1 36/58/1 1/59/1
f 59/60/1 60/61/1 25/54/1 24/53/1
f 59/62/5 24/63/5 20/64/5 55/65/5
f 52/66/1 55/67/1 20/68/1 17/34/1
f 50/69/1 52/66/1 17/34/1 15/32/1
f 14/25/1 9/23/1 15/70/1
f 39/71/8 36/72/8 40/73/8 43/74/8
f 37/75/8 38/76/8 42/77/8 41/78/8
f 38/79/2 39/80/2 43/81/2 42/82/2
f 42/83/2 43/84/2 47/85/2 46/86/2
f 41/87/9 42/88/9 46/89/9 45/90/9
f 43/91/8 40/92/8 44/93/8 47/94/8
f 46/86/2 47/85/2 49/95/2
f 45/96/10 46/97/10 49/98/10 48/99/10
f 44/93/8 49/95/8 47/85/8
f 48/100/8 49/101/8 50/102/8 51/103/8
f 51/103/8 50/102/8 52/104/8
f 52/105/11 54/106/11 53/107/11 51/108/11
f 53/109/12 54/110/12 56/111/12 57/112/12
f 54/113/2 52/114/2 55/115/2 56/116/2
f 56/117/13 59/118/13 58/119/13 57/120/13
f 56/116/2 55/115/2 59/121/2
f 58/122/8 59/123/8 60/124/8 61/125/8
f 28/126/14 35/127/14 70/128/14 71/129/14
f 6/130/15 28/131/15 71/132/15 10/133/15
f 27/134/1 31/135/1 35/136/1 28/137/1
f 30/138/1 32/139/1 29/140/1 34/141/1
f 31/142/16 30/143/16 34/144/16 35/145/16
f 2/146/2 27/147/2 28/148/2 6/149/2
f 35/150/16 34/151/16 69/152/16 70/153/16
f 49/95/8 44/93/8 50/154/8
f 34/155/1 29/156/1 33/157/1 69/158/1
f 70/153/16 69/152/16 67/159/16
f 10/133/17 71/132/17 68/160/17 13/161/17
f 71/162/18 70/163/18 67/164/18 68/165/18
f 33/157/1 67/159/1 69/152/1
f 13/166/2 68/167/2 65/168/2 16/169/2
f 68/170/1 67/171/1 66/172/1 65/173/1
f 65/173/1 66/172/1 64/174/1
f 16/175/11 65/176/11 63/177/11 18/178/11
f 64/179/11 62/180/11 63/181/11 65/182/11
f 18/183/19 63/184/19 74/185/19 22/186/19
f 63/187/20 62/188/20 73/189/20 74/190/20
f 62/191/16 64/192/16 72/193/16 73/194/16
f 73/195/21 76/196/21 75/197/21 74/198/21
f 73/194/16 72/193/16 76/199/16
f 74/200/22 75/201/22 23/202/22 22/203/22
f 75/204/1 76/205/1 77/206/1 78/207/1
f 23/208/2 75/209/2 78/210/2 26/211/2
f 26/212/5 78/213/5 77/214/5 25/215/5
f 1/216/5 32/217/5 79/218/5 36/219/5
f 30/220/1 82/221/1 79/222/1 32/223/1
f 60/224/5 25/215/5 77/214/5 103/225/5
f 102/226/1 103/227/1 77/206/1 76/205/1
f 102/228/11 76/229/11 72/230/11 98/231/11
f 95/232/1 98/233/1 72/234/1 64/174/1
f 93/235/1 95/232/1 64/174/1 66/172/1
f 50/236/11 93/237/11 66/238/11 15/239/11
f 33/240/16 9/241/16 15/242/16 66/243/16
f 29/244/16 5/245/16 9/241/16 33/240/16
f 32/246/16 1/247/16 5/248/16 29/249/16
f 67/159/1 33/157/1 66/243/1
f 82/250/8 79/251/8 83/252/8 86/253/8
f 80/254/8 81/255/8 85/256/8 84/257/8
f 37/258/2 80/259/2 84/260/2 41/261/2
f 81/262/16 82/263/16 86/264/16 85/265/16
f 85/266/16 86/267/16 90/268/16 89/269/16
f 41/270/23 84/271/23 88/272/23 45/273/23
f 84/274/24 85/275/24 89/276/24 88/277/24
f 86/278/8 83/279/8 87/280/8 90/281/8
f 89/269/16 90/268/16 92/282/16
f 45/273/25 88/272/25 91/283/25 48/284/25
f 88/285/26 89/286/26 92/287/26 91/288/26
f 87/280/8 92/282/8 90/268/8
f 48/289/2 91/290/2 94/291/2 51/292/2
f 91/293/8 92/294/8 93/295/8 94/296/8
f 94/296/8 93/295/8 95/297/8
f 51/298/5 94/299/5 96/300/5 53/301/5
f 95/302/5 97/303/5 96/304/5 94/305/5
f 53/306/27 96/307/27 100/308/27 57/309/27
f 96/310/28 97/311/28 99/312/28 100/313/28
f 97/314/16 95/315/16 98/316/16 99/317/16
f 99/318/29 102/319/29 101/320/29 100/321/29
f 99/317/16 98/316/16 102/322/16
f 100/323/30 101/324/30 58/325/30 57/326/30
f 101/327/8 102/328/8 103/329/8 104/330/8
f 58/331/2 101/332/2 104/333/2 61/334/2
f 61/335/11 104/336/11 103/337/11 60/338/11
f 87/339/16 44/340/16 50/341/16 93/342/16
f 83/343/16 40/344/16 44/340/16 87/339/16
f 79/345/16 36/346/16 40/347/16 83/348/16
f 92/282/8 87/280/8 93/342/8
