# Blender v2.79 (sub 0) OBJ File: 'table3_collider.blend'
# www.blender.org
mtllib object_drawerDrawerCenter_collider.mtl
o object_drawerDrawerCenter_collider_Cube.009
v 0.998307 1.134017 -1.786767
v 0.998304 1.134017 1.719539
v 0.998304 1.382328 0.082643
v 0.998307 1.715436 -1.786767
v 0.998304 1.715436 1.719539
v 0.947401 1.715436 1.719539
v 0.947403 1.715436 -1.786767
v 1.114788 1.382328 0.082643
v 1.114787 1.382328 -0.048931
v 0.998304 1.382328 -0.048931
v 1.114788 1.507463 0.082643
v 0.998304 1.507463 -0.048931
v 0.998304 1.507463 0.082643
v 0.947403 1.442156 -1.700791
v 0.947401 1.442156 1.641602
v -1.989320 1.442156 1.641600
v -1.989319 1.442156 -1.700792
v 0.947403 1.215184 -1.700791
v 0.947401 1.215184 1.641602
v -1.989320 1.215184 1.641600
v -1.989319 1.215184 -1.700792
v -2.045959 1.134017 -1.786770
v -2.045959 1.442156 -1.786770
v -2.045963 1.134017 1.719538
v -2.045963 1.442156 1.719538
v 0.947401 1.442156 1.719539
v 1.114787 1.507463 -0.048931
v 0.947403 1.442156 -1.786767
vt 0.000000 0.000000
vt 0.000000 0.000000
vt 0.000000 0.000000
vt 0.000000 0.000000
vt 0.011434 0.980515
vt 0.493673 0.980514
vt 0.493673 0.987716
vt 0.011434 0.987718
vt 0.420092 0.483919
vt 0.420092 0.010984
vt 0.428107 0.004506
vt 0.428107 0.490397
vt 0.000000 0.000000
vt 0.000000 0.000000
vt 0.499384 0.931959
vt 0.972294 0.931959
vt 0.972294 0.964073
vt 0.499384 0.964073
vt 0.007975 0.499412
vt 0.487996 0.499411
vt 0.486911 0.914921
vt 0.007975 0.914921
vt 0.437118 0.477418
vt 0.437118 0.004506
vt 0.852632 0.004506
vt 0.852632 0.477418
vt 0.499386 0.779077
vt 0.914899 0.779077
vt 0.914899 0.811191
vt 0.499386 0.811191
vt 0.914900 0.852317
vt 0.499386 0.852317
vt 0.499386 0.820203
vt 0.914900 0.820202
vt 0.984467 0.543010
vt 0.511551 0.543012
vt 0.511551 0.510898
vt 0.984467 0.510895
vt 0.506314 0.590690
vt 0.988562 0.590690
vt 0.988562 0.631822
vt 0.506314 0.631822
vt 0.868846 0.086770
vt 0.861643 0.086770
vt 0.861643 0.045638
vt 0.868846 0.045638
vt 0.868846 0.178046
vt 0.861643 0.178046
vt 0.861643 0.136913
vt 0.868846 0.136913
vt 0.490373 0.971503
vt 0.004506 0.971503
vt 0.004506 0.931959
vt 0.490373 0.931959
vt 0.499386 0.730522
vt 0.922915 0.730522
vt 0.922915 0.770065
vt 0.499386 0.770065
vt 0.000000 0.000000
vt 0.000000 0.000000
vt 0.004506 0.490400
vt 0.004506 0.483921
vt 0.922913 0.681966
vt 0.922913 0.721510
vt 0.499386 0.721510
vt 0.499386 0.681966
vt 0.004703 0.010982
vt 0.004703 0.004506
vn 0.0000 0.0000 -1.0000
vn 0.0000 1.0000 0.0000
vn 0.0000 -1.0000 -0.0000
vn 1.0000 0.0000 0.0000
vn -0.0000 0.0000 1.0000
vn -1.0000 0.0000 -0.0000
usemtl None
s off
f 10/1/1 12/2/1 27/3/1 9/4/1
f 7/5/2 6/6/2 5/7/2 4/8/2
f 16/9/2 17/10/2 23/11/2 25/12/2
f 10/1/3 9/4/3 8/13/3 3/14/3
f 17/15/4 16/16/4 20/17/4 21/18/4
f 1/19/3 2/20/3 24/21/3 22/22/3
f 19/23/2 18/24/2 21/25/2 20/26/2
f 14/27/5 17/28/5 21/29/5 18/30/5
f 16/31/1 15/32/1 19/33/1 20/34/1
f 15/35/6 14/36/6 18/37/6 19/38/6
f 4/39/4 5/40/4 2/41/4 1/42/4
f 7/43/1 4/44/1 1/45/1 28/46/1
f 5/47/5 6/48/5 26/49/5 2/50/5
f 25/51/6 23/52/6 22/53/6 24/54/6
f 26/55/5 25/56/5 24/57/5 2/58/5
f 27/3/2 12/2/2 13/59/2 11/60/2
f 8/13/5 11/60/5 13/59/5 3/14/5
f 26/61/2 15/62/2 16/9/2 25/12/2
f 22/63/1 23/64/1 28/65/1 1/66/1
f 14/67/2 28/68/2 23/11/2 17/10/2
f 9/4/4 27/3/4 11/60/4 8/13/4
f 6/6/6 15/62/6 26/61/6
f 7/5/6 14/36/6 15/35/6 6/6/6
f 7/43/6 28/68/6 14/36/6
