# Blender v2.79 (sub 0) OBJ File: 'table3.blend'
# www.blender.org
mtllib object_drawerDrawerCenter.mtl
o object_drawerDrawerCenter_Cube.009
v 1.035534 1.444896 0.071624
v 0.998305 1.459263 0.036630
v 1.035534 1.412704 0.061164
v 0.998305 1.468142 0.024409
v 1.035534 1.392809 0.033780
v 0.998305 1.468142 0.009303
v 1.035534 1.392809 -0.000068
v 0.998305 1.459263 -0.002918
v 1.035534 1.412704 -0.027452
v 0.998305 1.444896 -0.007587
v 1.035534 1.444896 -0.037912
v 0.998305 1.430529 -0.002918
v 1.035534 1.477088 -0.027452
v 0.998305 1.421650 0.009303
v 1.035534 1.496983 -0.000068
v 0.998305 1.421650 0.024409
v 1.035534 1.496983 0.033780
v 0.998305 1.430529 0.036630
v 1.035534 1.477088 0.061164
v 0.998305 1.444896 0.041298
v 1.021500 1.444896 0.041298
v 1.021500 1.430529 0.036630
v 1.021500 1.421650 0.024409
v 1.021500 1.421650 0.009303
v 1.021500 1.430529 -0.002918
v 1.021500 1.444896 -0.007586
v 1.021500 1.459263 -0.002918
v 1.021500 1.468142 0.009303
v 1.021500 1.468142 0.024409
v 1.021500 1.459263 0.036630
v 1.068029 1.444896 0.082643
v 1.068030 1.406227 0.070079
v 1.068030 1.382328 0.037185
v 1.068030 1.382328 -0.003474
v 1.068030 1.406227 -0.036367
v 1.068030 1.444896 -0.048932
v 1.068030 1.483565 -0.036367
v 1.068030 1.507463 -0.003474
v 1.068030 1.507463 0.037185
v 1.068030 1.483565 0.070079
v 1.114787 1.406227 -0.036367
v 1.114787 1.444896 -0.048931
v 1.114788 1.483565 -0.036367
v 1.114788 1.507463 -0.003473
v 1.114787 1.483565 0.070079
v 1.114787 1.507463 0.037185
v 1.114787 1.382328 -0.003473
v 1.114787 1.382328 0.037185
v 1.114787 1.406227 0.070079
v 1.114787 1.444896 0.082643
v 0.998307 1.134017 -1.786767
v 0.998304 1.134017 1.719539
v 0.947401 1.134017 1.719539
v 0.947403 1.134017 -1.786767
v 0.998307 1.715436 -1.786767
v 0.998304 1.715436 1.719539
v 0.947401 1.715436 1.719539
v 0.947403 1.715436 -1.786767
v 0.998307 1.715436 -1.737806
v 0.998304 1.715436 1.670577
v 0.998304 1.134017 1.670577
v 0.998307 1.134017 -1.737806
v 0.947401 1.715436 1.670577
v 0.947403 1.715436 -1.737806
v 0.947403 1.134017 -1.737806
v 0.947401 1.134017 1.670577
v 0.947403 1.162672 -1.722094
v 0.947401 1.162672 1.670577
v 0.947403 1.442156 -1.700791
v 0.947401 1.442156 1.641602
v -1.989320 1.442156 1.641600
v -1.989319 1.442156 -1.700792
v -1.989319 1.162672 -1.722097
v -1.989320 1.162672 1.662904
v 0.947403 1.215184 -1.700791
v 0.947401 1.215184 1.641602
v -1.989320 1.215184 1.641600
v -1.989319 1.215184 -1.700792
v 0.947404 1.162672 -1.746575
v 0.947404 1.442156 -1.746575
v -2.045959 1.162672 -1.746577
v -2.045959 1.442156 -1.746577
v 0.947401 1.162672 1.687386
v 0.947401 1.442156 1.687386
v -2.045963 1.162672 1.687384
v -2.045963 1.442156 1.687384
v 1.114787 1.406227 -0.036367
v 1.114787 1.444896 -0.048931
v 1.114788 1.483565 -0.036367
v 1.114788 1.507463 -0.003473
v 1.114787 1.382328 0.037185
v 1.114787 1.382328 -0.003473
v 1.114787 1.444896 0.082643
v 1.114787 1.406227 0.070079
v 1.114787 1.507463 0.037185
v 1.114787 1.483565 0.070079
v 1.021500 1.444896 0.041298
v 1.021500 1.430529 0.036630
v 1.021500 1.421650 0.024409
v 1.021500 1.421650 0.009303
v 1.021500 1.430529 -0.002918
v 1.021500 1.444896 -0.007586
v 1.021500 1.459263 -0.002918
v 1.021500 1.468142 0.009303
v 1.021500 1.468142 0.024409
v 1.021500 1.459263 0.036630
vt 0.988553 0.861328
vt 0.995481 0.861328
vt 0.995481 0.868530
vt 0.988553 0.868530
vt 0.988567 0.503465
vt 0.508537 0.503468
vt 0.506314 0.499413
vt 0.988567 0.499413
vt 0.506314 0.861328
vt 0.506314 0.868531
vt 0.011434 0.980515
vt 0.493673 0.980514
vt 0.493673 0.987716
vt 0.011434 0.987718
vt 0.499386 0.590690
vt 0.506314 0.590690
vt 0.506314 0.672955
vt 0.499386 0.672955
vt 0.995494 0.581675
vt 0.988567 0.581676
vt 0.984467 0.543010
vt 0.990945 0.543009
vt 0.506314 0.581679
vt 0.511551 0.543012
vt 0.420092 0.483919
vt 0.420092 0.010984
vt 0.428107 0.004506
vt 0.428107 0.490397
vt 0.995493 0.499411
vt 0.990945 0.503465
vt 0.499384 0.931959
vt 0.972294 0.931959
vt 0.972294 0.964073
vt 0.499384 0.964073
vt 0.007975 0.499412
vt 0.487996 0.499411
vt 0.486911 0.914921
vt 0.007975 0.914921
vt 0.437118 0.477418
vt 0.437118 0.004506
vt 0.852632 0.004506
vt 0.852632 0.477418
vt 0.499386 0.779077
vt 0.914899 0.779077
vt 0.914899 0.811191
vt 0.499386 0.811191
vt 0.914900 0.852317
vt 0.499386 0.852317
vt 0.499386 0.820203
vt 0.914900 0.820202
vt 0.511551 0.510898
vt 0.984467 0.510895
vt 0.505073 0.503468
vt 0.499386 0.499413
vt 0.988562 0.590690
vt 0.988562 0.672955
vt 0.505073 0.543012
vt 0.499387 0.581679
vt 0.490373 0.971503
vt 0.004506 0.971503
vt 0.004506 0.931959
vt 0.490373 0.931959
vt 0.868846 0.086770
vt 0.861643 0.086770
vt 0.861643 0.004506
vt 0.868846 0.004506
vt 0.490374 0.499411
vt 0.490375 0.922936
vt 0.499386 0.730522
vt 0.922915 0.730522
vt 0.922915 0.770065
vt 0.499386 0.770065
vt 0.004506 0.980515
vt 0.004506 0.987718
vt 0.499386 0.861328
vt 0.499386 0.868531
vt 0.868846 0.178046
vt 0.861643 0.178046
vt 0.861643 0.095781
vt 0.868846 0.095781
vt 0.995490 0.590690
vt 0.995490 0.672955
vt 0.004506 0.490400
vt 0.004506 0.483921
vt 0.500600 0.980514
vt 0.500600 0.987716
vt 0.922913 0.681966
vt 0.922913 0.721510
vt 0.499386 0.721510
vt 0.499386 0.681966
vt 0.004703 0.010982
vt 0.004703 0.004506
vt 0.004506 0.922947
vt 0.004511 0.499412
vt 0.861643 0.199242
vt 0.861643 0.193489
vt 0.865025 0.188835
vt 0.870496 0.187057
vt 0.875967 0.188835
vt 0.879349 0.193489
vt 0.879349 0.199242
vt 0.875967 0.203896
vt 0.870496 0.205673
vt 0.865025 0.203896
vt 0.536715 0.885692
vt 0.533438 0.882187
vt 0.535122 0.879912
vt 0.539485 0.882219
vt 0.535814 0.877542
vt 0.541276 0.877542
vt 0.509570 0.878833
vt 0.514469 0.878637
vt 0.515324 0.880952
vt 0.511325 0.883008
vt 0.516857 0.882977
vt 0.513850 0.886185
vt 0.519100 0.884604
vt 0.516986 0.888531
vt 0.521964 0.885378
vt 0.520760 0.889830
vt 0.525028 0.885506
vt 0.524921 0.890221
vt 0.528072 0.884967
vt 0.529192 0.889592
vt 0.533266 0.888222
vt 0.531029 0.884020
vt 0.539845 0.888988
vt 0.543453 0.884809
vt 0.549046 0.889197
vt 0.544714 0.894252
vt 0.546532 0.879544
vt 0.552743 0.883796
vt 0.504846 0.880787
vt 0.507725 0.885446
vt 0.502797 0.889458
vt 0.499386 0.884711
vt 0.511005 0.889203
vt 0.506734 0.893884
vt 0.514944 0.892132
vt 0.511491 0.897829
vt 0.519716 0.893986
vt 0.517928 0.900536
vt 0.524943 0.894615
vt 0.524867 0.901517
vt 0.530278 0.893968
vt 0.531906 0.900783
vt 0.535371 0.892108
vt 0.538661 0.898359
vt 0.456354 0.489711
vt 0.454217 0.489711
vt 0.454217 0.486429
vt 0.456354 0.486429
vt 0.439255 0.489711
vt 0.437118 0.489711
vt 0.437118 0.486429
vt 0.439255 0.486429
vt 0.441393 0.489711
vt 0.441393 0.486429
vt 0.443530 0.489711
vt 0.443530 0.486429
vt 0.445667 0.489711
vt 0.445667 0.486429
vt 0.447805 0.489711
vt 0.447805 0.486429
vt 0.449942 0.489711
vt 0.449942 0.486429
vt 0.452079 0.489711
vt 0.452079 0.486429
vt 0.458491 0.489711
vt 0.458491 0.486429
vn 0.0000 -1.0000 -0.0000
vn -1.0000 0.0000 -0.0000
vn 0.0000 1.0000 -0.0000
vn 1.0000 0.0000 0.0000
vn -0.0000 0.0000 1.0000
vn 0.0000 0.0000 -1.0000
vn -0.6320 0.0000 0.7750
vn -0.9075 0.0000 0.4200
vn -0.9075 -0.2468 0.3398
vn -0.6320 -0.4555 0.6269
vn -0.9075 -0.3994 0.1298
vn -0.6320 -0.7370 0.2394
vn -0.9075 -0.3994 -0.1298
vn -0.6320 -0.7370 -0.2394
vn -0.9075 -0.2468 -0.3398
vn -0.6320 -0.4555 -0.6269
vn -0.9075 0.0000 -0.4200
vn -0.6320 0.0000 -0.7750
vn -0.9075 0.2468 -0.3398
vn -0.6320 0.4555 -0.6269
vn -0.9075 0.3994 -0.1298
vn -0.6320 0.7370 -0.2394
vn -0.9075 0.3994 0.1298
vn -0.6320 0.7370 0.2394
vn -0.6320 0.4555 0.6269
vn -0.9075 0.2469 0.3398
vn -0.1578 0.0000 0.9875
vn -0.1578 -0.5804 0.7989
vn 0.0000 -0.5878 0.8090
vn -0.1578 -0.9391 0.3051
vn 0.0000 -0.9510 0.3090
vn -0.1578 -0.9391 -0.3051
vn 0.0000 -0.9510 -0.3090
vn -0.1578 -0.5804 -0.7989
vn 0.0000 -0.5878 -0.8090
vn -0.1578 0.0000 -0.9875
vn -0.1578 0.5804 -0.7989
vn 0.0000 0.5878 -0.8090
vn -0.1578 0.9391 -0.3051
vn 0.0000 0.9510 -0.3090
vn -0.1578 0.9391 0.3051
vn 0.0000 0.9510 0.3090
vn -0.1578 0.5804 0.7989
vn 0.0000 0.5878 0.8090
usemtl Material.001
s off
f 61/1/1 52/2/1 53/3/1 66/4/1
f 68/5/2 67/6/2 65/7/2 66/8/2
f 62/9/1 61/1/1 66/4/1 65/10/1
f 64/11/3 63/12/3 60/13/3 59/14/3
f 55/15/4 59/16/4 62/17/4 51/18/4
f 57/19/2 63/20/2 70/21/2 84/22/2
f 63/20/2 64/23/2 69/24/2 70/21/2
f 71/25/3 72/26/3 82/27/3 86/28/3
f 53/29/2 57/19/2 84/22/2 83/30/2
f 72/31/4 71/32/4 77/33/4 78/34/4
f 67/35/1 68/36/1 74/37/1 73/38/1
f 76/39/3 75/40/3 78/41/3 77/42/3
f 69/43/5 72/44/5 78/45/5 75/46/5
f 71/47/6 70/48/6 76/49/6 77/50/6
f 70/21/2 69/24/2 75/51/2 76/52/2
f 67/6/2 79/53/2 54/54/2 65/7/2
f 59/16/4 60/55/4 61/56/4 62/17/4
f 54/54/2 79/53/2 80/57/2 58/58/2
f 64/23/2 58/58/2 80/57/2 69/24/2
f 86/59/2 82/60/2 81/61/2 85/62/2
f 58/63/6 55/64/6 51/65/6 54/66/6
f 68/36/1 83/67/1 85/68/1 74/37/1
f 84/69/5 86/70/5 85/71/5 83/72/5
f 58/73/3 64/11/3 59/14/3 55/74/3
f 51/75/1 62/9/1 65/10/1 54/76/1
f 56/77/5 57/78/5 53/79/5 52/80/5
f 60/55/4 56/81/4 52/82/4 61/56/4
f 84/83/3 70/84/3 71/25/3 86/28/3
f 83/30/2 68/5/2 66/8/2 53/29/2
f 63/12/3 57/85/3 56/86/3 60/13/3
f 81/87/6 82/88/6 80/89/6 79/90/6
f 69/91/3 80/92/3 82/27/3 72/26/3
f 73/38/1 74/37/1 85/68/1 81/93/1
f 79/94/1 67/35/1 73/38/1 81/93/1
f 41/95/4 42/96/4 43/97/4 44/98/4 46/99/4 45/100/4 50/101/4 49/102/4 48/103/4 47/104/4
s 1
f 1/105/7 97/106/8 98/107/9 3/108/10
f 3/108/10 98/107/9 99/109/11 5/110/12
f 5/111/12 99/112/11 100/113/13 7/114/14
f 7/114/14 100/113/13 101/115/15 9/116/16
f 9/116/16 101/115/15 102/117/17 11/118/18
f 11/118/18 102/117/17 103/119/19 13/120/20
f 13/120/20 103/119/19 104/121/21 15/122/22
f 15/122/22 104/121/21 105/123/23 17/124/24
f 19/125/25 106/126/26 97/106/8 1/105/7
f 17/124/24 105/123/23 106/126/26 19/125/25
f 31/127/27 32/128/28 94/129/29 93/130/5
f 32/128/28 33/131/30 91/132/31 94/129/29
f 33/133/30 34/134/32 92/135/33 91/136/31
f 34/134/32 35/137/34 87/138/35 92/135/33
f 35/137/34 36/139/36 88/140/6 87/138/35
f 36/139/36 37/141/37 89/142/38 88/140/6
f 37/141/37 38/143/39 90/144/40 89/142/38
f 38/143/39 39/145/41 95/146/42 90/144/40
f 39/145/41 40/147/43 96/148/44 95/146/42
f 40/147/43 31/127/27 93/130/5 96/148/44
f 19/125/25 1/105/7 31/127/27 40/147/43
f 17/124/24 19/125/25 40/147/43 39/145/41
f 15/122/22 17/124/24 39/145/41 38/143/39
f 13/120/20 15/122/22 38/143/39 37/141/37
f 11/118/18 13/120/20 37/141/37 36/139/36
f 9/116/16 11/118/18 36/139/36 35/137/34
f 7/114/14 9/116/16 35/137/34 34/134/32
f 5/111/12 7/114/14 34/134/32 33/133/30
f 3/108/10 5/110/12 33/131/30 32/128/28
f 1/105/7 3/108/10 32/128/28 31/127/27
f 22/149/29 21/150/5 20/151/5 18/152/29
f 24/153/33 23/154/31 16/155/31 14/156/33
f 25/157/35 24/153/33 14/156/33 12/158/35
f 26/159/6 25/157/35 12/158/35 10/160/6
f 27/161/38 26/159/6 10/160/6 8/162/38
f 28/163/40 27/161/38 8/162/38 6/164/40
f 29/165/42 28/163/40 6/164/40 4/166/42
f 21/150/5 30/167/44 2/168/44 20/151/5
f 23/169/31 22/149/29 18/152/29 16/170/31
f 30/167/44 29/165/42 4/166/42 2/168/44
