# Blender v2.79 (sub 0) OBJ File: 'table3_collider.blend'
# www.blender.org
mtllib object_drawerDoorLeft_collider.mtl
o object_drawerDoorLeft_collider_Cube
v 0.924200 -0.799029 4.050515
v 0.924200 1.605631 4.050515
v 0.924200 -0.799029 1.991629
v 0.924200 1.605631 1.991629
v 0.998307 -0.799029 4.050515
v 0.998307 1.605631 4.050515
v 0.998307 -0.799029 1.991629
v 0.998307 1.605631 1.991629
v 0.998307 0.400668 2.373437
v 0.998307 0.525807 2.373437
v 0.998307 0.400668 2.241858
v 0.998307 0.525807 2.241858
v 1.114789 0.400668 2.373437
v 1.114789 0.525807 2.373437
v 1.114789 0.400668 2.241858
v 1.114789 0.525807 2.241858
vt 0.476225 0.002238
vt 0.476225 0.555828
vt 0.002238 0.555828
vt 0.002238 0.002238
vt 0.976225 0.002238
vt 0.976225 0.555831
vt 0.959165 0.555831
vt 0.959165 0.002238
vt 0.954689 0.002238
vt 0.954689 0.555828
vt 0.480701 0.555828
vt 0.480701 0.002238
vt 0.997762 0.002238
vt 0.997762 0.555831
vt 0.980701 0.555831
vt 0.980701 0.002238
vt 0.476221 0.581841
vt 0.476221 0.598901
vt 0.002238 0.598902
vt 0.002238 0.581841
vt 0.476221 0.560304
vt 0.476221 0.577364
vt 0.002238 0.577365
vt 0.002238 0.560304
vt 0.000000 0.000000
vt 0.000000 0.000000
vt 0.000000 0.000000
vt 0.000000 0.000000
vt 0.000000 0.000000
vt 0.000000 0.000000
vt 0.000000 0.000000
vt 0.000000 0.000000
vn -1.0000 0.0000 0.0000
vn 0.0000 0.0000 -1.0000
vn 1.0000 0.0000 0.0000
vn 0.0000 0.0000 1.0000
vn 0.0000 -1.0000 0.0000
vn 0.0000 1.0000 0.0000
usemtl None
s off
f 1/1/1 2/2/1 4/3/1 3/4/1
f 3/5/2 4/6/2 8/7/2 7/8/2
f 7/9/3 8/10/3 6/11/3 5/12/3
f 5/13/4 6/14/4 2/15/4 1/16/4
f 3/17/5 7/18/5 5/19/5 1/20/5
f 8/21/6 4/22/6 2/23/6 6/24/6
f 11/25/2 12/26/2 16/27/2 15/28/2
f 15/28/3 16/27/3 14/29/3 13/30/3
f 13/30/4 14/29/4 10/31/4 9/32/4
f 11/25/5 15/28/5 13/30/5 9/32/5
f 16/27/6 12/26/6 10/31/6 14/29/6
