# Blender v2.79 (sub 0) OBJ File: 'smallDrawer_collider.blend'
# www.blender.org
mtllib smallDrawerDrawer_collider.mtl
o object_static_smallDrawerDrawer_Cube.001
v -2.606519 2.352896 -1.375270
v -2.606519 1.543660 -1.504807
v -2.606519 2.774999 -1.504807
v 2.606519 2.352896 -1.375270
v 2.606519 1.543660 -1.504807
v 2.606519 2.774999 -1.504807
v -2.606519 2.774999 -1.375270
v 2.606519 2.774999 -1.375270
v -2.606519 1.543660 1.868101
v 2.606519 1.543660 1.868101
v 2.606519 2.352896 1.868101
v -2.606519 2.352896 1.868101
v 2.369696 2.352896 -1.375270
v 2.369696 2.352896 1.757578
v -2.369696 2.352896 -1.375270
v -2.369696 2.352896 1.757578
v 2.369696 1.711911 -1.375270
v 2.369696 1.711911 1.757578
v -2.369696 1.711911 -1.375270
v -2.369696 1.711911 1.757578
v -1.119291 2.268900 -1.673899
v -1.119291 2.018496 -1.673899
v -1.119291 2.268900 -1.504807
v -1.119291 2.018496 -1.504807
v -1.369696 2.268900 -1.673899
v -1.369696 2.018496 -1.673899
v -1.369696 2.268900 -1.504807
v -1.369696 2.018496 -1.504807
v 1.119291 2.018496 -1.504807
v 1.119291 2.268900 -1.504807
v 1.119291 2.018496 -1.673899
v 1.119291 2.268900 -1.673899
v 1.369696 2.018496 -1.504807
v 1.369696 2.268900 -1.504807
v 1.369696 2.018496 -1.673899
v 1.369696 2.268900 -1.673899
vt 0.513149 0.081057
vt 0.513149 0.002619
vt 0.827523 0.002619
vt 0.827523 0.081057
vt 0.002619 0.898359
vt 0.002619 0.838683
vt 0.507911 0.838683
vt 0.507911 0.898359
vt 0.525705 0.773768
vt 0.513149 0.773768
vt 0.513149 0.714093
vt 0.513149 0.164734
vt 0.513149 0.086296
vt 0.827523 0.086296
vt 0.827523 0.164734
vt 0.543499 0.714093
vt 0.543499 0.773768
vt 0.530944 0.714093
vt 0.543499 0.654417
vt 0.744728 0.970967
vt 0.816811 0.299470
vt 0.474404 0.649151
vt 0.492060 0.638451
vt 0.951441 0.638451
vt 0.816811 0.169972
vt 0.486837 0.903598
vt 0.486837 0.982036
vt 0.002619 0.982036
vt 0.002619 0.903598
vt 0.013155 0.015175
vt 0.497373 0.015175
vt 0.497373 0.329550
vt 0.013155 0.329550
vt 0.486820 0.334789
vt 0.486821 0.649151
vt 0.474403 0.345501
vt 0.002619 0.649178
vt 0.002620 0.334789
vt 0.015038 0.345502
vt 0.015038 0.649178
vt 0.492075 0.903598
vt 0.951457 0.903598
vt 0.951457 0.965727
vt 0.492075 0.965728
vt 0.513149 0.299470
vt 0.513149 0.237340
vt 0.816811 0.237340
vt 0.513149 0.169972
vt 0.816811 0.232102
vt 0.513149 0.232102
vt 0.492060 0.334789
vt 0.951441 0.334789
vt 0.744728 0.983522
vt 0.618402 0.983522
vt 0.618402 0.970966
vt 0.525705 0.654417
vt 0.525705 0.714093
vt 0.000000 0.000000
vt 0.000000 0.000000
vt 0.000000 0.000000
vt 0.000000 0.000000
vt 0.000000 0.000000
vt 0.000000 0.000000
vt 0.000000 0.000000
vt 0.000000 0.000000
vt 0.000000 0.000000
vt 0.000000 0.000000
vt 0.000000 0.000000
vt 0.000000 0.000000
vt 0.000000 0.000000
vt 0.000000 0.000000
vt 0.000000 0.000000
vt 0.000000 0.000000
vn 1.0000 -0.0000 0.0000
vn 0.0000 0.0000 -1.0000
vn -1.0000 -0.0000 0.0000
vn 0.0000 0.0000 1.0000
vn 0.0000 -1.0000 0.0000
vn 0.0000 1.0000 0.0000
usemtl None
s off
f 11/1/1 10/2/1 5/3/1 4/4/1
f 2/5/2 3/6/2 6/7/2 5/8/2
f 6/9/1 8/10/1 4/11/1
f 9/12/3 12/13/3 1/14/3 2/15/3
f 1/16/3 7/17/3 3/18/3
f 2/19/3 1/16/3 3/18/3
f 8/20/4 7/17/4 15/21/4 13/22/4
f 19/23/4 17/24/4 13/25/4 15/21/4
f 10/26/4 11/27/4 12/28/4 9/29/4
f 2/30/5 5/31/5 10/32/5 9/33/5
f 11/34/6 4/35/6 13/22/6 14/36/6
f 1/37/6 12/38/6 16/39/6 15/40/6
f 11/34/6 14/36/6 16/39/6 12/38/6
f 16/41/2 14/42/2 18/43/2 20/44/2
f 15/21/1 16/45/1 20/46/1 19/47/1
f 14/48/3 13/25/3 17/49/3 18/50/3
f 17/24/6 19/23/6 20/51/6 18/52/6
f 4/11/4 8/20/4 13/22/4
f 7/17/4 1/16/4 15/40/4
f 6/53/6 3/54/6 7/55/6 8/20/6
f 5/56/1 6/57/1 4/11/1
f 26/58/5 22/59/5 24/60/5 28/61/5
f 22/59/1 21/62/1 23/63/1 24/60/1
f 26/58/2 25/64/2 21/62/2 22/59/2
f 28/61/3 27/65/3 25/64/3 26/58/3
f 21/62/6 25/64/6 27/65/6 23/63/6
f 29/66/3 30/67/3 32/68/3 31/69/3
f 31/69/2 32/68/2 36/70/2 35/71/2
f 35/71/1 36/70/1 34/72/1 33/73/1
f 31/69/5 35/71/5 33/73/5 29/66/5
f 36/70/6 32/68/6 30/67/6 34/72/6
