# Blender v2.79 (sub 0) OBJ File: 'smallDrawer.blend'
# www.blender.org
mtllib smallDrawerDrawer.mtl
o object_static_smallDrawerDrawer_Cube.001
v -2.497811 2.352896 -1.375270
v -2.606519 1.543660 -1.504807
v -2.606519 2.774999 -1.504807
v 2.497811 2.352896 -1.375270
v 2.606519 1.543660 -1.504807
v 2.606519 2.774999 -1.504807
v -2.606519 1.543660 -1.375270
v -2.606519 2.774999 -1.375270
v 2.606519 1.543660 -1.375270
v 2.606519 2.774999 -1.375270
v -2.497811 1.543660 1.868101
v 2.497811 1.543660 1.868101
v 2.497811 1.543660 -1.375270
v -2.497811 1.543660 -1.375270
v 2.497811 2.352896 1.868101
v -2.497811 2.352896 1.868101
v 2.369696 2.352896 -1.375270
v 2.369696 2.352896 1.757578
v -2.369696 2.352896 -1.375270
v -2.369696 2.352896 1.757578
v 2.369696 1.711911 -1.375270
v 2.369696 1.711911 1.757578
v -2.369696 1.711911 -1.375270
v -2.369696 1.711911 1.757578
v 1.308801 2.079390 -1.573926
v 1.244494 2.052753 -1.573926
v 1.278851 2.109340 -1.504807
v 1.244494 2.052753 -1.673899
v 1.293082 2.143698 -1.504807
v 1.308801 2.079390 -1.673899
v 1.278851 2.178055 -1.504807
v 1.335438 2.143698 -1.673899
v 1.244494 2.192286 -1.504807
v 1.308801 2.208005 -1.673899
v 1.210136 2.178055 -1.504807
v 1.244494 2.234643 -1.673899
v 1.195905 2.143698 -1.504807
v 1.180186 2.208005 -1.673899
v 1.210136 2.109340 -1.504807
v 1.153549 2.143698 -1.673899
v 1.244494 2.095109 -1.504807
v 1.180186 2.079390 -1.673899
v 1.335438 2.143698 -1.573926
v 1.308801 2.208005 -1.573926
v 1.244494 2.234643 -1.573926
v 1.180186 2.208005 -1.573926
v 1.153549 2.143698 -1.573926
v 1.180186 2.079390 -1.573926
v 1.244494 2.095109 -1.573926
v 1.210136 2.109340 -1.573926
v 1.195905 2.143698 -1.573926
v 1.210136 2.178055 -1.573926
v 1.244494 2.192286 -1.573926
v 1.278851 2.178055 -1.573926
v 1.293082 2.143698 -1.573926
v 1.278851 2.109340 -1.573926
v 1.155962 2.055166 -1.639472
v 1.119291 2.143698 -1.639472
v 1.244494 2.018496 -1.639472
v 1.155962 2.232229 -1.639472
v 1.244494 2.268900 -1.639472
v 1.333025 2.232229 -1.639472
v 1.369696 2.143698 -1.639472
v 1.333025 2.055166 -1.639472
v 1.155962 2.055166 -1.605617
v 1.119291 2.143698 -1.605617
v 1.155962 2.232229 -1.605617
v 1.244494 2.268900 -1.605617
v 1.333025 2.232229 -1.605617
v 1.369696 2.143698 -1.605617
v 1.333025 2.055166 -1.605617
v 1.244494 2.018496 -1.605617
v -1.180186 2.079390 -1.573926
v -1.244493 2.052753 -1.573926
v -1.210136 2.109340 -1.504807
v -1.244493 2.052753 -1.673899
v -1.195905 2.143698 -1.504807
v -1.180186 2.079390 -1.673899
v -1.210136 2.178055 -1.504807
v -1.153549 2.143698 -1.673899
v -1.244493 2.192286 -1.504807
v -1.180186 2.208005 -1.673899
v -1.278851 2.178055 -1.504807
v -1.244493 2.234643 -1.673899
v -1.293082 2.143698 -1.504807
v -1.308801 2.208005 -1.673899
v -1.278851 2.109340 -1.504807
v -1.335438 2.143698 -1.673899
v -1.244493 2.095109 -1.504807
v -1.308801 2.079390 -1.673899
v -1.153549 2.143698 -1.573926
v -1.180186 2.208005 -1.573926
v -1.244493 2.234643 -1.573926
v -1.308801 2.208005 -1.573926
v -1.335438 2.143698 -1.573926
v -1.308801 2.079390 -1.573926
v -1.244493 2.095109 -1.573926
v -1.278851 2.109340 -1.573926
v -1.293082 2.143698 -1.573926
v -1.278851 2.178055 -1.573926
v -1.244493 2.192286 -1.573926
v -1.210136 2.178055 -1.573926
v -1.195905 2.143698 -1.573926
v -1.210136 2.109340 -1.573926
v -1.333025 2.055166 -1.639472
v -1.369696 2.143698 -1.639472
v -1.244493 2.018496 -1.639472
v -1.333025 2.232229 -1.639472
v -1.244493 2.268900 -1.639472
v -1.155962 2.232229 -1.639472
v -1.119291 2.143698 -1.639472
v -1.155962 2.055166 -1.639472
v -1.333025 2.055166 -1.605617
v -1.369696 2.143698 -1.605617
v -1.333025 2.232229 -1.605617
v -1.244493 2.268900 -1.605617
v -1.155962 2.232229 -1.605617
v -1.119291 2.143698 -1.605617
v -1.155962 2.055166 -1.605617
v -1.244493 2.018496 -1.605617
vt 0.513149 0.081057
vt 0.513149 0.002619
vt 0.827523 0.002619
vt 0.827523 0.081057
vt 0.507910 0.002619
vt 0.507910 0.015175
vt 0.497373 0.015175
vt 0.525705 0.654417
vt 0.525705 0.773768
vt 0.513149 0.773768
vt 0.513149 0.654417
vt 0.513149 0.164734
vt 0.513149 0.086296
vt 0.827523 0.086296
vt 0.827523 0.164734
vt 0.013156 0.654418
vt 0.013156 0.732855
vt 0.002619 0.773769
vt 0.002619 0.654418
vt 0.543499 0.654417
vt 0.543499 0.773768
vt 0.530944 0.773768
vt 0.530944 0.654417
vt 0.002619 0.002620
vt 0.013155 0.015175
vt 0.002619 0.015175
vt 0.507911 0.654417
vt 0.507911 0.773769
vt 0.497374 0.732855
vt 0.497374 0.654417
vt 0.997381 0.983522
vt 0.492075 0.983522
vt 0.492075 0.970966
vt 0.997381 0.970967
vt 0.002619 0.898359
vt 0.002619 0.779008
vt 0.507911 0.779008
vt 0.507911 0.898359
vt 0.486837 0.903598
vt 0.486837 0.982036
vt 0.002619 0.982036
vt 0.002619 0.903598
vt 0.497373 0.329550
vt 0.013155 0.329550
vt 0.486820 0.334789
vt 0.486821 0.649151
vt 0.474404 0.649151
vt 0.474403 0.345501
vt 0.002619 0.649178
vt 0.002620 0.334789
vt 0.015038 0.345502
vt 0.015038 0.649178
vt 0.492075 0.903598
vt 0.951457 0.903598
vt 0.951457 0.965727
vt 0.492075 0.965728
vt 0.816811 0.299470
vt 0.513149 0.299470
vt 0.513149 0.237340
vt 0.816811 0.237340
vt 0.513149 0.169972
vt 0.816811 0.169972
vt 0.816811 0.232102
vt 0.513149 0.232102
vt 0.951441 0.638451
vt 0.492060 0.638451
vt 0.492060 0.334789
vt 0.951441 0.334789
vt 0.025574 0.670726
vt 0.484956 0.670726
vt 0.484956 0.732855
vt 0.025574 0.732855
vt 0.555456 0.309117
vt 0.558930 0.312188
vt 0.553601 0.315700
vt 0.551402 0.311596
vt 0.634397 0.676044
vt 0.634397 0.679649
vt 0.627697 0.679649
vt 0.627697 0.676044
vt 0.572636 0.310908
vt 0.575329 0.317837
vt 0.566704 0.323078
vt 0.563522 0.318033
vt 0.557422 0.304708
vt 0.563231 0.305317
vt 0.634397 0.654417
vt 0.634397 0.658021
vt 0.627697 0.658021
vt 0.627697 0.654417
vt 0.558245 0.327046
vt 0.556150 0.321970
vt 0.546702 0.312707
vt 0.547725 0.317411
vt 0.541581 0.317632
vt 0.541705 0.312532
vt 0.634397 0.661626
vt 0.627697 0.661626
vt 0.549539 0.329103
vt 0.548643 0.323933
vt 0.535686 0.317055
vt 0.536806 0.312691
vt 0.634397 0.665231
vt 0.634397 0.668835
vt 0.627697 0.668835
vt 0.627697 0.665231
vt 0.540883 0.329178
vt 0.541121 0.324158
vt 0.530661 0.315120
vt 0.532587 0.311686
vt 0.634397 0.672440
vt 0.627697 0.672440
vt 0.532860 0.327384
vt 0.534092 0.322784
vt 0.526314 0.311684
vt 0.529584 0.308749
vt 0.525828 0.324172
vt 0.527797 0.320192
vt 0.606865 0.304708
vt 0.613612 0.304708
vt 0.618382 0.309479
vt 0.618382 0.316226
vt 0.613612 0.320996
vt 0.606865 0.320996
vt 0.602094 0.316226
vt 0.602094 0.309479
vt 0.634397 0.683254
vt 0.627697 0.683254
vt 0.519816 0.320012
vt 0.522021 0.316471
vt 0.522310 0.305469
vt 0.527666 0.304708
vt 0.513149 0.316416
vt 0.514816 0.311033
vt 0.523695 0.314414
vt 0.517237 0.308044
vt 0.529029 0.318065
vt 0.534868 0.320354
vt 0.541391 0.321512
vt 0.548329 0.321183
vt 0.555155 0.319256
vt 0.561720 0.315348
vt 0.569256 0.307470
vt 0.591684 0.658768
vt 0.595106 0.661619
vt 0.590185 0.665133
vt 0.587909 0.661260
vt 0.622459 0.676044
vt 0.622459 0.679649
vt 0.615759 0.679649
vt 0.615759 0.676044
vt 0.607998 0.660286
vt 0.610520 0.666618
vt 0.602669 0.671519
vt 0.599640 0.666938
vt 0.593454 0.654417
vt 0.599136 0.654810
vt 0.622459 0.654417
vt 0.622459 0.658021
vt 0.615759 0.658021
vt 0.615759 0.654417
vt 0.595020 0.675458
vt 0.592894 0.670933
vt 0.583408 0.662493
vt 0.584617 0.667062
vt 0.578489 0.667658
vt 0.578446 0.662488
vt 0.622459 0.661626
vt 0.615759 0.661626
vt 0.587175 0.677752
vt 0.585988 0.673336
vt 0.572385 0.667092
vt 0.573493 0.662608
vt 0.622459 0.665231
vt 0.622459 0.668835
vt 0.615759 0.668835
vt 0.615759 0.665231
vt 0.578577 0.680227
vt 0.578480 0.674288
vt 0.567063 0.665155
vt 0.569057 0.661559
vt 0.622459 0.672440
vt 0.615759 0.672440
vt 0.569585 0.678426
vt 0.570831 0.673309
vt 0.562497 0.661513
vt 0.565880 0.658504
vt 0.561865 0.674962
vt 0.564020 0.670596
vt 0.585338 0.304708
vt 0.592085 0.304708
vt 0.596856 0.309479
vt 0.596856 0.316226
vt 0.592085 0.320996
vt 0.585338 0.320996
vt 0.580567 0.316226
vt 0.580567 0.309479
vt 0.622459 0.683254
vt 0.615759 0.683254
vt 0.555340 0.670379
vt 0.557892 0.666521
vt 0.558488 0.655279
vt 0.563908 0.654417
vt 0.548738 0.665816
vt 0.550560 0.660521
vt 0.559729 0.664417
vt 0.553220 0.657421
vt 0.565337 0.668311
vt 0.571583 0.670702
vt 0.578557 0.671506
vt 0.585455 0.670692
vt 0.591826 0.668435
vt 0.597892 0.664449
vt 0.604878 0.657134
vn 1.0000 0.0000 0.0000
vn 0.0000 -1.0000 0.0000
vn -1.0000 0.0000 0.0000
vn 0.0000 0.0000 1.0000
vn 0.0000 1.0000 0.0000
vn 0.0000 0.0000 -1.0000
vn 0.4203 -0.4203 0.8042
vn 0.3097 -0.3097 0.8990
vn 0.4380 0.0000 0.8990
vn 0.5943 0.0000 0.8042
vn -0.5943 0.0000 0.8042
vn -0.4203 -0.4203 0.8042
vn -0.7071 -0.7071 0.0000
vn 0.0000 -0.9359 -0.3522
vn 0.0000 -0.4592 -0.8883
vn 0.3247 -0.3247 -0.8883
vn 0.6618 -0.6618 -0.3522
vn 0.0000 -0.5943 0.8042
vn 0.0000 -0.4380 0.8990
vn 0.7071 -0.7071 0.0000
vn 0.4592 0.0000 -0.8883
vn 0.9359 0.0000 -0.3522
vn 0.4203 0.4203 0.8042
vn 0.3097 0.3097 0.8990
vn 0.0000 0.4380 0.8990
vn 0.0000 0.5944 0.8042
vn 0.3247 0.3247 -0.8883
vn 0.6618 0.6618 -0.3522
vn -0.3097 0.3097 0.8990
vn -0.4203 0.4203 0.8042
vn 0.7071 0.7071 0.0000
vn 0.0000 0.4592 -0.8883
vn 0.0000 0.9359 -0.3522
vn -0.4380 0.0000 0.8990
vn -0.7071 0.7071 0.0000
vn -0.3247 0.3247 -0.8883
vn -0.6618 0.6618 -0.3522
vn -0.3097 -0.3097 0.8990
vn -0.4592 0.0000 -0.8883
vn -0.9359 0.0000 -0.3522
vn -0.3247 -0.3247 -0.8883
vn -0.6618 -0.6618 -0.3522
vn -0.6573 -0.6573 0.3686
vn 0.0000 -0.9296 0.3686
vn -0.9296 0.0000 0.3686
vn -0.6573 0.6573 0.3686
vn 0.0000 0.9296 0.3686
vn 0.6573 0.6573 0.3686
vn 0.9296 0.0000 0.3686
vn 0.6573 -0.6573 0.3686
vn -0.5944 0.0000 0.8042
usemtl Material
s off
f 15/1/1 12/2/1 13/3/1 4/4/1
f 5/5/2 9/6/2 13/7/2
f 5/8/1 6/9/1 10/10/1 9/11/1
f 11/12/3 16/13/3 1/14/3 14/15/3
f 14/16/4 1/17/4 8/18/4 7/19/4
f 7/20/3 8/21/3 3/22/3 2/23/3
f 2/24/2 14/25/2 7/26/2
f 9/27/4 10/28/4 4/29/4 13/30/4
f 6/31/5 3/32/5 8/33/5 10/34/5
f 2/24/2 5/5/2 13/7/2 14/25/2
f 2/35/6 3/36/6 6/37/6 5/38/6
f 12/39/4 15/40/4 16/41/4 11/42/4
f 14/25/2 13/7/2 12/43/2 11/44/2
f 15/45/5 4/46/5 17/47/5 18/48/5
f 1/49/5 16/50/5 20/51/5 19/52/5
f 15/45/5 18/48/5 20/51/5 16/50/5
f 20/53/6 18/54/6 22/55/6 24/56/6
f 19/57/1 20/58/1 24/59/1 23/60/1
f 18/61/3 17/62/3 21/63/3 22/64/3
f 21/65/5 23/66/5 24/67/5 22/68/5
f 23/69/4 21/70/4 17/71/4 19/72/4
f 19/72/4 17/71/4 10/28/4 8/18/4
f 1/17/4 19/72/4 8/18/4
f 17/71/4 4/29/4 10/28/4
s 1
f 56/73/7 25/74/8 43/75/9 55/76/10
f 51/77/11 50/78/12 39/79/13 37/80/3
f 59/81/14 28/82/15 30/83/16 64/84/17
f 49/85/18 26/86/19 25/74/8 56/73/7
f 49/87/18 56/88/7 27/89/20 41/90/2
f 64/84/17 30/83/16 32/91/21 63/92/22
f 54/93/23 44/94/24 45/95/25 53/96/26
f 56/88/7 55/97/10 29/98/1 27/89/20
f 63/92/22 32/91/21 34/99/27 62/100/28
f 53/96/26 45/95/25 46/101/29 52/102/30
f 54/103/23 53/104/26 33/105/5 31/106/31
f 62/100/28 34/99/27 36/107/32 61/108/33
f 52/102/30 46/101/29 47/109/34 51/110/11
f 52/111/30 51/77/11 37/80/3 35/112/35
f 61/108/33 36/107/32 38/113/36 60/114/37
f 51/110/11 47/109/34 48/115/38 50/116/12
f 55/97/10 54/103/23 31/106/31 29/98/1
f 60/114/37 38/113/36 40/117/39 58/118/40
f 30/119/16 28/120/15 42/121/41 40/122/39 38/123/36 36/124/32 34/125/27 32/126/21
f 50/78/12 49/127/18 41/128/2 39/79/13
f 58/118/40 40/117/39 42/129/41 57/130/42
f 55/76/10 43/75/9 44/94/24 54/93/23
f 50/116/12 48/115/38 26/131/19 49/132/18
f 57/130/42 42/129/41 28/133/15 59/134/14
f 53/104/26 52/111/30 35/112/35 33/105/5
f 65/135/43 57/130/42 59/134/14 72/136/44
f 66/137/45 58/118/40 57/130/42 65/135/43
f 67/138/46 60/114/37 58/118/40 66/137/45
f 68/139/47 61/108/33 60/114/37 67/138/46
f 69/140/48 62/100/28 61/108/33 68/139/47
f 70/141/49 63/92/22 62/100/28 69/140/48
f 71/142/50 64/84/17 63/92/22 70/141/49
f 72/143/44 59/81/14 64/84/17 71/142/50
f 26/86/19 72/143/44 71/142/50 25/74/8
f 25/74/8 71/142/50 70/141/49 43/75/9
f 43/75/9 70/141/49 69/140/48 44/94/24
f 44/94/24 69/140/48 68/139/47 45/95/25
f 45/95/25 68/139/47 67/138/46 46/101/29
f 46/101/29 67/138/46 66/137/45 47/109/34
f 47/109/34 66/137/45 65/135/43 48/115/38
f 48/115/38 65/135/43 72/136/44 26/131/19
f 104/144/7 73/145/8 91/146/9 103/147/10
f 99/148/51 98/149/12 87/150/13 85/151/3
f 107/152/14 76/153/15 78/154/16 112/155/17
f 97/156/18 74/157/19 73/145/8 104/144/7
f 97/158/18 104/159/7 75/160/20 89/161/2
f 112/155/17 78/154/16 80/162/21 111/163/22
f 102/164/23 92/165/24 93/166/25 101/167/26
f 104/159/7 103/168/10 77/169/1 75/160/20
f 111/163/22 80/162/21 82/170/27 110/171/28
f 101/167/26 93/166/25 94/172/29 100/173/30
f 102/174/23 101/175/26 81/176/5 79/177/31
f 110/171/28 82/170/27 84/178/32 109/179/33
f 100/173/30 94/172/29 95/180/34 99/181/51
f 100/182/30 99/148/51 85/151/3 83/183/35
f 109/179/33 84/178/32 86/184/36 108/185/37
f 99/181/51 95/180/34 96/186/38 98/187/12
f 103/168/10 102/174/23 79/177/31 77/169/1
f 108/185/37 86/184/36 88/188/39 106/189/40
f 78/190/16 76/191/15 90/192/41 88/193/39 86/194/36 84/195/32 82/196/27 80/197/21
f 98/149/12 97/198/18 89/199/2 87/150/13
f 106/189/40 88/188/39 90/200/41 105/201/42
f 103/147/10 91/146/9 92/165/24 102/164/23
f 98/187/12 96/186/38 74/202/19 97/203/18
f 105/201/42 90/200/41 76/204/15 107/205/14
f 101/175/26 100/182/30 83/183/35 81/176/5
f 113/206/43 105/201/42 107/205/14 120/207/44
f 114/208/45 106/189/40 105/201/42 113/206/43
f 115/209/46 108/185/37 106/189/40 114/208/45
f 116/210/47 109/179/33 108/185/37 115/209/46
f 117/211/48 110/171/28 109/179/33 116/210/47
f 118/212/49 111/163/22 110/171/28 117/211/48
f 119/213/50 112/155/17 111/163/22 118/212/49
f 120/214/44 107/152/14 112/155/17 119/213/50
f 74/157/19 120/214/44 119/213/50 73/145/8
f 73/145/8 119/213/50 118/212/49 91/146/9
f 91/146/9 118/212/49 117/211/48 92/165/24
f 92/165/24 117/211/48 116/210/47 93/166/25
f 93/166/25 116/210/47 115/209/46 94/172/29
f 94/172/29 115/209/46 114/208/45 95/180/34
f 95/180/34 114/208/45 113/206/43 96/186/38
f 96/186/38 113/206/43 120/207/44 74/202/19
