# Blender v2.79 (sub 0) OBJ File: 'chair_collider.blend'
# www.blender.org
mtllib chair_collider.mtl
o object_static_chair_collider_Cube.002
v -2.371124 0.113772 2.950259
v -2.371124 -1.942674 2.950259
v 2.371128 0.113772 2.950259
v 2.371128 -1.942674 2.950259
v 2.371128 0.113772 -1.857221
v 2.371128 -1.942674 -1.857221
v -2.909973 -5.301511 3.454890
v -2.909973 1.476985 3.454890
v -2.909973 -5.301511 -2.398345
v -2.909973 1.476985 -2.434068
v 2.909973 -5.301511 3.454890
v 2.909973 1.476985 3.454890
v 2.909973 -5.301511 -2.398345
v 2.909973 1.476985 -2.434068
v -2.909973 -5.301511 -1.857221
v -2.909973 1.476985 -1.857221
v 2.909973 -5.301511 -1.857221
v 2.909973 1.476985 -1.857221
v -2.909973 9.781238 -2.621317
v -2.909973 9.781238 -3.162441
v 2.909973 9.781238 -3.162441
v 2.909973 9.781238 -2.621317
v 2.909973 7.990795 -3.012415
v 2.909973 7.990795 -2.471290
v -2.909973 7.990795 -2.471290
v -2.909973 7.990795 -3.012415
v 3.085146 9.781238 -3.162441
v 3.085146 9.781238 -2.621317
v 3.085146 7.990795 -3.012415
v 3.085146 7.990795 -2.471290
v -3.100654 9.781238 -2.621317
v -3.100654 9.781238 -3.162441
v -3.100654 7.990795 -2.471290
v -3.100654 7.990795 -3.012415
v -2.909973 -1.942674 3.454890
v -2.909973 -1.942674 -2.398345
v 2.909973 -1.942674 -2.398345
v 2.909973 -1.942674 3.454890
v 2.909973 -1.942674 -1.857221
v -2.909973 -1.942674 -1.857221
v -2.909973 -2.304550 -2.398345
v 2.909973 -2.304550 -2.398345
v 2.909973 -2.304550 3.454890
v 2.909973 -2.304550 -1.857221
v -2.909973 -2.304550 -1.857221
v -2.909973 -2.304550 3.454890
v -2.909973 0.113772 -2.398345
v 2.909973 0.113772 -2.398345
v 2.909973 0.113772 -1.857221
v -2.909973 0.113772 -1.857221
v -2.909973 -5.301511 2.950259
v 2.909973 -5.301511 2.950259
v -2.909973 -1.942674 2.950259
v 2.909973 -1.942674 2.950259
v 2.909973 -2.304550 2.950259
v -2.909973 -2.304550 2.950259
v -2.909973 0.113772 2.950259
v 2.909973 0.113772 2.950259
v -2.371124 -5.301511 -2.398345
v -2.371124 -5.301511 3.454890
v -2.371124 -5.301511 -1.857221
v -2.371124 -1.942674 3.454890
v -2.371124 -1.942674 -2.398345
v -2.371124 -2.304550 -2.398345
v -2.371124 -2.304550 3.454890
v -2.371124 0.113772 3.454890
v -2.371124 0.113772 -2.398345
v -2.371124 -5.301511 2.950259
v 2.371128 -5.301511 3.454890
v 2.371128 -1.942674 -2.398345
v 2.371128 -2.304550 -2.398345
v 2.371128 0.113772 -2.398345
v 2.371128 -5.301511 -2.398345
v 2.371128 -5.301511 -1.857221
v 2.371128 -1.942674 3.454890
v 2.371128 -2.304550 3.454890
v 2.371128 0.113772 3.454890
v 2.371128 -5.301511 2.950259
v -2.371124 -1.942674 -1.857221
v -2.371124 0.113772 -1.857221
v 2.909973 -1.942674 2.034581
v 2.371128 -1.942674 2.034581
v -2.371124 -2.304550 -1.857221
v -2.371124 0.785672 -1.857221
v 2.371128 0.785672 -1.857221
v 2.371128 -2.304550 -1.857221
v 2.371128 0.785672 2.950259
v -2.371124 0.785672 2.950259
v 2.909973 -2.304550 2.034581
v 2.909973 -2.304550 1.654776
v 2.909973 -1.942674 1.654776
v 2.371128 -1.942674 1.654776
v -2.909973 -1.942674 2.034581
v -2.909973 -2.304550 2.034581
v -2.371124 -1.942674 2.034581
v -2.909973 -1.942674 1.654776
v -2.909973 -2.304550 1.654776
v -2.371124 -1.942674 1.654776
v -2.371124 -2.304550 2.950259
v -2.371124 -2.304550 1.654776
v -2.371124 -2.304550 2.034581
v 2.371128 -2.304550 2.950259
v 2.371128 -2.304550 1.654776
v 2.371128 -2.304550 2.034581
vt 0.000000 0.000000
vt 0.000000 0.000000
vt 0.000000 0.000000
vt 0.000000 0.000000
vt 0.000000 0.000000
vt 0.000000 0.000000
vt 0.000000 0.000000
vt 0.000000 0.000000
vt 0.000000 0.000000
vt 0.000000 0.000000
vt 0.000000 0.000000
vt 0.000000 0.000000
vt 0.000000 0.000000
vt 0.000000 0.000000
vt 0.000000 0.000000
vt 0.000000 0.000000
vt 0.000000 0.000000
vt 0.000000 0.000000
vt 0.000000 0.000000
vt 0.000000 0.000000
vt 0.000000 0.000000
vt 0.000000 0.000000
vt 0.000000 0.000000
vt 0.000000 0.000000
vt 0.000000 0.000000
vt 0.000000 0.000000
vt 0.000000 0.000000
vt 0.000000 0.000000
vt 0.000000 0.000000
vt 0.000000 0.000000
vt 0.000000 0.000000
vt 0.000000 0.000000
vt 0.000000 0.000000
vt 0.000000 0.000000
vt 0.000000 0.000000
vt 0.000000 0.000000
vt 0.000000 0.000000
vt 0.000000 0.000000
vt 0.000000 0.000000
vt 0.000000 0.000000
vt 0.000000 0.000000
vt 0.000000 0.000000
vt 0.000000 0.000000
vt 0.000000 0.000000
vt 0.000000 0.000000
vt 0.000000 0.000000
vt 0.000000 0.000000
vt 0.000000 0.000000
vt 0.000000 0.000000
vt 0.000000 0.000000
vt 0.000000 0.000000
vt 0.000000 0.000000
vt 0.000000 0.000000
vt 0.000000 0.000000
vt 0.000000 0.000000
vt 0.000000 0.000000
vt 0.000000 0.000000
vt 0.000000 0.000000
vt 0.000000 0.000000
vt 0.000000 0.000000
vt 0.000000 0.000000
vt 0.000000 0.000000
vt 0.000000 0.000000
vt 0.000000 0.000000
vt 0.000000 0.000000
vt 0.000000 0.000000
vt 0.000000 0.000000
vt 0.000000 0.000000
vt 0.000000 0.000000
vt 0.000000 0.000000
vt 0.000000 0.000000
vt 0.000000 0.000000
vt 0.000000 0.000000
vt 0.000000 0.000000
vt 0.000000 0.000000
vt 0.000000 0.000000
vt 0.000000 0.000000
vt 0.000000 0.000000
vt 0.000000 0.000000
vt 0.000000 0.000000
vt 0.000000 0.000000
vt 0.000000 0.000000
vt 0.000000 0.000000
vt 0.000000 0.000000
vt 0.000000 0.000000
vt 0.000000 0.000000
vt 0.000000 0.000000
vt 0.000000 0.000000
vt 0.000000 0.000000
vt 0.000000 0.000000
vt 0.000000 0.000000
vt 0.000000 0.000000
vt 0.000000 0.000000
vt 0.000000 0.000000
vt 0.000000 0.000000
vt 0.000000 0.000000
vt 0.000000 0.000000
vt 0.000000 0.000000
vt 0.000000 0.000000
vt 0.000000 0.000000
vt 0.000000 0.000000
vt 0.000000 0.000000
vt 0.000000 0.000000
vt 0.000000 0.000000
vn 0.0000 1.0000 0.0000
vn 0.0000 0.0000 1.0000
vn 1.0000 0.0000 0.0000
vn -0.0000 -1.0000 0.0000
vn -1.0000 0.0000 0.0000
vn 0.0000 0.0000 -1.0000
vn 0.0000 -0.0262 -0.9997
vn 0.0000 -0.0835 -0.9965
vn 0.0000 0.0835 0.9965
vn 0.0000 -0.0884 -0.9961
vn 0.0000 0.0939 0.9956
usemtl None
s off
f 91/1/1 39/2/1 6/3/1 92/4/1
f 39/2/2 49/5/2 5/6/2 6/3/2
f 66/7/3 62/8/3 2/9/3 1/10/3
f 2/9/3 62/8/3 65/11/3 99/12/3
f 77/13/4 66/7/4 1/10/4 3/14/4
f 75/15/5 77/13/5 3/14/5 4/16/5
f 58/17/6 54/18/6 4/16/6 3/14/6
f 49/5/4 58/17/4 3/14/4 5/6/4
f 50/19/5 16/20/5 10/21/5 47/22/5
f 72/23/7 14/24/7 48/25/7
f 78/26/4 52/27/4 11/28/4 69/29/4
f 23/30/8 21/31/8 27/32/8 29/33/8
f 73/34/4 13/35/4 17/36/4 74/37/4
f 48/25/3 14/24/3 18/38/3 49/5/3
f 57/39/5 8/40/5 16/20/5 50/19/5
f 25/41/9 19/42/9 31/43/9 33/44/9
f 10/21/5 16/20/5 25/41/5 26/45/5
f 18/38/3 14/24/3 23/30/3 24/46/3
f 30/47/3 29/33/3 27/32/3 28/48/3
f 24/46/4 23/30/4 29/33/4 30/47/4
f 21/31/1 22/49/1 28/48/1 27/32/1
f 22/49/9 24/46/9 30/47/9 28/48/9
f 34/50/5 33/44/5 31/43/5 32/51/5
f 19/42/1 20/52/1 32/51/1 31/43/1
f 20/52/8 26/45/8 34/50/8 32/51/8
f 26/45/4 25/41/4 33/44/4 34/50/4
f 97/53/5 96/54/5 40/55/5 45/56/5
f 42/57/3 37/58/3 39/2/3 44/59/3
f 65/11/2 62/8/2 35/60/2 46/61/2
f 55/62/3 54/18/3 38/63/3 43/64/3
f 71/65/6 70/66/6 37/58/6 42/57/6
f 45/56/5 40/55/5 36/67/5 41/68/5
f 15/69/5 45/56/5 41/68/5 9/70/5
f 73/34/6 71/65/6 42/57/6 13/35/6
f 52/27/3 55/62/3 43/64/3 11/28/3
f 60/71/2 65/11/2 46/61/2 7/72/2
f 13/35/3 42/57/3 44/59/3 17/36/3
f 93/73/1 53/74/1 2/9/1 95/75/1
f 37/58/3 48/25/3 49/5/3 39/2/3
f 62/8/2 66/7/2 8/40/2 35/60/2
f 54/18/3 58/17/3 12/76/3 38/63/3
f 70/66/6 72/23/6 48/25/6 37/58/6
f 40/55/5 50/19/5 47/22/5 36/67/5
f 57/39/4 50/19/4 80/77/4 1/10/4
f 35/60/5 8/40/5 57/39/5 53/74/5
f 7/72/5 46/61/5 56/78/5 51/79/5
f 89/80/3 81/81/3 54/18/3 55/62/3
f 46/61/5 35/60/5 53/74/5 56/78/5
f 49/5/3 18/38/3 12/76/3 58/17/3
f 18/38/1 16/20/1 8/40/1 12/76/1
f 36/67/6 47/22/6 67/82/6 63/83/6
f 53/74/6 57/39/6 1/10/6 2/9/6
f 9/70/6 41/68/6 64/84/6 59/85/6
f 41/68/6 36/67/6 63/83/6 64/84/6
f 95/75/3 2/9/3 99/12/3 101/86/3
f 14/24/10 10/21/10 26/45/10 23/30/10
f 23/30/8 26/45/8 20/52/8 21/31/8
f 21/31/1 20/52/1 19/42/1 22/49/1
f 9/70/4 59/85/4 61/87/4 15/69/4
f 51/79/4 68/88/4 60/71/4 7/72/4
f 77/13/2 12/76/2 8/40/2 66/7/2
f 47/22/7 10/21/7 67/82/7
f 43/64/2 38/63/2 75/15/2 76/89/2
f 11/28/2 43/64/2 76/89/2 69/29/2
f 38/63/2 12/76/2 77/13/2 75/15/2
f 50/19/2 40/55/2 79/90/2 80/77/2
f 71/65/5 73/34/5 74/37/5 86/91/5
f 16/20/11 18/38/11 24/46/11 25/41/11
f 25/41/9 24/46/9 22/49/9 19/42/9
f 67/82/7 10/21/7 14/24/7 72/23/7
f 63/83/3 67/82/3 80/77/3 79/90/3
f 59/85/3 64/84/3 83/92/3 61/87/3
f 70/66/5 71/65/5 86/91/5 6/3/5
f 67/82/4 72/23/4 5/6/4 80/77/4
f 72/23/5 70/66/5 6/3/5 5/6/5
f 64/84/3 63/83/3 79/90/3 83/92/3
f 5/6/5 3/14/5 87/93/5 85/94/5
f 1/10/3 80/77/3 84/95/3 88/96/3
f 3/14/6 1/10/6 88/96/6 87/93/6
f 80/77/2 5/6/2 85/94/2 84/95/2
f 84/95/4 85/94/4 87/93/4 88/96/4
f 90/97/3 91/1/3 81/81/3 89/80/3
f 54/18/1 81/81/1 82/98/1 4/16/1
f 44/59/3 39/2/3 91/1/3 90/97/3
f 81/81/1 91/1/1 92/4/1 82/98/1
f 96/54/1 93/73/1 95/75/1 98/99/1
f 56/78/5 53/74/5 93/73/5 94/100/5
f 40/55/1 96/54/1 98/99/1 79/90/1
f 94/100/5 93/73/5 96/54/5 97/53/5
f 99/12/3 65/11/3 60/71/3 68/88/3
f 56/78/6 99/12/6 68/88/6 51/79/6
f 99/12/4 56/78/4 94/100/4 101/86/4
f 101/86/4 94/100/4 97/53/4 100/101/4
f 100/101/4 97/53/4 45/56/4 83/92/4
f 61/87/2 83/92/2 45/56/2 15/69/2
f 98/99/3 100/101/3 83/92/3 79/90/3
f 101/86/4 100/101/4 103/102/4 104/103/4
f 98/99/1 95/75/1 82/98/1 92/4/1
f 100/101/6 98/99/6 92/4/6 103/102/6
f 95/75/2 101/86/2 104/103/2 82/98/2
f 89/80/4 104/103/4 103/102/4 90/97/4
f 104/103/4 89/80/4 55/62/4 102/104/4
f 90/97/4 103/102/4 86/91/4 44/59/4
f 17/36/2 44/59/2 86/91/2 74/37/2
f 86/91/5 103/102/5 92/4/5 6/3/5
f 82/98/5 104/103/5 102/104/5 4/16/5
f 55/62/6 52/27/6 78/26/6 102/104/6
f 76/89/5 102/104/5 78/26/5 69/29/5
f 4/16/5 102/104/5 76/89/5 75/15/5
