# Blender v2.79 (sub 0) OBJ File: 'closet_collider.blend'
# www.blender.org
mtllib closet_collider.mtl
o object_static_closet_Cube
v 1.000000 -3.158358 2.461755
v 1.000000 -2.323462 2.296866
v 0.999999 6.476056 2.296868
v -0.931575 6.476056 2.296867
v 1.000000 -0.947009 2.461755
v -1.178785 -0.947009 2.461754
v 1.000000 -0.947009 2.296867
v -0.931575 -0.947009 2.296866
v -0.931574 -2.323462 2.296866
v 1.000000 -0.785894 2.461755
v -1.178785 -0.785894 2.461754
v 1.000000 -0.785894 2.296867
v 0.999999 6.988599 2.461756
v -1.178785 6.988599 2.461754
v -0.931574 -0.785894 2.296866
v 1.149999 7.090854 2.611756
v -1.178785 7.090854 2.611754
v 1.299999 7.263443 2.761756
v 1.299999 7.374644 2.761756
v -1.178785 7.263443 2.761754
v -1.178785 7.374644 2.761754
v 1.000000 -2.323462 -2.296866
v 0.999999 6.476056 -2.296868
v -0.931575 6.476056 -2.296867
v 1.000000 -0.947009 -2.461755
v -1.178785 -0.947009 -2.461754
v 1.000000 -0.947009 -2.296867
v -0.931575 -0.947009 -2.296866
v -0.931574 -2.323462 -2.296866
v 1.000000 -0.785894 -2.461755
v -1.178785 -0.785894 -2.461754
v 1.000000 -0.785894 -2.296867
v 0.999999 6.988599 -2.461756
v -1.178785 6.988599 -2.461754
v -0.931574 -0.785894 -2.296866
v 1.149999 7.090854 -2.611756
v -1.178785 7.090854 -2.611754
v 1.299999 7.263443 -2.761756
v 1.299999 7.374644 -2.761756
v -1.178785 7.263443 -2.761754
v -1.178785 7.374644 -2.761754
v -1.178785 -3.158358 2.461754
v 1.000000 -3.158358 -2.461755
v -1.178785 -3.158358 -2.461754
vt 0.393468 0.527840
vt 0.464246 0.527840
vt 0.464246 0.627162
vt 0.393468 0.627162
vt 0.663400 0.752901
vt 0.663400 0.379487
vt 0.762723 0.379487
vt 0.762723 0.752901
vt 0.298576 0.115733
vt 0.298576 0.124017
vt 0.290098 0.124017
vt 0.290097 0.115733
vt 0.298575 0.497435
vt 0.290096 0.523790
vt 0.393468 0.758248
vt 0.520927 0.758248
vt 0.520927 0.763966
vt 0.393468 0.763967
vt 0.393468 0.777784
vt 0.513215 0.777784
vt 0.513215 0.782697
vt 0.393468 0.782697
vt 0.393468 0.731480
vt 0.505503 0.731480
vt 0.513216 0.740815
vt 0.393468 0.740814
vt 0.659351 0.501481
vt 0.659351 0.901249
vt 0.547316 0.901249
vt 0.547316 0.501481
vt 0.659351 0.493196
vt 0.547316 0.493196
vt 0.492791 0.701990
vt 0.393468 0.701990
vt 0.393468 0.631212
vt 0.492791 0.631212
vt 0.389419 0.901253
vt 0.290096 0.901253
vt 0.290096 0.527840
vt 0.389419 0.527840
vt 0.534786 0.115733
vt 0.543264 0.115733
vt 0.543264 0.124018
vt 0.534786 0.124018
vt 0.543267 0.523789
vt 0.534788 0.497434
vt 0.534786 0.115733
vt 0.543264 0.115733
vt 0.144035 0.537919
vt 0.144035 0.543637
vt 0.002025 0.543637
vt 0.002025 0.537919
vt 0.144035 0.529045
vt 0.144035 0.533958
vt 0.009738 0.533958
vt 0.009738 0.529045
vt 0.120131 0.894603
vt 0.120131 0.795281
vt 0.238237 0.795281
vt 0.238237 0.894603
vt 0.665422 0.002025
vt 0.783529 0.002025
vt 0.783529 0.375438
vt 0.665423 0.375438
vt 0.144035 0.523787
vt 0.017451 0.523786
vt 0.416680 0.115733
vt 0.416680 0.124018
vt 0.781506 0.959645
vt 0.781506 0.860322
vt 0.899612 0.860322
vt 0.899612 0.959645
vt 0.408202 0.905302
vt 0.526308 0.905302
vt 0.526308 0.976080
vt 0.408202 0.976080
vt 0.238237 0.898653
vt 0.120131 0.898653
vt 0.120131 0.898653
vt 0.238237 0.898653
vt 0.144036 0.547687
vt 0.286047 0.547687
vt 0.286047 0.675147
vt 0.144036 0.675147
vt 0.393468 0.773734
vt 0.393468 0.768016
vt 0.520927 0.768016
vt 0.520927 0.773734
vt 0.393468 0.791660
vt 0.393468 0.786747
vt 0.513215 0.786747
vt 0.513215 0.791660
vt 0.393468 0.754199
vt 0.393468 0.744864
vt 0.513216 0.744864
vt 0.505503 0.754199
vt 0.787578 0.124018
vt 0.899612 0.124018
vt 0.899612 0.523786
vt 0.787578 0.523786
vt 0.787578 0.115734
vt 0.899612 0.115733
vt 0.547316 0.493196
vt 0.659351 0.493196
vt 0.574116 0.980130
vt 0.574116 0.985848
vt 0.432108 0.985848
vt 0.432108 0.980130
vt 0.931993 0.989799
vt 0.931993 0.994712
vt 0.797699 0.994712
vt 0.797699 0.989799
vt 0.899612 0.756950
vt 0.899612 0.856273
vt 0.781506 0.856273
vt 0.781506 0.756950
vt 0.924283 0.976414
vt 0.931996 0.985749
vt 0.797698 0.985749
vt 0.797698 0.976414
vt 0.017451 0.115733
vt 0.144036 0.115734
vt 0.144036 0.124018
vt 0.017451 0.124018
vt 0.238237 0.997975
vt 0.120131 0.997975
vt 0.416682 0.523790
vt 0.416681 0.497434
vt 0.787578 0.115734
vt 0.899612 0.115733
vt 0.017451 0.115733
vt 0.144036 0.115734
vt 0.290097 0.115733
vt 0.298576 0.115733
vn 0.0000 0.0000 -1.0000
vn 1.0000 0.0000 0.0000
vn -0.0000 0.0000 1.0000
vn -0.0000 -0.6560 0.7548
vn -0.0000 -0.8263 0.5633
vn -1.0000 0.0000 0.0000
vn 0.0000 -1.0000 0.0000
vn 0.0000 1.0000 0.0000
vn -0.0000 -0.6560 -0.7548
vn -0.0000 -0.8263 -0.5633
vn 0.7548 -0.6560 0.0000
vn 0.5633 -0.8263 0.0000
usemtl None
s off
f 7/1/1 2/2/1 9/3/1 8/4/1
f 3/5/1 12/6/1 15/7/1 4/8/1
f 7/9/2 12/10/2 10/11/2 5/12/2
f 12/10/2 3/13/2 13/14/2 10/11/2
f 20/15/3 18/16/3 19/17/3 21/18/3
f 17/19/4 16/20/4 18/21/4 20/22/4
f 14/23/5 13/24/5 16/25/5 17/26/5
f 10/27/3 13/28/3 14/29/3 11/30/3
f 5/31/3 10/27/3 11/30/3 6/32/3
f 27/33/3 28/34/3 29/35/3 22/36/3
f 23/37/3 24/38/3 35/39/3 32/40/3
f 27/41/2 25/42/2 30/43/2 32/44/2
f 32/44/2 30/43/2 33/45/2 23/46/2
f 25/42/2 27/41/2 22/47/2 43/48/2
f 20/49/6 21/50/6 41/51/6 40/52/6
f 17/53/6 20/54/6 40/55/6 37/56/6
f 3/57/7 4/58/7 24/59/7 23/60/7
f 15/61/2 35/62/2 24/63/2 4/64/2
f 14/65/6 17/53/6 37/56/6 34/66/6
f 7/67/2 27/41/2 32/44/2 12/68/2
f 7/69/7 8/70/7 28/71/7 27/72/7
f 9/73/2 29/74/2 28/75/2 8/76/2
f 22/77/2 2/78/2 1/79/2 43/80/2
f 19/81/8 39/82/8 41/83/8 21/84/8
f 40/85/1 41/86/1 39/87/1 38/88/1
f 37/89/9 40/90/9 38/91/9 36/92/9
f 34/93/10 37/94/10 36/95/10 33/96/10
f 30/97/1 31/98/1 34/99/1 33/100/1
f 25/101/1 26/102/1 31/98/1 30/97/1
f 5/31/3 6/32/3 42/103/3 1/104/3
f 38/105/2 39/106/2 19/107/2 18/108/2
f 36/109/11 38/110/11 18/111/11 16/112/11
f 32/113/8 35/114/8 15/115/8 12/116/8
f 33/117/12 36/118/12 16/119/12 13/120/12
f 26/121/6 6/122/6 11/123/6 31/124/6
f 22/77/8 29/125/8 9/126/8 2/78/8
f 23/46/2 33/45/2 13/127/2 3/128/2
f 31/124/6 11/123/6 14/65/6 34/66/6
f 26/102/1 25/101/1 43/129/1 44/130/1
f 6/122/6 26/121/6 44/131/6 42/132/6
f 7/9/2 5/12/2 1/133/2 2/134/2
