# Blender v2.79 (sub 0) OBJ File: 'closet.blend'
# www.blender.org
mtllib closetdoor.mtl
o object_closetDoor_Cube.003
v 0.870699 -0.785894 2.297481
v 0.870699 6.476056 2.297481
v 0.870699 -0.785894 0.000000
v 0.870699 6.476056 0.000000
v 1.000000 -0.785894 2.297481
v 1.000000 6.476056 2.297481
v 1.000000 -0.785894 0.000000
v 1.000000 6.476056 0.000000
v 1.188990 3.864175 0.084925
v 1.188990 3.095677 0.084925
v 1.188990 3.864175 0.211608
v 1.188990 3.095677 0.211608
v 1.000000 3.864175 0.084925
v 1.000000 3.095677 0.084925
v 1.000000 3.864175 0.211608
v 1.000000 3.095677 0.211608
v 1.000000 3.787415 0.084925
v 1.000000 3.172437 0.084925
v 1.000000 3.172438 0.211608
v 1.000000 3.787415 0.211608
v 1.129066 3.172437 0.084925
v 1.129066 3.787415 0.084925
v 1.129066 3.172437 0.211608
v 1.129066 3.787415 0.211608
vt 0.997322 0.025630
vt 0.997322 0.043227
vt 0.684647 0.043227
vt 0.684647 0.025630
vt 0.997322 0.002678
vt 0.997322 0.020275
vt 0.684647 0.020275
vt 0.684647 0.002678
vt 0.702213 0.252668
vt 0.710368 0.263114
vt 0.684647 0.263114
vt 0.684647 0.252668
vt 0.710368 0.515780
vt 0.684647 0.515780
vt 0.684647 0.498539
vt 0.710368 0.498539
vt 0.315353 0.002678
vt 0.315353 0.990993
vt 0.002678 0.990993
vt 0.002678 0.002678
vt 0.656337 0.002678
vt 0.656339 0.990981
vt 0.638742 0.990981
vt 0.638739 0.002678
vt 0.633384 0.002678
vt 0.633384 0.990993
vt 0.320709 0.990993
vt 0.320709 0.002678
vt 0.679292 0.002678
vt 0.679292 0.990981
vt 0.661695 0.990981
vt 0.661694 0.002678
vt 0.692803 0.059029
vt 0.692802 0.142724
vt 0.684647 0.153170
vt 0.684647 0.048582
vt 0.701888 0.268469
vt 0.701888 0.373058
vt 0.684647 0.373058
vt 0.684647 0.268469
vt 0.710368 0.158525
vt 0.702212 0.168972
vt 0.684647 0.168972
vt 0.684647 0.158526
vt 0.684647 0.538701
vt 0.684647 0.521135
vt 0.701888 0.521135
vt 0.701888 0.538701
vt 0.710368 0.048582
vt 0.710368 0.059029
vt 0.684647 0.493184
vt 0.684647 0.467464
vt 0.701888 0.467464
vt 0.701888 0.493184
vt 0.710368 0.142724
vt 0.710368 0.153170
vt 0.684647 0.462108
vt 0.684647 0.378413
vt 0.701888 0.378413
vt 0.701888 0.462109
vt 0.702213 0.561297
vt 0.684647 0.561297
vt 0.684647 0.544056
vt 0.702213 0.544056
vn 0.0000 -1.0000 0.0000
vn 0.0000 1.0000 0.0000
vn 0.0000 0.0000 1.0000
vn -1.0000 0.0000 0.0000
vn 0.0000 0.0000 -1.0000
vn 1.0000 0.0000 0.0000
usemtl Material.002
s off
f 3/1/1 7/2/1 5/3/1 1/4/1
f 8/5/2 4/6/2 2/7/2 6/8/2
f 24/9/3 11/10/3 15/11/3 20/12/3
f 9/13/2 13/14/2 15/15/2 11/16/2
f 1/17/4 2/18/4 4/19/4 3/20/4
f 3/21/5 4/22/5 8/23/5 7/24/5
f 7/25/6 8/26/6 6/27/6 5/28/6
f 5/29/3 6/30/3 2/31/3 1/32/3
f 21/33/5 22/34/5 9/35/5 10/36/5
f 10/37/6 9/38/6 11/39/6 12/40/6
f 12/41/3 23/42/3 19/43/3 16/44/3
f 12/41/3 11/10/3 24/9/3 23/42/3
f 17/45/1 22/46/1 24/47/1 20/48/1
f 14/49/5 18/50/5 21/33/5 10/36/5
f 14/51/1 10/52/1 12/53/1 16/54/1
f 17/55/5 13/56/5 9/35/5 22/34/5
f 22/57/4 21/58/4 23/59/4 24/60/4
f 21/61/2 18/62/2 19/63/2 23/64/2
