# Wavefront Obj file
# 
# verts: 20 uv-s: 60
mtllib painting.mtl

g object_static_painting_lowPoly_Cube
#pivot 0.000000 0.000000 0.000000

v 0.046130 -1.190141 -1.745854
v 0.046130 -1.190141 1.745854
v -0.033042 1.190141 1.745855
v -0.033042 1.190141 -1.745853
v 0.046130 1.190141 -1.745853
v 0.046130 1.190141 1.745855
v -0.033042 -1.190141 1.745854
v -0.033042 -1.190141 -1.745854
v 0.043107 0.940141 -1.495853
v 0.043107 0.940141 1.495855
v 0.043107 -0.940141 -1.495853
v 0.043107 -0.940141 1.495853
v 0.086083 0.940141 1.495855
v 0.086083 0.940141 -1.495853
v 0.086083 -0.940141 1.495853
v 0.086083 -0.940141 -1.495853
v 0.086083 -1.002365 -1.558077
v 0.086083 -1.002365 1.558077
v 0.086083 1.002365 1.558079
v 0.086083 1.002365 -1.558077
# 20 positions

vt 0.157424 0.696798
vt 0.804764 0.697021
vt 0.804792 0.708320
vt 0.157452 0.708097
vt 0.746598 0.022431
vt 0.746598 0.470894
vt 0.736348 0.470894
vt 0.736348 0.022431
vt 0.759971 0.470894
vt 0.759971 0.022431
vt 0.770221 0.022431
vt 0.770221 0.470894
vt 0.722976 0.022431
vt 0.722975 0.470900
vt 0.009419 0.470900
vt 0.009419 0.022431
vt 0.797436 0.499116
vt 0.842223 0.544904
vt 0.009419 0.544905
vt 0.054206 0.499114
vt 0.990214 0.683426
vt 0.157424 0.683426
vt 0.157424 0.664543
vt 0.990214 0.664541
vt 0.855597 0.618908
vt 0.855597 0.051185
vt 0.874481 0.051185
vt 0.874480 0.618908
vt 0.804796 0.732992
vt 0.157456 0.732991
vt 0.157424 0.721692
vt 0.804764 0.721693
vt 0.906736 0.051185
vt 0.906736 0.618908
vt 0.887853 0.618908
vt 0.887853 0.051185
vt 0.212784 0.849751
vt 0.690937 0.849751
vt 0.735724 0.895540
vt 0.167997 0.895541
vt 0.212784 0.806697
vt 0.690936 0.806696
vt 0.676094 0.821538
vt 0.227625 0.821537
vt 0.797438 0.604066
vt 0.782597 0.618907
vt 0.069048 0.618908
vt 0.054206 0.604066
vt 0.157424 0.632280
vt 0.990166 0.632286
vt 0.990166 0.651168
vt 0.157424 0.651169
vt 0.842225 0.558277
vt 0.009419 0.558277
vt 0.167997 0.760907
vt 0.735722 0.760907
vt 0.227624 0.834911
vt 0.676096 0.834910
vt 0.782595 0.484275
vt 0.069048 0.484272
# 60 texture coordinates

vn 0.000000 1.000000 0.000000
vn 0.000000 -0.000000 1.000000
vn 0.000000 0.000001 -1.000000
vn 1.000000 0.000000 0.000000
vn 0.978105 0.208111 0.000000
vn 0.000000 -1.000000 0.000000
vn 0.978105 -0.000000 0.208110
vn 0.978105 -0.208111 0.000000
vn 0.978105 0.000000 -0.208111
# 9 normals

usemtl Material.003
f 15/1/1 16/2/1 11/3/1 12/4/1
f 16/5/2 14/6/2 9/7/2 11/8/2
f 13/9/3 15/10/3 12/11/3 10/12/3
f 11/13/4 9/14/4 10/15/4 12/16/4
f 20/17/5 5/18/5 6/19/5 19/20/5
f 1/21/6 2/22/6 7/23/6 8/24/6
f 5/25/3 1/26/3 8/27/3 4/28/3
f 14/29/6 13/30/6 10/31/6 9/32/6
f 2/33/2 6/34/2 3/35/2 7/36/2
f 18/37/7 19/38/7 6/39/7 2/40/7
f 17/41/4 20/42/4 14/43/4 16/44/4
f 17/45/4 16/46/4 15/47/4 18/48/4
f 6/49/1 5/50/1 4/51/1 3/52/1
f 1/53/8 17/45/8 18/48/8 2/54/8
f 1/55/9 5/56/9 20/42/9 17/41/9
f 15/57/4 13/58/4 19/38/4 18/37/4
f 14/59/4 20/17/4 19/20/4 13/60/4

# 17 faces
