# Blender v2.79 (sub 0) OBJ File: 'painting_collider.blend'
# www.blender.org
mtllib painting_collider.mtl
o object_static_painting_collider_Cube
v 0.046130 -1.190141 -1.745854
v 0.046130 -1.190141 1.745854
v -0.033042 1.190141 1.745855
v -0.033042 1.190141 -1.745853
v 0.046130 1.190141 -1.745853
v 0.046130 1.190141 1.745855
v -0.033042 -1.190141 1.745854
v -0.033042 -1.190141 -1.745854
v 0.086083 -1.002365 -1.558077
v 0.086083 -1.002365 1.558077
v 0.086083 1.002365 1.558079
v 0.086083 1.002365 -1.558077
vt 0.722976 0.022431
vt 0.722975 0.470900
vt 0.009419 0.470900
vt 0.009419 0.022431
vt 0.797436 0.499116
vt 0.842223 0.544904
vt 0.009419 0.544905
vt 0.054206 0.499114
vt 0.990214 0.683426
vt 0.157424 0.683426
vt 0.157424 0.664543
vt 0.990214 0.664541
vt 0.855597 0.618908
vt 0.855597 0.051185
vt 0.874481 0.051185
vt 0.874480 0.618908
vt 0.906736 0.051185
vt 0.906736 0.618908
vt 0.887853 0.618908
vt 0.887853 0.051185
vt 0.212784 0.849751
vt 0.690937 0.849751
vt 0.735724 0.895540
vt 0.167997 0.895541
vt 0.157424 0.632280
vt 0.990166 0.632286
vt 0.990166 0.651168
vt 0.157424 0.651169
vt 0.842225 0.558277
vt 0.797438 0.604066
vt 0.054206 0.604066
vt 0.009419 0.558277
vt 0.167997 0.760907
vt 0.735722 0.760907
vt 0.690936 0.806696
vt 0.212784 0.806697
vn 1.0000 0.0000 0.0000
vn 0.9781 0.2081 0.0000
vn 0.0000 -1.0000 0.0000
vn 0.0000 0.0000 -1.0000
vn 0.0000 -0.0000 1.0000
vn 0.9781 -0.0000 0.2081
vn 0.0000 1.0000 -0.0000
vn 0.9781 -0.2081 0.0000
vn 0.9781 0.0000 -0.2081
usemtl None
s off
f 9/1/1 12/2/1 11/3/1 10/4/1
f 12/5/2 5/6/2 6/7/2 11/8/2
f 1/9/3 2/10/3 7/11/3 8/12/3
f 5/13/4 1/14/4 8/15/4 4/16/4
f 2/17/5 6/18/5 3/19/5 7/20/5
f 10/21/6 11/22/6 6/23/6 2/24/6
f 6/25/7 5/26/7 4/27/7 3/28/7
f 1/29/8 9/30/8 10/31/8 2/32/8
f 1/33/9 5/34/9 12/35/9 9/36/9
