# Blender v2.79 (sub 0) OBJ File: 'hallwayDoorWall_collider.blend'
# www.blender.org
mtllib hallwayDoorWall_collider.mtl
o object_static_hallwayDoorPart_Cube.001
v -3.325250 -4.122381 0.599924
v -3.325250 -3.821563 0.479925
v -3.325250 -3.747039 0.359926
v -3.325250 8.918659 0.359926
v -3.325250 -4.641397 0.599924
v 3.690799 -4.122381 0.599924
v 3.690799 -3.821563 0.479925
v 3.690799 -3.747039 0.359926
v 3.690799 -4.641397 0.599924
v 3.690799 8.918659 0.359926
v -7.473372 10.555402 0.359926
v -3.325250 0.758600 0.359926
v 3.690799 0.758600 0.359926
v -3.325250 0.358601 0.359926
v 3.690799 0.358601 0.359926
v 7.069353 0.108602 0.359926
v -6.730645 0.108602 0.359926
v 7.069353 -3.497040 0.359926
v -6.730645 -3.497040 0.359926
v -4.030648 0.108602 0.359926
v -4.030648 -3.497040 0.359926
v 4.369354 0.108602 0.359926
v 4.369354 -3.497040 0.359926
v 3.690799 0.758600 0.609926
v -3.325250 0.758600 0.609926
v -3.325250 0.358601 0.609926
v 3.690799 0.358601 0.609926
v -6.680645 -3.447040 0.479937
v -6.680645 0.058600 0.479937
v -4.080648 0.058600 0.479937
v 7.019354 0.058600 0.479937
v 7.019354 -3.447040 0.479937
v -4.080648 -3.447040 0.479937
v 4.419353 0.058600 0.479937
v 4.419353 -3.447040 0.479937
v -7.473372 10.555402 0.508732
v 7.812079 10.555402 0.508732
v -7.473372 11.364923 1.083561
v 7.812079 11.364923 1.083561
v -7.473372 11.519071 1.083561
v 7.812079 11.519071 1.083561
v -7.473372 -3.747040 0.359926
v -7.473372 -3.821564 0.479925
v -7.473372 -4.122381 0.599924
v -7.473372 -4.641397 0.599924
v -7.473372 0.758600 0.359926
v -7.473372 0.358600 0.359926
v -7.473372 0.358600 0.609926
v -7.473372 0.758600 0.609926
v 7.812079 -3.747040 0.359926
v 7.812079 -3.821564 0.479925
v 7.812079 -4.122381 0.599924
v 7.812079 -4.641397 0.599924
v 7.812079 0.758600 0.359926
v 7.812079 0.358601 0.359926
v 7.812079 0.758600 0.609926
v 7.812079 0.358601 0.609926
v 7.812079 10.555402 0.359926
vt 0.655003 0.838547
vt 0.449769 0.838546
vt 0.449769 0.832142
vt 0.655003 0.832142
vt 0.218838 0.013217
vt 0.218839 0.416961
vt 0.013598 0.497944
vt 0.013597 0.013218
vt 0.497698 0.372037
vt 0.292459 0.372037
vt 0.292459 0.365048
vt 0.497698 0.365048
vt 0.218837 0.743741
vt 0.013597 0.743741
vt 0.013597 0.718061
vt 0.218837 0.718061
vt 0.292459 0.323330
vt 0.497700 0.323330
vt 0.497700 0.335700
vt 0.292459 0.335700
vt 0.793362 0.191615
vt 0.793424 0.013217
vt 0.799855 0.015693
vt 0.799796 0.189143
vt 0.784873 0.200106
vt 0.784811 0.378506
vt 0.778380 0.376030
vt 0.778439 0.202578
vt 0.565978 0.416960
vt 0.769890 0.497942
vt 0.497701 0.274078
vt 0.497701 0.293869
vt 0.293788 0.293869
vt 0.293788 0.274078
vt 0.442607 0.823652
vt 0.237366 0.823652
vt 0.237366 0.811283
vt 0.442607 0.811283
vt 0.183936 0.697202
vt 0.218837 0.709572
vt 0.013597 0.709572
vt 0.050346 0.697202
vt 0.327362 0.040651
vt 0.327362 0.219050
vt 0.293788 0.231420
vt 0.293788 0.028281
vt 0.218837 0.752230
vt 0.218837 0.772021
vt 0.013597 0.772021
vt 0.013597 0.752230
vt 0.451096 0.811283
vt 0.584685 0.811283
vt 0.582211 0.817716
vt 0.453570 0.817716
vt 0.218837 0.506433
vt 0.183936 0.518803
vt 0.050346 0.518803
vt 0.013597 0.506433
vt 0.292459 0.344189
vt 0.496373 0.344189
vt 0.496373 0.356558
vt 0.292459 0.356558
vt 0.497700 0.028281
vt 0.460952 0.040651
vt 0.147187 0.838287
vt 0.013597 0.838287
vt 0.016071 0.831855
vt 0.144713 0.831855
vt 0.460952 0.219050
vt 0.497700 0.231420
vt 0.366009 0.545559
vt 0.366009 0.719011
vt 0.237366 0.719011
vt 0.237366 0.545559
vt 0.497700 0.265589
vt 0.293788 0.265589
vt 0.293788 0.239909
vt 0.497700 0.239909
vt 0.217507 0.808472
vt 0.013597 0.808471
vt 0.013597 0.801482
vt 0.217507 0.801483
vt 0.769890 0.013218
vt 0.565978 0.013218
vt 0.217508 0.823366
vt 0.013597 0.823366
vt 0.013597 0.816961
vt 0.217508 0.816961
vt 0.503141 0.545559
vt 0.503141 0.719011
vt 0.374498 0.719011
vt 0.374498 0.545559
vt 0.441280 0.844511
vt 0.237366 0.844511
vt 0.237366 0.832142
vt 0.441280 0.832142
vt 0.793362 0.378500
vt 0.793424 0.200104
vt 0.799855 0.202580
vt 0.799796 0.376028
vt 0.511630 0.560481
vt 0.645220 0.560481
vt 0.642746 0.566914
vt 0.514104 0.566914
vt 0.645220 0.551992
vt 0.511630 0.551992
vt 0.514104 0.545559
vt 0.642746 0.545559
vt 0.784873 0.013217
vt 0.784811 0.191617
vt 0.778380 0.189141
vt 0.778439 0.015689
vt 0.237366 0.766324
vt 0.993652 0.766324
vt 0.993652 0.773686
vt 0.237366 0.773686
vt 0.237366 0.727500
vt 0.993390 0.727500
vt 0.993390 0.739613
vt 0.237366 0.739613
vt 0.237366 0.751005
vt 0.991474 0.751016
vt 0.991474 0.757834
vt 0.237366 0.757834
vn -0.0000 0.3705 0.9288
vn 0.0000 0.0000 1.0000
vn -0.0000 0.8495 0.5276
vn 0.0000 -1.0000 0.0000
vn -0.9231 0.0000 0.3846
vn 0.9231 0.0000 0.3846
vn 0.0000 1.0000 0.0000
vn 0.0000 -0.9231 0.3846
vn 0.0000 0.9231 0.3846
vn 0.0000 -0.5790 0.8154
usemtl None
s off
f 2/1/1 43/2/1 44/3/1 1/4/1
f 12/5/2 4/6/2 11/7/2 46/8/2
f 3/9/3 42/10/3 43/11/3 2/12/3
f 1/13/2 44/14/2 45/15/2 5/16/2
f 47/17/4 14/18/4 26/19/4 48/20/4
f 22/21/5 23/22/5 35/23/5 34/24/5
f 18/25/6 16/26/6 31/27/6 32/28/6
f 4/6/2 10/29/2 58/30/2 11/7/2
f 57/31/2 56/32/2 24/33/2 27/34/2
f 12/35/7 46/36/7 49/37/7 25/38/7
f 20/39/2 14/40/2 47/41/2 17/42/2
f 23/43/2 22/44/2 15/45/2 8/46/2
f 26/47/2 25/48/2 49/49/2 48/50/2
f 19/51/8 21/52/8 33/53/8 28/54/8
f 3/55/2 21/56/2 19/57/2 42/58/2
f 3/55/2 14/40/2 20/39/2 21/56/2
f 15/59/4 55/60/4 57/61/4 27/62/4
f 50/63/2 18/64/2 23/43/2 8/46/2
f 16/65/9 22/66/9 34/67/9 31/68/9
f 16/69/2 55/70/2 15/45/2 22/44/2
f 32/71/2 31/72/2 34/73/2 35/74/2
f 52/75/2 6/76/2 9/77/2 53/78/2
f 50/79/3 8/80/3 7/81/3 51/82/3
f 54/83/2 58/30/2 10/29/2 13/84/2
f 51/85/1 7/86/1 6/87/1 52/88/1
f 33/89/2 30/90/2 29/91/2 28/92/2
f 54/93/7 13/94/7 24/95/7 56/96/7
f 17/97/5 19/98/5 28/99/5 29/100/5
f 23/101/8 18/102/8 32/103/8 35/104/8
f 20/105/9 17/106/9 29/107/9 30/108/9
f 21/109/6 20/110/6 30/111/6 33/112/6
f 11/113/4 58/114/4 37/115/4 36/116/4
f 36/117/10 37/118/10 39/119/10 38/120/10
f 38/121/2 39/122/2 41/123/2 40/124/2
f 19/57/2 17/42/2 47/41/2 42/58/2
f 16/69/2 18/64/2 50/63/2 55/70/2
