# Blender v2.79 (sub 0) OBJ File: 'deskLamp_collider.blend'
# www.blender.org
mtllib deskLamp_collider.mtl
o object_static_deskLamp_collider_Cylinder
v -0.191786 6.605430 -0.016609
v -0.000000 0.056116 -0.129126
v -0.000000 0.342815 -0.129126
v 0.129126 0.056116 0.000000
v -0.000000 0.056116 0.129126
v -0.000000 0.342815 0.129126
v -0.129126 0.056116 -0.000000
v 0.087134 5.663386 1.652393
v -0.000000 5.663386 1.565259
v -0.000000 5.663386 1.739526
v -0.087134 5.663386 1.652393
v 0.087134 5.900661 1.630758
v -0.000000 5.883984 1.545235
v -0.000000 5.917337 1.716281
v -0.087134 5.900661 1.630758
v 0.087134 6.101933 1.495892
v -0.000000 6.026473 1.452325
v -0.000000 6.177392 1.539459
v -0.087134 6.101933 1.495892
v 0.129126 0.342815 0.000000
v -0.129126 0.342815 -0.000000
v -0.191786 7.100434 -0.016609
v -0.191786 7.100434 0.426301
v -0.191786 6.605430 0.426301
v -0.000000 6.868549 0.394530
v -0.000000 6.717629 0.307396
v -0.087134 6.793089 0.350963
v 0.087134 6.793089 0.350963
v -0.000000 6.946918 -1.562050
v 0.000000 6.897225 -2.067845
v 0.915311 6.586657 -1.850383
v 1.372853 5.501842 -1.803864
v 1.294445 5.836879 -1.325382
v 0.915311 5.087100 -0.800381
v 0.000000 4.377266 -1.016428
v 0.000000 4.776531 -0.582919
v -0.915310 5.087100 -0.800381
v -1.294445 5.836879 -1.325382
v -0.970753 6.297038 -2.360665
v -0.915310 6.586658 -1.850383
v 0.738953 6.696188 -1.386487
v 1.045038 6.090872 -0.962641
v 0.738953 5.485558 -0.538795
v 0.000000 5.234828 -0.363232
v -0.738953 5.485558 -0.538795
v -1.045038 6.090872 -0.962641
v -0.738953 6.696188 -1.386487
v -0.000000 6.841478 -1.068192
v 0.471945 6.681345 -0.956066
v 0.667431 6.294750 -0.685369
v 0.471945 5.908154 -0.414672
v 0.000000 5.748022 -0.302546
v -0.471945 5.908154 -0.414672
v -0.667431 6.294750 -0.685369
v -0.471945 6.681345 -0.956066
v 0.191786 7.100434 -0.016609
v 0.191786 6.605430 -0.016609
v 0.191786 7.100434 0.426301
v 0.191786 6.605430 0.426301
v 0.666765 -0.199224 -0.667144
v 0.000000 -0.199224 -0.943327
v 0.000000 -0.354712 -1.092618
v 0.000000 -0.199224 -1.092618
v 0.772329 -0.354712 -0.772709
v 0.772329 -0.199224 -0.772709
v 1.092239 -0.354712 -0.000379
v 1.092239 -0.199224 -0.000379
v 0.772329 -0.354712 0.771950
v 0.772329 -0.199224 0.771950
v -0.000000 -0.354712 1.091859
v -0.000000 -0.199224 1.091859
v -0.772330 -0.354712 0.771950
v -0.772330 -0.199224 0.771950
v -1.092239 -0.354712 -0.000379
v -1.092239 -0.199224 -0.000379
v -0.772330 -0.354712 -0.772709
v -0.772330 -0.199224 -0.772709
v 0.942948 -0.199224 -0.000379
v 0.666765 -0.199224 0.666385
v -0.000000 -0.199224 0.942568
v -0.666765 -0.199224 0.666385
v -0.942948 -0.199224 -0.000379
v -0.666765 -0.199224 -0.667144
v 0.576179 0.056116 -0.576559
v 0.000000 0.056116 -0.815220
v 0.814840 0.056116 -0.000379
v 0.576179 0.056116 0.575800
v -0.000000 0.056116 0.814461
v -0.576179 0.056116 0.575800
v -0.814841 0.056116 -0.000379
v -0.576179 0.056116 -0.576559
v 0.360837 5.883611 -0.432455
v -0.394780 6.689718 -0.981160
v -0.394780 5.883611 -0.432455
v 0.360837 6.689718 -0.981160
v 0.970753 4.706647 -1.247063
v -0.970753 4.706646 -1.247062
v -1.372853 5.501842 -1.803864
v 0.000000 6.626417 -2.591300
v 0.970753 6.297036 -2.360665
vt 0.967204 0.029946
vt 0.979921 0.027221
vt 0.979787 0.615253
vt 0.966700 0.615912
vt 0.000000 0.000000
vt 0.000000 0.000000
vt 0.000000 0.000000
vt 0.000000 0.000000
vt 0.605851 0.326975
vt 0.605851 0.357878
vt 0.586167 0.357878
vt 0.586167 0.326975
vt 0.929057 0.027221
vt 0.941775 0.029946
vt 0.942280 0.615912
vt 0.929192 0.615253
vt 0.566483 0.357878
vt 0.566483 0.326975
vt 0.000000 0.000000
vt 0.000000 0.000000
vt 0.000000 0.000000
vt 0.000000 0.000000
vt 0.546799 0.357878
vt 0.546799 0.326975
vt 0.954490 0.032673
vt 0.954490 0.616612
vt 0.980510 0.641382
vt 0.966595 0.640143
vt 0.527116 0.357878
vt 0.527116 0.326975
vt 0.954490 0.639210
vt 0.968138 0.666704
vt 0.954490 0.669387
vt 0.942385 0.640143
vt 0.928470 0.641382
vt 0.982471 0.663145
vt 0.985051 0.822177
vt 0.970451 0.822591
vt 0.940841 0.666704
vt 0.926509 0.663145
vt 0.954490 0.822910
vt 0.938530 0.822591
vt 0.923929 0.822177
vt 0.256302 0.323649
vt 0.210572 0.316937
vt 0.223086 0.272095
vt 0.256773 0.276443
vt 0.168721 0.298745
vt 0.132912 0.270620
vt 0.165519 0.237458
vt 0.191965 0.258462
vt 0.318741 0.385651
vt 0.302452 0.318078
vt 0.346283 0.302088
vt 0.378070 0.360457
vt 0.322525 0.260414
vt 0.290536 0.272756
vt 0.280771 0.234393
vt 0.302925 0.225421
vt 0.429808 0.324143
vt 0.384015 0.273963
vt 0.413535 0.237321
vt 0.472099 0.275264
vt 0.386510 0.178688
vt 0.372600 0.212087
vt 0.336730 0.191319
vt 0.345786 0.168010
vt 0.434989 0.193794
vt 0.499035 0.216823
vt 0.233601 0.234046
vt 0.257118 0.237306
vt 0.514701 0.155173
vt 0.445019 0.144992
vt 0.444728 0.092996
vt 0.518320 0.090418
vt 0.105181 0.234496
vt 0.086808 0.192455
vt 0.132358 0.178469
vt 0.145257 0.210320
vt 0.193514 0.210180
vt 0.211912 0.224778
vt 0.013223 0.092203
vt 0.079640 0.097316
vt 0.078328 0.146378
vt 0.013223 0.152023
vt 0.350380 0.239594
vt 0.322033 0.210864
vt 0.388897 0.100848
vt 0.392767 0.141804
vt 0.348170 0.141993
vt 0.342694 0.114809
vt 0.024543 0.211236
vt 0.048719 0.267011
vt 0.127700 0.143240
vt 0.132178 0.105599
vt 0.174968 0.118926
vt 0.169461 0.144338
vt 0.085634 0.315996
vt 0.133849 0.354902
vt 0.171347 0.168842
vt 0.179645 0.191170
vt 0.190923 0.380889
vt 0.253851 0.391663
vt 0.000000 0.000000
vt 0.000000 0.000000
vt 0.000000 0.000000
vt 0.000000 0.000000
vt 0.000000 0.000000
vt 0.000000 0.000000
vt 0.000000 0.000000
vt 0.000000 0.000000
vt 0.000000 0.000000
vt 0.000000 0.000000
vt 0.000000 0.000000
vt 0.000000 0.000000
vt 0.000000 0.000000
vt 0.000000 0.000000
vt 0.000000 0.000000
vt 0.000000 0.000000
vt 0.000000 0.000000
vt 0.000000 0.000000
vt 0.000000 0.000000
vt 0.000000 0.000000
vt 0.000000 0.000000
vt 0.000000 0.000000
vt 0.000000 0.000000
vt 0.000000 0.000000
vt 0.000000 0.000000
vt 0.000000 0.000000
vt 0.000000 0.000000
vt 0.000000 0.000000
vt 0.000000 0.000000
vt 0.000000 0.000000
vt 0.000000 0.000000
vt 0.000000 0.000000
vt 0.000000 0.000000
vt 0.000000 0.000000
vt 0.000000 0.000000
vt 0.000000 0.000000
vn 0.6898 0.2197 -0.6898
vn 1.0000 0.0000 0.0000
vn 0.7071 0.0000 -0.7071
vn -0.6898 0.2197 -0.6898
vn 0.7071 0.0000 0.7071
vn 0.0000 0.0000 1.0000
vn -1.0000 0.0000 0.0000
vn -0.7071 0.0000 0.7071
vn -0.6914 -0.2093 0.6914
vn 0.7055 -0.0642 -0.7058
vn -0.7071 0.0000 -0.7071
vn 0.6914 -0.2093 0.6914
vn 0.6730 0.4141 0.6129
vn -0.7055 0.0645 0.7058
vn 0.7055 0.0645 0.7058
vn -0.7055 -0.0642 -0.7058
vn 0.7070 -0.6054 -0.3655
vn -0.6729 -0.4086 -0.6167
vn 0.6729 -0.4086 -0.6167
vn -0.6730 0.4141 0.6129
vn -0.7070 0.6054 0.3655
vn 0.7070 0.6054 0.3655
vn -0.7070 -0.6054 -0.3655
vn -0.3395 0.9361 -0.0920
vn -0.8196 0.5428 0.1834
vn 0.3798 0.8216 -0.4251
vn 0.2716 0.9412 0.2009
vn 0.9169 0.3817 -0.1170
vn 0.6459 0.1910 0.7392
vn 0.8196 -0.0133 0.5728
vn 0.9169 -0.2405 0.3186
vn 0.3395 0.9361 -0.0920
vn -0.2716 0.9412 0.2009
vn 0.3798 -0.6805 0.6267
vn -0.8196 -0.0133 0.5728
vn -0.6516 0.6277 0.4259
vn -0.3798 -0.6805 0.6267
vn 0.6516 0.6277 0.4259
vn 0.2659 -0.1132 0.9573
vn -0.9169 -0.2405 0.3186
vn -0.2659 -0.1132 0.9573
vn -0.3395 -0.4066 0.8482
vn 0.3395 -0.4066 0.8482
vn -0.9169 0.3817 -0.1170
vn 0.8196 0.5428 0.1834
vn -0.6459 0.1910 0.7392
vn -0.3798 0.8216 -0.4251
vn 0.0000 0.5736 0.8192
vn -0.0000 -0.5736 -0.8192
vn -0.3472 0.4205 0.8382
vn 0.0000 1.0000 0.0000
vn 0.3827 0.0000 -0.9239
vn 0.3472 0.4205 -0.8382
vn 0.9239 0.0000 -0.3827
vn 0.8382 0.4205 -0.3472
vn 0.9239 0.0000 0.3827
vn -0.8382 0.4205 0.3472
vn 0.3827 0.0000 0.9239
vn -0.3472 0.4205 -0.8382
vn -0.3827 0.0000 0.9239
vn -0.9239 0.0000 0.3827
vn 0.8382 0.4205 0.3472
vn -0.9239 0.0000 -0.3827
vn -0.8382 0.4205 -0.3472
vn -0.3827 0.0000 -0.9239
vn 0.0000 -1.0000 0.0000
vn 0.3472 0.4205 0.8382
vn 0.0000 0.9201 -0.3918
vn 0.0000 -0.4992 0.8665
vn 0.9811 0.0753 0.1785
vn -0.9730 0.0897 0.2126
usemtl None
s off
f 20/1/1 3/2/1 9/3/1 8/4/1
f 57/5/2 56/6/2 58/7/2 59/8/2
f 2/9/3 3/10/3 20/11/3 4/12/3
f 3/13/4 21/14/4 11/15/4 9/16/4
f 4/12/5 20/11/5 6/17/5 5/18/5
f 59/8/6 58/7/6 23/19/6 24/20/6
f 24/20/7 23/19/7 22/21/7 1/22/7
f 5/18/8 6/17/8 21/23/8 7/24/8
f 21/14/9 6/25/9 10/26/9 11/15/9
f 8/4/10 9/3/10 13/27/10 12/28/10
f 7/24/11 21/23/11 3/29/11 2/30/11
f 6/25/12 20/1/12 8/4/12 10/26/12
f 14/31/13 12/28/13 16/32/13 18/33/13
f 11/15/14 10/26/14 14/31/14 15/34/14
f 10/26/15 8/4/15 12/28/15 14/31/15
f 9/16/16 11/15/16 15/34/16 13/35/16
f 16/32/17 17/36/17 26/37/17 28/38/17
f 13/35/18 15/34/18 19/39/18 17/40/18
f 12/28/19 13/27/19 17/36/19 16/32/19
f 15/34/20 14/31/20 18/33/20 19/39/20
f 19/39/21 18/33/21 25/41/21 27/42/21
f 18/33/22 16/32/22 28/38/22 25/41/22
f 17/40/23 19/39/23 27/42/23 26/43/23
f 30/44/24 40/45/24 47/46/24 29/47/24
f 40/48/25 38/49/25 46/50/25 47/51/25
f 99/52/26 30/53/26 31/54/26 100/55/26
f 41/56/27 29/57/27 48/58/27 49/59/27
f 100/60/28 31/61/28 33/62/28 32/63/28
f 43/64/29 42/65/29 50/66/29 51/67/29
f 34/68/30 33/62/30 42/65/30 43/64/30
f 32/63/31 33/62/31 34/68/31 96/69/31
f 31/54/32 30/53/32 29/57/32 41/56/32
f 29/47/33 47/46/33 55/70/33 48/71/33
f 96/72/34 34/73/34 36/74/34 35/75/34
f 38/76/35 37/77/35 45/78/35 46/79/35
f 47/51/36 46/50/36 54/80/36 55/81/36
f 35/82/37 36/83/37 37/84/37 97/85/37
f 42/65/38 41/86/38 49/87/38 50/66/38
f 44/88/39 43/89/39 51/90/39 52/91/39
f 97/92/40 37/77/40 38/76/40 98/93/40
f 45/94/41 44/95/41 52/96/41 53/97/41
f 37/84/42 36/83/42 44/95/42 45/94/42
f 36/74/43 34/73/43 43/89/43 44/88/43
f 98/98/44 38/49/44 40/48/44 39/99/44
f 33/62/45 31/61/45 41/86/45 42/65/45
f 46/79/46 45/78/46 53/100/46 54/101/46
f 39/102/47 40/45/47 30/44/47 99/103/47
f 48/71/48 55/81/48 54/101/48 53/97/48 52/91/48 51/67/48 50/66/48 49/59/48
f 96/72/49 35/82/49 97/92/49 98/98/49 39/102/49 99/52/49 100/60/49 32/63/49
f 81/104/50 80/105/50 88/106/50 89/107/50
f 65/108/51 63/109/51 61/110/51 60/111/51
f 62/112/52 63/109/52 65/108/52 64/113/52
f 60/111/53 61/110/53 85/114/53 84/115/53
f 75/116/51 73/117/51 81/104/51 82/118/51
f 64/113/54 65/108/54 67/119/54 66/120/54
f 78/121/55 60/111/55 84/115/55 86/122/55
f 67/119/51 65/108/51 60/111/51 78/121/51
f 66/120/56 67/119/56 69/123/56 68/124/56
f 82/118/57 81/104/57 89/107/57 90/125/57
f 73/117/51 71/126/51 80/105/51 81/104/51
f 68/124/58 69/123/58 71/126/58 70/127/58
f 61/110/59 83/128/59 91/129/59 85/114/59
f 63/109/51 77/130/51 83/128/51 61/110/51
f 70/127/60 71/126/60 73/117/60 72/131/60
f 84/115/51 85/114/51 91/129/51 90/125/51 89/107/51 88/106/51 87/132/51 86/122/51
f 71/126/51 69/123/51 79/133/51 80/105/51
f 72/131/61 73/117/61 75/116/61 74/134/61
f 77/130/51 75/116/51 82/118/51 83/128/51
f 79/133/62 78/121/62 86/122/62 87/132/62
f 74/134/63 75/116/63 77/130/63 76/135/63
f 83/128/64 82/118/64 90/125/64 91/129/64
f 69/123/51 67/119/51 78/121/51 79/133/51
f 76/135/65 77/130/65 63/109/65 62/112/65
f 62/112/66 64/113/66 66/120/66 68/124/66 70/127/66 72/131/66 74/134/66 76/135/66
f 80/105/67 79/133/67 87/132/67 88/106/67
f 1/22/66 57/5/66 59/8/66 24/20/66
f 56/6/51 22/21/51 23/19/51 58/7/51
f 22/21/68 56/6/68 95/136/68 93/137/68
f 57/5/69 1/22/69 94/138/69 92/139/69
f 56/6/70 57/5/70 92/139/70 95/136/70
f 1/22/71 22/21/71 93/137/71 94/138/71
