# Blender v2.79 (sub 0) OBJ File: 'woodenBoard.blend'
# www.blender.org
mtllib woodenBoard.mtl
o object_static_woodenBoard_Cube.002
v -4.021744 -0.236891 1.219609
v -4.021744 0.616605 1.219609
v -4.021744 -0.236891 1.091732
v -4.021744 0.616605 1.091732
v 4.161704 -0.236891 1.219609
v 4.161704 0.616605 1.219609
v 4.161704 -0.236891 1.091732
v 4.161704 0.616605 1.091732
vt 0.051585 0.300574
vt 0.051585 0.403426
vt 0.036175 0.403426
vt 0.036175 0.300574
vt 0.006922 0.109774
vt 0.006922 0.006922
vt 0.993078 0.006922
vt 0.993078 0.109774
vt 0.022332 0.300574
vt 0.022332 0.403426
vt 0.006922 0.403426
vt 0.006922 0.300574
vt 0.993078 0.123617
vt 0.993078 0.226469
vt 0.006922 0.226469
vt 0.006922 0.123617
vt 0.006922 0.240314
vt 0.940005 0.240312
vt 0.940033 0.256599
vt 0.006950 0.256601
vt 0.940033 0.286731
vt 0.006950 0.286731
vt 0.006922 0.270444
vt 0.940005 0.270444
vn -1.0000 0.0000 0.0000
vn 0.0000 0.0000 -1.0000
vn 1.0000 0.0000 0.0000
vn 0.0000 0.0000 1.0000
vn 0.0000 -1.0000 0.0000
vn 0.0000 1.0000 0.0000
usemtl Material.001
s off
f 1/1/1 2/2/1 4/3/1 3/4/1
f 3/5/2 4/6/2 8/7/2 7/8/2
f 7/9/3 8/10/3 6/11/3 5/12/3
f 5/13/4 6/14/4 2/15/4 1/16/4
f 3/17/5 7/18/5 5/19/5 1/20/5
f 8/21/6 4/22/6 2/23/6 6/24/6
