# Blender v2.79 (sub 0) OBJ File: 'rumGlass.blend'
# www.blender.org
mtllib rumGlass.mtl
o object_static_rumGlass_Cylinder.001
v -0.825367 -0.975898 -0.825367
v 0.000000 1.000000 -1.000000
v -1.000000 -0.975898 -0.000000
v 0.825367 1.000000 -0.825367
v -0.825367 -0.975898 0.825367
v 1.000000 1.000000 0.000000
v -0.000000 -0.975898 1.000000
v 0.825367 1.000000 0.825367
v 0.825367 -0.975898 0.825367
v -0.000000 1.000000 1.000000
v 1.000000 -0.975898 0.000000
v -0.825367 1.000000 0.825367
v 0.825367 -0.975898 -0.825367
v -1.000000 1.000000 -0.000000
v 0.000000 -0.975898 -1.000000
v -0.825367 1.000000 -0.825367
v -0.000000 1.000000 -0.946889
v 0.781531 1.000000 -0.781531
v 0.946889 1.000000 0.000000
v 0.781531 1.000000 0.781531
v -0.000000 1.000000 0.946889
v -0.781531 1.000000 0.781531
v -0.946889 1.000000 -0.000000
v -0.781531 1.000000 -0.781531
v -0.000000 -0.496886 -0.946889
v 0.781531 -0.496886 -0.781531
v 0.946889 -0.496886 0.000000
v 0.781531 -0.496886 0.781531
v -0.000000 -0.496886 0.946889
v -0.781531 -0.496886 0.781531
v -0.946889 -0.496886 -0.000000
v -0.781531 -0.496886 -0.781531
v -0.736722 -0.975898 -0.736722
v -0.892600 -0.975898 -0.000000
v -0.736722 -0.975898 0.736722
v -0.000000 -0.975898 0.892600
v 0.736722 -0.975898 0.736722
v 0.892600 -0.975898 0.000000
v 0.736722 -0.975898 -0.736722
v -0.000000 -0.975898 -0.892600
v -0.736722 -0.885934 -0.736722
v -0.892600 -0.885934 -0.000000
v -0.736722 -0.885934 0.736722
v -0.000000 -0.885934 0.892600
v 0.736722 -0.885934 0.736722
v 0.892600 -0.885934 0.000000
v 0.736722 -0.885934 -0.736722
v -0.000000 -0.885934 -0.892600
vt 0.861567 0.269829
vt 0.861567 0.005605
vt 0.974382 0.005605
vt 0.974382 0.269829
vt 0.635938 0.269829
vt 0.635938 0.005605
vt 0.748752 0.005605
vt 0.748752 0.269829
vt 0.071864 0.269829
vt 0.071864 0.005604
vt 0.184679 0.005604
vt 0.184679 0.269829
vt 0.410308 0.269829
vt 0.410308 0.005604
vt 0.523123 0.005605
vt 0.523123 0.269829
vt 0.297493 0.005604
vt 0.297493 0.269829
vt 0.333520 0.528555
vt 0.333519 0.641369
vt 0.326571 0.639899
vt 0.326571 0.533076
vt 0.601606 0.528555
vt 0.601606 0.641369
vt 0.587555 0.638396
vt 0.587555 0.537698
vt 0.071864 0.276261
vt 0.178687 0.276261
vt 0.178687 0.476430
vt 0.071864 0.476430
vt 0.071864 0.586009
vt 0.117557 0.482861
vt 0.122079 0.489810
vt 0.078812 0.587479
vt 0.230372 0.482861
vt 0.228902 0.489809
vt 0.071865 0.698823
vt 0.078813 0.694302
vt 0.287826 0.744516
vt 0.283305 0.737568
vt 0.175012 0.744516
vt 0.176482 0.737568
vt 0.855795 0.526128
vt 0.855795 0.632951
vt 0.812528 0.730620
vt 0.705705 0.730620
vt 0.608037 0.687353
vt 0.608037 0.580530
vt 0.651304 0.482861
vt 0.758127 0.482861
vt 0.285510 0.276261
vt 0.392333 0.276261
vt 0.392333 0.476430
vt 0.285510 0.476430
vt 0.499156 0.276261
vt 0.605979 0.276261
vt 0.605979 0.476430
vt 0.499156 0.476430
vt 0.712802 0.276261
vt 0.819625 0.276261
vt 0.819625 0.476430
vt 0.712802 0.476430
vt 0.926448 0.276261
vt 0.926448 0.476430
vt 0.792062 0.989065
vt 0.691364 0.989066
vt 0.691364 0.977035
vt 0.792062 0.977035
vt 0.443098 0.744516
vt 0.339951 0.698823
vt 0.354001 0.689679
vt 0.446070 0.730465
vt 0.339951 0.586008
vt 0.354001 0.588981
vt 0.555912 0.744516
vt 0.546769 0.730465
vt 0.385644 0.482861
vt 0.394788 0.496912
vt 0.498459 0.482861
vt 0.495486 0.496912
vt 0.841590 0.777837
vt 0.841590 0.878535
vt 0.800804 0.970604
vt 0.700106 0.970604
vt 0.608037 0.929818
vt 0.608037 0.829119
vt 0.648823 0.737051
vt 0.749521 0.737051
vt 0.590667 0.989066
vt 0.489968 0.989066
vt 0.489968 0.977035
vt 0.590667 0.977035
vt 0.389270 0.989066
vt 0.288570 0.989066
vt 0.288570 0.977035
vt 0.389270 0.977035
vt 0.187871 0.989066
vt 0.087173 0.989066
vt 0.087173 0.977035
vt 0.187871 0.977035
vt 0.892760 0.989066
vt 0.892760 0.977035
vn 0.0000 0.6633 -0.7483
vn 0.0000 -0.6633 -0.7483
vn -0.5643 -0.6025 -0.5643
vn -0.5643 0.6025 -0.5643
vn 0.7483 0.6633 0.0000
vn 0.7483 -0.6633 0.0000
vn 0.5643 -0.6025 -0.5643
vn 0.5643 0.6025 -0.5643
vn -0.7483 -0.6633 0.0000
vn -0.7483 0.6633 0.0000
vn 0.0000 0.6633 0.7483
vn 0.0000 -0.6633 0.7483
vn 0.5643 -0.6025 0.5643
vn 0.5643 0.6025 0.5643
vn -0.5643 -0.6025 0.5643
vn -0.5643 0.6025 0.5643
vn -0.6536 0.7568 0.0000
vn -0.3695 0.8525 -0.3695
vn -0.6536 -0.7568 0.0000
vn -0.3695 -0.8525 0.3695
vn 0.3695 0.8525 0.3695
vn 0.6536 0.7568 0.0000
vn 0.3695 0.8525 -0.3695
vn 0.0000 0.7568 -0.6536
vn -0.3695 0.8525 0.3695
vn 0.0000 0.7568 0.6536
vn 0.0000 -0.7568 0.6536
vn 0.3695 -0.8525 -0.3695
vn 0.0000 -0.7568 -0.6536
vn 0.6536 -0.7568 0.0000
vn -0.3695 -0.8525 -0.3695
vn 0.3695 -0.8525 0.3695
usemtl Material.001
s 1
f 2/1/1 15/2/2 1/3/3 16/4/4
f 6/5/5 11/6/6 13/7/7 4/8/8
f 16/9/4 1/10/3 3/11/9 14/12/10
f 10/13/11 7/14/12 9/15/13 8/16/14
f 14/12/10 3/11/9 5/17/15 12/18/16
f 8/16/14 9/15/13 11/6/6 6/5/5
f 8/19/14 6/20/5 19/21/17 20/22/18
f 13/23/7 11/24/6 38/25/19 39/26/20
f 12/18/16 5/17/15 7/14/12 10/13/11
f 4/8/8 13/7/7 15/2/2 2/1/1
f 24/27/21 23/28/22 31/29/5 32/30/14
f 14/31/10 12/32/16 22/33/23 23/34/22
f 10/35/11 8/19/14 20/22/18 21/36/24
f 16/37/4 14/31/10 23/34/22 24/38/21
f 6/20/5 4/39/8 18/40/25 19/21/17
f 12/32/16 10/35/11 21/36/24 22/33/23
f 2/41/1 16/37/4 24/38/21 17/42/26
f 4/39/8 2/41/1 17/42/26 18/40/25
f 26/43/16 25/44/11 32/45/14 31/46/5 30/47/8 29/48/1 28/49/4 27/50/10
f 22/51/23 21/52/24 29/53/1 30/54/8
f 20/55/18 19/56/17 27/57/10 28/58/4
f 18/59/25 17/60/26 25/61/11 26/62/16
f 17/60/26 24/63/21 32/64/14 25/61/11
f 23/28/22 22/51/23 30/54/8 31/29/5
f 21/52/24 20/55/18 28/58/4 29/53/1
f 19/56/17 18/59/25 26/62/16 27/57/10
f 40/65/27 39/66/20 47/67/15 48/68/12
f 7/69/12 5/70/15 35/71/28 36/72/29
f 5/70/15 3/73/9 34/74/30 35/71/28
f 11/24/6 9/75/13 37/76/31 38/25/19
f 9/75/13 7/69/12 36/72/29 37/76/31
f 3/73/9 1/77/3 33/78/32 34/74/30
f 15/79/2 13/23/7 39/26/20 40/80/27
f 1/77/3 15/79/2 40/80/27 33/78/32
f 47/81/15 46/82/9 45/83/3 44/84/2 43/85/7 42/86/6 41/87/13 48/88/12
f 38/89/19 37/90/31 45/91/3 46/92/9
f 36/93/29 35/94/28 43/95/7 44/96/2
f 34/97/30 33/98/32 41/99/13 42/100/6
f 39/66/20 38/89/19 46/92/9 47/67/15
f 37/90/31 36/93/29 44/96/2 45/91/3
f 35/94/28 34/97/30 42/100/6 43/95/7
f 33/101/32 40/65/27 48/68/12 41/102/13
