# Blender v2.79 (sub 0) OBJ File: 'telephone_collider.blend'
# www.blender.org
mtllib telephone_collider.mtl
o object_static_telephone_Cylinder.006
v 0.702630 2.634056 -3.592556
v 0.287529 2.634056 -3.592556
v 0.702630 3.049157 -3.592556
v 0.287529 3.049157 -3.592556
v 0.287529 3.049157 -2.508497
v 0.702630 3.049157 -2.508497
v 0.287529 2.634056 -2.508497
v 0.702630 2.634056 -2.508497
v 0.419770 4.198145 -1.967923
v 0.419770 4.416581 -1.967923
v 0.419770 4.198145 -2.338467
v 0.579187 4.198145 -1.967923
v 0.579186 4.416580 -1.967923
v 0.579187 4.198145 -2.338467
v 0.419770 4.416581 -2.422091
v 0.579187 4.416580 -2.422091
v 0.579186 2.943179 -2.422091
v 0.419770 2.943179 -2.422091
v 0.579187 2.747987 -2.338467
v 0.419770 2.747987 -2.338467
v 0.579187 2.747987 -2.508497
v 0.419770 2.747987 -2.508497
v 0.579187 2.943179 -2.508497
v 0.419770 2.943179 -2.508497
v -0.320288 -0.400787 3.191389
v -0.320289 6.559086 2.723948
v -0.320288 -0.400787 -3.190521
v 0.282238 6.559086 -2.723081
v -0.320289 6.559086 -2.723080
v 0.282238 0.234972 2.723948
v 0.282238 0.234972 -2.723081
v 0.282238 -0.400787 -3.190521
v 0.282238 6.559086 2.723948
v -0.320289 0.234972 -2.723080
v -0.320289 0.234972 2.723948
v 0.282239 -4.713855 -3.190521
v -0.320287 -4.713855 3.191389
v -0.320288 -4.713855 -3.190521
v 0.282238 -0.400787 3.191389
v 0.282239 -4.713855 3.191389
v 0.837382 5.948931 -1.965794
v 0.837382 0.018749 -1.965795
v 0.837382 0.018749 1.876172
v 0.837382 5.948931 1.876172
v 0.282239 -1.651042 2.746370
v 0.282239 -1.651042 -2.863014
v 2.794099 -1.651041 -2.863015
v 2.794099 -1.651041 2.746370
v 0.282239 -1.938753 2.746370
v 0.282239 -1.938753 -2.863014
v 2.794099 -1.938753 -2.863015
v 2.794099 -1.938753 2.746370
v 0.282239 -1.938753 2.366953
v 0.282239 -1.938753 -2.483598
v 2.562387 -1.938753 -2.483598
v 2.562386 -1.938753 2.366953
v 0.282239 -3.486537 2.366953
v 0.282239 -3.486537 -2.483598
v 2.562387 -3.486537 -2.483598
v 2.562387 -3.486537 2.366953
v 0.282238 0.018749 1.876172
v 0.282238 5.948931 1.876172
v 0.282238 0.018749 -1.965795
v 0.282238 5.948931 -1.965794
v -0.313850 -0.717041 4.493437
v -0.313850 5.217858 4.493437
v -0.313850 -0.717041 1.876173
v -0.313850 5.217858 1.876173
v 1.686151 -0.717041 4.493438
v 1.686151 5.217858 4.493438
v 1.686151 -0.717041 1.876173
v 1.686151 5.217858 1.876173
v 0.837382 3.900625 -0.281857
v 0.837382 5.044334 -0.281857
v 0.837382 3.900625 -1.425567
v 0.837382 5.044334 -1.425567
v 1.293741 3.900625 -0.281857
v 1.293741 5.044334 -0.281857
v 1.293741 3.900625 -1.425567
v 1.293741 5.044334 -1.425567
v 0.837382 3.900625 1.327821
v 0.837382 5.044334 1.327821
v 0.837382 3.900625 0.184111
v 0.837382 5.044334 0.184111
v 1.293741 3.900625 1.327821
v 1.293741 5.044334 1.327821
v 1.293741 3.900625 0.184111
v 1.293741 5.044334 0.184111
vt 0.970965 0.719869
vt 0.981950 0.719225
vt 0.981950 0.719225
vt 0.970965 0.719869
vt 0.649169 0.638090
vt 0.658156 0.638090
vt 0.658156 0.638090
vt 0.649169 0.638090
vt 0.979759 0.464612
vt 0.979759 0.455625
vt 0.979759 0.455625
vt 0.979759 0.464612
vt 0.907095 0.855567
vt 0.896434 0.852843
vt 0.896434 0.852843
vt 0.907095 0.855567
vt 0.649169 0.638090
vt 0.658156 0.638090
vt 0.970965 0.719869
vt 0.981950 0.719225
vt 0.907095 0.855567
vt 0.896434 0.852843
vt 0.979759 0.464612
vt 0.979759 0.455625
vt 0.896139 0.809707
vt 0.917027 0.809707
vt 0.917027 0.818694
vt 0.896139 0.818694
vt 0.825517 0.844615
vt 0.814754 0.836999
vt 0.895228 0.857562
vt 0.904722 0.864853
vt 0.887762 0.719869
vt 0.899779 0.714442
vt 0.981388 0.709656
vt 0.970680 0.715006
vt 0.649169 0.633219
vt 0.658156 0.633219
vt 0.231658 0.126223
vt 0.231658 0.092257
vt 0.276142 0.092257
vt 0.276142 0.126223
vt 0.299839 0.124622
vt 0.299839 0.090656
vt 0.344323 0.090656
vt 0.344323 0.124622
vt 0.251703 0.842754
vt 0.251703 0.808787
vt 0.494844 0.808787
vt 0.494844 0.842754
vt 0.344375 0.654251
vt 0.704143 0.654251
vt 0.704143 0.688217
vt 0.344375 0.688217
vt 0.003357 0.819417
vt 0.003357 0.785450
vt 0.246498 0.785450
vt 0.246498 0.819417
vt 0.337660 0.369840
vt 0.337660 0.586424
vt 0.003357 0.586424
vt 0.003357 0.369840
vt 0.344375 0.728899
vt 0.344375 0.694932
vt 0.700884 0.694932
vt 0.700884 0.728899
vt 0.660596 0.511443
vt 0.660595 0.369844
vt 0.660595 0.369844
vt 0.660596 0.511443
vt 0.344375 0.511443
vt 0.344375 0.369840
vt 0.365764 0.369840
vt 0.365764 0.498381
vt 0.344375 0.511443
vt 0.344375 0.369840
vt 0.003357 0.714489
vt 0.310423 0.714490
vt 0.310423 0.748456
vt 0.003357 0.748456
vt 0.163983 0.271653
vt 0.163983 0.143114
vt 0.251237 0.143114
vt 0.251237 0.271653
vt 0.639207 0.498381
vt 0.639207 0.369844
vt 0.344375 0.518158
vt 0.617815 0.518158
vt 0.617815 0.646697
vt 0.344375 0.646697
vt 0.276798 0.680392
vt 0.003357 0.680392
vt 0.003357 0.593138
vt 0.276798 0.593138
vt 0.348581 0.143511
vt 0.348581 0.272050
vt 0.261328 0.272050
vt 0.261328 0.143511
vt 0.344375 0.769580
vt 0.344375 0.735613
vt 0.700884 0.735613
vt 0.700884 0.769580
vt 0.372057 0.077500
vt 0.359868 0.029708
vt 0.395707 0.003357
vt 0.003357 0.336774
vt 0.037754 0.294084
vt 0.372057 0.294084
vt 0.359868 0.336774
vt 0.037754 0.077500
vt 0.003357 0.029708
vt 0.778370 0.003357
vt 0.778370 0.287401
vt 0.645563 0.287401
vt 0.645563 0.003357
vt 0.395707 0.363125
vt 0.638848 0.003357
vt 0.638848 0.363125
vt 0.678677 0.801745
vt 0.344375 0.801745
vt 0.344375 0.776295
vt 0.678677 0.776294
vt 0.219941 0.850117
vt 0.003357 0.850117
vt 0.003357 0.824666
vt 0.219941 0.824666
vt 0.003357 0.685766
vt 0.219941 0.685766
vt 0.219941 0.711216
vt 0.003357 0.711216
vt 0.003357 0.754396
vt 0.337659 0.754395
vt 0.337659 0.779846
vt 0.003357 0.779846
vt 0.808416 0.861805
vt 0.820346 0.864853
vt 0.886263 0.694310
vt 0.898556 0.693589
vt 0.940102 0.118700
vt 0.965705 0.118700
vt 0.965705 0.127687
vt 0.940102 0.127687
vt 0.916236 0.806360
vt 0.916236 0.797374
vt 0.997986 0.797374
vt 0.997986 0.806360
vt 0.970174 0.464612
vt 0.970174 0.455625
vt 0.914926 0.789658
vt 0.914926 0.780671
vt 0.997986 0.780671
vt 0.997986 0.789658
vt 0.000000 0.000000
vt 0.000000 0.000000
vt 0.000000 0.000000
vt 0.000000 0.000000
vt 0.000000 0.000000
vt 0.000000 0.000000
vt 0.000000 0.000000
vt 0.000000 0.000000
vt 0.000000 0.000000
vt 0.000000 0.000000
vt 0.000000 0.000000
vt 0.000000 0.000000
vt 0.000000 0.000000
vt 0.000000 0.000000
vt 0.000000 0.000000
vt 0.000000 0.000000
vt 0.000000 0.000000
vt 0.000000 0.000000
vt 0.000000 0.000000
vt 0.000000 0.000000
vt 0.000000 0.000000
vt 0.000000 0.000000
vt 0.000000 0.000000
vt 0.000000 0.000000
vn 1.0000 0.0000 0.0000
vn 0.0000 1.0000 0.0000
vn -0.0000 -1.0000 0.0000
vn -1.0000 0.0000 -0.0000
vn 0.0000 0.0000 1.0000
vn -0.0000 0.5924 0.8057
vn 0.0000 0.5924 -0.8057
vn -0.0000 -0.0000 -1.0000
usemtl None
s off
f 6/1/1 8/2/1 1/3/1 3/4/1
f 5/5/2 6/6/2 3/7/2 4/8/2
f 8/9/3 7/10/3 2/11/3 1/12/3
f 7/13/4 5/14/4 4/15/4 2/16/4
f 24/17/5 23/18/5 6/6/5 5/5/5
f 23/19/5 21/20/5 8/2/5 6/1/5
f 22/21/5 24/22/5 5/14/5 7/13/5
f 21/23/5 22/24/5 7/10/5 8/9/5
f 9/25/3 11/26/3 14/27/3 12/28/3
f 11/29/4 15/30/4 18/31/4 20/32/4
f 16/33/1 14/34/1 19/35/1 17/36/1
f 20/32/4 18/31/4 24/22/4 22/21/4
f 18/37/2 17/38/2 23/18/2 24/17/2
f 30/39/6 35/40/6 25/41/6 39/42/6
f 34/43/7 31/44/7 32/45/7 27/46/7
f 27/47/8 32/48/8 36/49/8 38/50/8
f 37/51/3 38/52/3 36/53/3 40/54/3
f 39/55/5 25/56/5 37/57/5 40/58/5
f 43/59/1 42/60/1 41/61/1 44/62/1
f 29/63/8 28/64/8 31/65/8 34/66/8
f 51/67/8 50/68/8 46/69/8 47/70/8
f 52/71/3 49/72/3 53/73/3 56/74/3
f 49/72/5 52/71/5 48/75/5 45/76/5
f 52/71/1 51/67/1 47/70/1 48/75/1
f 33/77/2 28/78/2 29/79/2 26/80/2
f 56/81/5 53/82/5 57/83/5 60/84/5
f 51/67/3 52/71/3 56/74/3 55/85/3
f 50/68/3 51/67/3 55/85/3 54/86/3
f 57/87/3 58/88/3 59/89/3 60/90/3
f 55/91/1 56/92/1 60/93/1 59/94/1
f 54/95/8 55/96/8 59/97/8 58/98/8
f 33/99/5 26/100/5 35/101/5 30/102/5
f 61/103/1 30/104/1 39/105/1
f 28/106/1 64/107/1 63/108/1 31/109/1
f 62/110/1 33/111/1 30/104/1 61/103/1
f 28/106/1 33/111/1 62/110/1 64/107/1
f 46/112/2 45/113/2 48/114/2 47/115/2
f 63/108/1 61/103/1 39/105/1 32/116/1
f 32/116/1 39/105/1 40/117/1 36/118/1
f 31/109/1 63/108/1 32/116/1
f 63/119/8 64/120/8 41/121/8 42/122/8
f 64/123/2 62/124/2 44/125/2 41/126/2
f 61/127/3 63/128/3 42/129/3 43/130/3
f 62/131/5 61/132/5 43/133/5 44/134/5
f 10/135/4 15/30/4 11/29/4 9/136/4
f 16/33/1 13/137/1 12/138/1 14/34/1
f 13/139/2 16/140/2 15/141/2 10/142/2
f 14/143/5 11/144/5 20/145/5 19/146/5
f 19/147/3 20/148/3 22/24/3 21/23/3
f 15/149/8 16/150/8 17/151/8 18/152/8
f 17/36/1 19/35/1 21/20/1 23/19/1
f 83/153/8 84/154/8 88/155/8 87/156/8
f 67/157/8 68/158/8 72/159/8 71/160/8
f 71/160/1 72/159/1 70/161/1 69/162/1
f 69/162/5 70/161/5 66/163/5 65/164/5
f 67/157/3 71/160/3 69/162/3 65/164/3
f 72/159/2 68/158/2 66/163/2 70/161/2
f 87/156/1 88/155/1 86/165/1 85/166/1
f 75/167/8 76/168/8 80/169/8 79/170/8
f 79/170/1 80/169/1 78/171/1 77/172/1
f 77/172/5 78/171/5 74/173/5 73/174/5
f 75/167/3 79/170/3 77/172/3 73/174/3
f 80/169/2 76/168/2 74/173/2 78/171/2
f 85/166/5 86/165/5 82/175/5 81/176/5
f 83/153/3 87/156/3 85/166/3 81/176/3
f 88/155/2 84/154/2 82/175/2 86/165/2
f 1/12/8 2/11/8 4/15/8 3/7/8
