# Blender v2.79 (sub 0) OBJ File: 'bookStack.blend'
# www.blender.org
mtllib bookStack.mtl
o object_static_shelfBookStack_lowPoly_Cube.001
v -0.229224 -0.284270 0.085929
v -0.229224 0.343794 0.085929
v -0.229224 -0.284270 -0.065901
v -0.229224 0.343794 -0.065901
v 0.276161 0.343794 0.085929
v 0.276161 -0.284270 -0.065901
v 0.276161 -0.284270 0.075222
v 0.276161 -0.284270 -0.055194
v 0.276161 0.343794 -0.055194
v 0.276161 0.343794 0.075222
v -0.216953 0.343794 -0.055194
v -0.216953 0.343794 0.075222
v 0.261161 0.328794 -0.055194
v 0.261161 0.328794 0.075222
v -0.216953 0.328794 -0.055194
v -0.216953 0.328794 0.075222
v 0.261161 -0.284270 -0.055194
v 0.261161 -0.284270 0.075222
v -0.247014 -0.284270 -0.065901
v -0.247014 0.438453 -0.065901
v -0.247014 -0.284270 -0.155008
v -0.247014 0.438453 -0.155008
v 0.276161 0.438453 -0.065901
v 0.276161 0.438453 -0.155008
v 0.276161 -0.284270 -0.076607
v 0.276161 -0.284270 -0.144301
v 0.276161 0.438453 -0.144301
v 0.276161 0.438453 -0.076607
v -0.234743 0.438453 -0.144301
v -0.234743 0.438453 -0.076607
v 0.261161 0.423453 -0.144301
v 0.261161 0.423453 -0.076607
v -0.234743 0.423453 -0.144301
v -0.234743 0.423453 -0.076607
v 0.261161 -0.284270 -0.144301
v 0.261161 -0.284270 -0.076607
v -0.238473 -0.284270 -0.155008
v -0.238473 0.407202 -0.155008
v -0.238473 -0.284270 -0.297491
v -0.238473 0.407202 -0.297491
v 0.276161 -0.284270 -0.155008
v 0.276161 0.407202 -0.155008
v 0.276161 -0.284270 -0.297491
v 0.276161 0.407202 -0.297491
v 0.276161 -0.284270 -0.165715
v 0.276161 -0.284270 -0.286785
v 0.276161 0.407202 -0.286785
v 0.276161 0.407202 -0.165715
v -0.226202 0.407202 -0.286785
v -0.226202 0.407202 -0.165715
v 0.261161 0.392202 -0.286785
v 0.261161 0.392202 -0.165715
v -0.226202 0.392202 -0.286785
v -0.226202 0.392202 -0.165715
v 0.261161 -0.284270 -0.286785
v 0.261161 -0.284270 -0.165715
v -0.237493 -0.284270 0.175036
v -0.237493 0.404528 0.175036
v -0.237493 -0.284270 0.085929
v -0.237493 0.404528 0.085929
v 0.276161 0.404528 0.175036
v 0.276161 -0.284270 0.085929
v 0.276161 0.404528 0.085929
v 0.276161 -0.284270 0.164330
v 0.276161 -0.284270 0.096636
v 0.276161 0.404528 0.096636
v 0.276161 0.404528 0.164330
v -0.225222 0.404528 0.096636
v -0.225222 0.404528 0.164330
v 0.261161 0.389528 0.096636
v 0.261161 0.389528 0.164330
v -0.225222 0.389528 0.096636
v -0.225222 0.389528 0.164330
v 0.261161 -0.284270 0.096636
v 0.261161 -0.284270 0.164330
v -0.249540 -0.284270 0.287307
v -0.249540 0.373480 0.287307
v -0.249540 -0.284270 0.175036
v -0.249540 0.373480 0.175036
v 0.276161 -0.284270 0.287307
v 0.276161 0.373480 0.287307
v 0.276161 -0.284270 0.175036
v 0.276161 0.373480 0.175036
v 0.276161 -0.284270 0.276600
v 0.276161 -0.284270 0.185743
v 0.276161 0.373480 0.185743
v 0.276161 0.373480 0.276600
v -0.237269 0.373480 0.185743
v -0.237269 0.373480 0.276600
v 0.261161 0.358480 0.185743
v 0.261161 0.358480 0.276600
v -0.237269 0.358480 0.185743
v -0.237269 0.358480 0.276600
v 0.261161 -0.284270 0.185743
v 0.261161 -0.284270 0.276600
v 0.276161 0.343794 -0.065901
v 0.276161 0.407202 -0.144301
v 0.276161 0.343794 -0.076607
v 0.261161 0.407202 -0.144301
v 0.261161 0.343794 -0.076607
v -0.237493 0.373479 0.175036
v 0.276161 0.343794 0.096636
v 0.276161 0.373480 0.164330
v 0.261161 0.343794 0.096636
v 0.261161 0.373480 0.164330
vt 0.885445 0.799404
vt 0.695560 0.799404
vt 0.695560 0.772976
vt 0.885445 0.772976
vt 0.436112 0.620508
vt 0.436112 0.865697
vt 0.431932 0.865697
vt 0.431932 0.620508
vt 0.622139 0.232746
vt 0.429625 0.232745
vt 0.424834 0.228565
vt 0.622139 0.228565
vt 0.622123 0.287841
vt 0.424834 0.287841
vt 0.429625 0.283661
vt 0.622123 0.283661
vt 0.502425 0.526702
vt 0.451510 0.526702
vt 0.451510 0.520846
vt 0.502425 0.520846
vt 0.812484 0.701397
vt 0.619969 0.701397
vt 0.619969 0.695541
vt 0.806628 0.695542
vt 0.764812 0.373458
vt 0.764812 0.618647
vt 0.760632 0.618647
vt 0.760631 0.373458
vt 0.739735 0.199201
vt 0.739735 0.006687
vt 0.745591 0.012543
vt 0.745591 0.199201
vt 0.100778 0.003765
vt 0.100778 0.248963
vt 0.041503 0.248963
vt 0.041503 0.003765
vt 0.200847 0.004889
vt 0.200847 0.244231
vt 0.149932 0.244231
vt 0.149932 0.004889
vt 0.669146 0.837132
vt 0.482489 0.837132
vt 0.482489 0.786217
vt 0.669146 0.786217
vt 0.812484 0.456193
vt 0.806628 0.456193
vt 0.984940 0.006687
vt 0.984940 0.012543
vt 0.314309 0.314597
vt 0.326509 0.311263
vt 0.326509 0.515510
vt 0.314309 0.515510
vt 0.768992 0.618647
vt 0.768992 0.655601
vt 0.764812 0.655601
vt 0.480302 0.476778
vt 0.453874 0.476778
vt 0.453874 0.470922
vt 0.480302 0.470922
vt 0.487279 0.885191
vt 0.482489 0.889371
vt 0.482489 0.854583
vt 0.487279 0.858763
vt 0.947194 0.313935
vt 0.947194 0.326135
vt 0.943014 0.326135
vt 0.943014 0.313935
vt 0.424834 0.211115
vt 0.424834 0.011657
vt 0.430690 0.017513
vt 0.430690 0.211115
vt 0.385406 0.591643
vt 0.385406 0.597988
vt 0.358978 0.597988
vt 0.358978 0.566888
vt 0.417913 0.292292
vt 0.417912 0.304492
vt 0.412057 0.298636
vt 0.412057 0.292291
vt 0.461790 0.011657
vt 0.461790 0.017513
vt 0.017936 0.332644
vt 0.287889 0.332644
vt 0.287889 0.533559
vt 0.017936 0.533559
vt 0.951373 0.043985
vt 0.951373 0.313935
vt 0.947193 0.043985
vt 0.221059 0.830255
vt 0.024934 0.830255
vt 0.020144 0.826076
vt 0.221059 0.826075
vt 0.221061 0.881701
vt 0.020144 0.881701
vt 0.024935 0.877521
vt 0.221061 0.877521
vt 0.567142 0.526702
vt 0.519876 0.526702
vt 0.519876 0.520846
vt 0.567142 0.520846
vt 0.741933 0.638118
vt 0.545795 0.638139
vt 0.545795 0.632282
vt 0.736076 0.632262
vt 0.941524 0.379495
vt 0.941524 0.649445
vt 0.937344 0.649445
vt 0.937344 0.379495
vt 0.920579 0.281575
vt 0.724436 0.281575
vt 0.730293 0.275718
vt 0.920579 0.275718
vt 0.298092 0.011654
vt 0.298092 0.281607
vt 0.242466 0.281607
vt 0.242466 0.011654
vt 0.380990 0.012277
vt 0.380990 0.276374
vt 0.333724 0.276374
vt 0.333724 0.012277
vt 0.210412 0.946418
vt 0.020144 0.946418
vt 0.020144 0.899152
vt 0.210412 0.899152
vt 0.741907 0.368203
vt 0.736051 0.368204
vt 0.724437 0.011657
vt 0.730293 0.011657
vt 0.642600 0.552030
vt 0.645828 0.575741
vt 0.445300 0.575740
vt 0.445300 0.552030
vt 0.410301 0.877285
vt 0.410301 0.889406
vt 0.406121 0.889406
vt 0.406121 0.877285
vt 0.480302 0.500084
vt 0.453874 0.500084
vt 0.453874 0.494228
vt 0.480302 0.494228
vt 0.490585 0.751345
vt 0.485794 0.755525
vt 0.485794 0.720738
vt 0.490585 0.724918
vt 0.431932 0.889407
vt 0.427752 0.889407
vt 0.427752 0.865697
vt 0.612940 0.598660
vt 0.417210 0.598657
vt 0.423066 0.592801
vt 0.612940 0.592804
vt 0.708968 0.599548
vt 0.708968 0.611670
vt 0.674180 0.611670
vt 0.384489 0.865706
vt 0.384489 0.883561
vt 0.358061 0.883561
vt 0.358061 0.877296
vt 0.458068 0.891530
vt 0.458068 0.915241
vt 0.452212 0.909385
vt 0.452212 0.891530
vt 0.417210 0.586536
vt 0.423066 0.586536
vt 0.897739 0.379495
vt 0.897739 0.636272
vt 0.893559 0.636272
vt 0.893559 0.379495
vt 0.474067 0.140728
vt 0.469364 0.140728
vt 0.474154 0.136548
vt 0.489345 0.453471
vt 0.453874 0.453471
vt 0.453874 0.447615
vt 0.489345 0.447615
vt 0.469363 0.096897
vt 0.474154 0.101077
vt 0.406120 0.620508
vt 0.401941 0.877285
vt 0.401940 0.620508
vt 0.895217 0.317576
vt 0.694777 0.317575
vt 0.700633 0.311719
vt 0.895217 0.311720
vt 0.287689 0.620508
vt 0.287689 0.877296
vt 0.243858 0.877296
vt 0.243858 0.620508
vt 0.340610 0.620508
vt 0.340610 0.871439
vt 0.305139 0.871439
vt 0.305139 0.620508
vt 0.792063 0.418162
vt 0.792064 0.674964
vt 0.786208 0.669108
vt 0.786207 0.418162
vt 0.694777 0.060775
vt 0.700633 0.060775
vt 0.213746 0.990296
vt 0.020144 0.990297
vt 0.020144 0.963869
vt 0.213746 0.963869
vt 0.218459 0.304470
vt 0.218459 0.298614
vt 0.686734 0.889371
vt 0.686734 0.885191
vt 0.227854 0.256856
vt 0.227854 0.293811
vt 0.023605 0.293811
vt 0.030550 0.256856
vt 0.686738 0.858763
vt 0.686738 0.854583
vt 0.044392 0.311262
vt 0.044392 0.314598
vt 0.706986 0.011657
vt 0.706986 0.017513
vt 0.417944 0.022342
vt 0.412088 0.022342
vt 0.385406 0.321690
vt 0.358978 0.321690
vt 0.868869 0.367137
vt 0.868869 0.649291
vt 0.834081 0.649291
vt 0.834081 0.367137
vt 0.943013 0.043985
vt 0.030550 0.011657
vt 0.023605 0.011657
vt 0.768992 0.373458
vt 0.262329 0.915241
vt 0.262329 0.909385
vt 0.686372 0.755526
vt 0.686372 0.751346
vt 0.440537 0.937093
vt 0.440537 0.949214
vt 0.240005 0.949214
vt 0.240005 0.937093
vt 0.686321 0.724917
vt 0.686320 0.720738
vt 0.645828 0.306762
vt 0.642600 0.306762
vt 0.417213 0.329731
vt 0.423070 0.329731
vt 0.458068 0.646331
vt 0.452211 0.646331
vt 0.384489 0.620508
vt 0.358061 0.620508
vt 0.708968 0.342760
vt 0.674180 0.342760
vt 0.427751 0.620508
vt 0.410301 0.620508
vt 0.677078 0.942292
vt 0.482489 0.942292
vt 0.482489 0.906822
vt 0.677078 0.906822
vt 0.591622 0.674965
vt 0.591622 0.669109
vt 0.674592 0.140728
vt 0.674592 0.136548
vt 0.223171 0.554789
vt 0.223171 0.811576
vt 0.017936 0.811577
vt 0.017936 0.554789
vt 0.674600 0.101077
vt 0.674600 0.096897
vt 0.919893 0.379495
vt 0.919893 0.636288
vt 0.915190 0.636288
vt 0.915190 0.379495
vn 0.0000 1.0000 0.0000
vn 1.0000 -0.0000 0.0000
vn 0.0000 0.0000 1.0000
vn 0.0000 0.0000 -1.0000
vn -1.0000 0.0000 0.0000
usemtl Material
s off
f 70/1/1 72/2/1 73/3/1 71/4/1
f 7/5/2 10/6/2 5/7/2 62/8/2
f 10/9/1 12/10/1 2/11/1 5/12/1
f 96/13/1 4/14/1 11/15/1 9/16/1
f 11/17/2 12/18/2 16/19/2 15/20/2
f 11/15/1 4/14/1 2/11/1 12/10/1
f 9/21/3 11/22/3 15/23/3 13/24/3
f 6/25/2 96/26/2 9/27/2 8/28/2
f 12/29/4 10/30/4 14/31/4 16/32/4
f 1/33/5 2/34/5 4/35/5 3/36/5
f 17/37/2 13/38/2 14/39/2 18/40/2
f 13/41/1 15/42/1 16/43/1 14/44/1
f 8/45/3 9/21/3 13/24/3 17/46/3
f 7/47/4 18/48/4 14/31/4 10/30/4
f 38/49/4 22/50/4 24/51/4 42/52/4
f 98/53/2 28/54/2 23/55/2 96/26/2
f 29/56/2 30/57/2 34/58/2 33/59/2
f 29/60/1 22/61/1 20/62/1 30/63/1
f 42/64/2 24/65/2 27/66/2 97/67/2
f 30/68/4 28/69/4 32/70/4 34/71/4
f 99/72/2 31/73/2 32/74/2 100/75/2
f 97/76/3 27/77/3 31/78/3 99/79/3
f 98/80/4 100/81/4 32/70/4 28/69/4
f 39/82/4 40/83/4 44/84/4 43/85/4
f 45/86/2 48/87/2 42/64/2 41/88/2
f 48/89/1 50/90/1 38/91/1 42/92/1
f 44/93/1 40/94/1 49/95/1 47/96/1
f 49/97/2 50/98/2 54/99/2 53/100/2
f 49/95/1 40/94/1 38/91/1 50/90/1
f 47/101/3 49/102/3 53/103/3 51/104/3
f 43/105/2 44/106/2 47/107/2 46/108/2
f 50/109/4 48/110/4 52/111/4 54/112/4
f 37/113/5 38/114/5 40/115/5 39/116/5
f 55/117/2 51/118/2 52/119/2 56/120/2
f 51/121/1 53/122/1 54/123/1 52/124/1
f 46/125/3 47/101/3 51/104/3 55/126/3
f 45/127/4 56/128/4 52/111/4 48/110/4
f 2/129/4 60/130/4 63/131/4 5/132/4
f 103/133/2 67/134/2 61/135/2 83/136/2
f 68/137/2 69/138/2 73/139/2 72/140/2
f 68/141/1 60/142/1 58/143/1 69/144/1
f 5/7/2 63/145/2 66/146/2 102/147/2
f 69/148/4 67/149/4 71/150/4 73/151/4
f 101/152/5 58/153/5 60/154/5
f 104/155/2 70/156/2 71/157/2 105/158/2
f 102/159/3 66/160/3 70/161/3 104/162/3
f 103/163/4 105/164/4 71/150/4 67/149/4
f 84/165/2 87/166/2 81/167/2 80/168/2
f 101/169/1 79/170/1 88/171/1
f 88/172/2 89/173/2 93/174/2 92/175/2
f 88/171/1 79/170/1 77/176/1 89/177/1
f 82/178/2 83/136/2 86/179/2 85/180/2
f 89/181/4 87/182/4 91/183/4 93/184/4
f 76/185/5 77/186/5 79/187/5 78/188/5
f 94/189/2 90/190/2 91/191/2 95/192/2
f 85/193/3 86/194/3 90/195/3 94/196/3
f 84/197/4 95/198/4 91/183/4 87/182/4
f 31/199/1 33/200/1 34/201/1 32/202/1
f 27/77/3 29/203/3 33/204/3 31/78/3
f 24/205/1 22/61/1 29/60/1 27/206/1
f 96/207/3 23/208/3 20/209/3 4/210/3
f 28/211/1 30/63/1 20/62/1 23/212/1
f 21/213/4 22/50/4 38/49/4 37/214/4
f 25/215/4 36/216/4 100/81/4 98/80/4
f 26/217/3 97/76/3 99/79/3 35/218/3
f 35/219/2 99/72/2 100/75/2 36/220/2
f 19/221/5 20/222/5 22/223/5 21/224/5
f 41/88/2 42/64/2 97/67/2 26/225/2
f 3/226/3 4/210/3 20/209/3 19/227/3
f 25/228/2 98/53/2 96/26/2 6/25/2
f 66/160/3 68/229/3 72/230/3 70/161/3
f 63/231/1 60/142/1 68/141/1 66/232/1
f 83/233/3 61/234/3 58/235/3 101/236/3
f 67/237/1 69/144/1 58/143/1 61/238/1
f 59/239/4 60/130/4 2/129/4 1/240/4
f 64/241/4 75/242/4 105/164/4 103/163/4
f 65/243/3 102/159/3 104/162/3 74/244/3
f 74/245/2 104/155/2 105/158/2 75/246/2
f 57/247/5 101/152/5 60/154/5 59/248/5
f 62/8/2 5/7/2 102/147/2 65/249/2
f 64/250/2 103/133/2 83/136/2 82/178/2
f 90/251/1 92/252/1 93/253/1 91/254/1
f 86/194/3 88/255/3 92/256/3 90/195/3
f 83/257/1 101/169/1 88/171/1 86/258/1
f 80/259/3 81/260/3 77/261/3 76/262/3
f 87/263/1 89/177/1 77/176/1 81/264/1
f 78/265/4 79/266/4 101/267/4 57/268/4
