# Blender v2.79 (sub 0) OBJ File: 'bookStack_collider.blend'
# www.blender.org
mtllib bookStack_collider.mtl
o object_static_shelfBookStack_collider_Cube.001
v -0.249540 0.343794 0.085929
v -0.249540 0.343794 -0.065901
v 0.276161 0.343794 0.085929
v 0.276161 -0.284270 -0.065901
v -0.249540 0.438453 -0.065901
v -0.249540 0.438453 -0.155008
v 0.276161 0.438453 -0.065901
v 0.276161 0.438453 -0.155008
v -0.249540 -0.284270 -0.297491
v -0.249540 0.407202 -0.297491
v 0.276161 -0.284270 -0.155008
v 0.276161 -0.284270 -0.297491
v 0.276161 0.407202 -0.297491
v -0.249540 0.404528 0.175036
v -0.249540 0.404528 0.085929
v 0.276161 0.404528 0.175036
v 0.276161 -0.284270 0.085929
v 0.276161 0.404528 0.085929
v -0.249540 -0.284270 0.287307
v -0.249540 0.373480 0.287307
v 0.276161 -0.284270 0.287307
v 0.276161 0.373480 0.287307
v 0.276161 -0.284270 0.175036
v -0.249540 0.343794 -0.297491
v 0.276161 0.343794 -0.297491
v 0.276161 0.343794 -0.155008
v -0.249540 0.343794 0.287307
v 0.276161 0.343794 0.175036
v 0.276161 0.343794 0.287307
v 0.276161 0.343794 -0.065901
v -0.249540 -0.284270 0.175036
v -0.249540 0.343794 0.175036
v -0.249540 -0.284270 0.085929
v -0.249540 0.343794 -0.155008
v -0.249540 -0.284270 -0.065901
v -0.249540 -0.284270 -0.155008
vt 0.885445 0.799404
vt 0.695560 0.799404
vt 0.695560 0.772976
vt 0.885445 0.772976
vt 0.227854 0.256856
vt 0.227854 0.275334
vt 0.027078 0.275334
vt 0.030550 0.256856
vt 0.669146 0.837132
vt 0.482489 0.837132
vt 0.482489 0.786217
vt 0.669146 0.786217
vt 0.152912 0.332644
vt 0.287889 0.332644
vt 0.287889 0.533559
vt 0.152912 0.533559
vt 0.380990 0.144326
vt 0.380990 0.276374
vt 0.333724 0.276374
vt 0.333724 0.144326
vt 0.210412 0.946418
vt 0.020144 0.946418
vt 0.020144 0.899152
vt 0.210412 0.899152
vt 0.340610 0.745974
vt 0.445300 0.552030
vt 0.445300 0.563885
vt 0.340610 0.871439
vt 0.305139 0.871439
vt 0.305139 0.745974
vt 0.213746 0.990296
vt 0.020144 0.990297
vt 0.020144 0.963869
vt 0.213746 0.963869
vt 0.385406 0.456667
vt 0.642600 0.552030
vt 0.644214 0.563885
vt 0.677078 0.942292
vt 0.482489 0.942292
vt 0.482489 0.906822
vt 0.677078 0.906822
vt 0.223171 0.683183
vt 0.223171 0.811576
vt 0.017936 0.811577
vt 0.017936 0.683183
vt 0.223171 0.554789
vt 0.017936 0.554789
vt 0.384489 0.620508
vt 0.384489 0.743107
vt 0.358061 0.748902
vt 0.358061 0.620508
vt 0.385406 0.321690
vt 0.358978 0.444289
vt 0.358978 0.321690
vt 0.340610 0.620508
vt 0.305139 0.620508
vt 0.380990 0.012277
vt 0.333724 0.012277
vt 0.017936 0.332644
vt 0.017936 0.533559
vt 0.200847 0.004889
vt 0.200847 0.124560
vt 0.149932 0.124560
vt 0.149932 0.004889
vt 0.017936 0.683183
vt 0.017936 0.554789
vt 0.017936 0.811577
vt 0.017936 0.811577
vt 0.017936 0.683183
vt 0.017936 0.554789
vt 0.017936 0.683183
vt 0.017936 0.554789
vt 0.017936 0.554789
vt 0.017936 0.683183
vt 0.017936 0.683183
vt 0.017936 0.554789
vn 0.0000 1.0000 0.0000
vn 0.0000 0.0000 1.0000
vn 0.0000 0.0000 -1.0000
vn 1.0000 0.0000 0.0000
vn 0.0000 0.9768 -0.2142
vn 0.0000 0.9638 0.2665
vn -1.0000 0.0000 0.0000
usemtl None
s off
f 18/1/1 15/2/1 14/3/1 16/4/1
f 30/5/2 7/6/2 5/7/2 2/8/2
f 30/9/1 2/10/1 1/11/1 3/12/1
f 24/13/3 10/14/3 13/15/3 25/16/3
f 25/17/4 13/18/4 8/19/4 26/20/4
f 13/21/5 10/22/5 6/23/5 8/24/5
f 28/25/4 3/26/4 18/27/4 16/28/4
f 28/25/4 16/28/4 22/29/4 29/30/4
f 8/31/1 6/32/1 5/33/1 7/34/1
f 7/6/4 30/5/4 26/35/4 8/19/4
f 1/36/3 15/37/3 18/27/3 3/26/3
f 16/38/6 14/39/6 20/40/6 22/41/6
f 29/42/2 22/43/2 20/44/2 27/45/2
f 21/46/2 29/42/2 27/45/2 19/47/2
f 17/48/4 3/49/4 28/50/4 23/51/4
f 11/52/4 26/35/4 30/53/4 4/54/4
f 23/55/4 28/25/4 29/30/4 21/56/4
f 12/57/4 25/17/4 26/20/4 11/58/4
f 9/59/3 24/13/3 25/16/3 12/60/3
f 4/61/4 30/62/4 3/63/4 17/64/4
f 19/47/7 27/45/7 32/65/7 31/66/7
f 27/45/7 20/44/7 14/67/7 32/65/7
f 32/65/7 14/67/7 15/68/7 1/69/7
f 31/66/7 32/65/7 1/69/7 33/70/7
f 33/70/7 1/69/7 2/71/7 35/72/7
f 36/73/7 34/74/7 24/75/7 9/76/7
f 35/72/7 2/71/7 34/74/7 36/73/7
f 10/14/7 24/13/7 34/74/7 6/23/7
f 6/23/7 34/74/7 2/71/7 5/7/7
