# Blender v2.79 (sub 0) OBJ File: 'bookshelf_2.blend'
# www.blender.org
mtllib bookshelfLeft.mtl
o object_static_bookshelfPartLeft_Cube.000
v 0.301502 -2.824901 1.987886
v 0.301502 -2.334857 1.987886
v 0.281223 -2.334857 1.968592
v -0.600062 -2.334857 1.968592
v 0.281223 -2.302352 1.968592
v -0.600062 -2.302352 1.968592
v -0.600062 -2.184152 1.933322
v -0.600062 4.343040 1.933322
v -0.600062 -2.824901 1.987886
v -0.600062 -2.334857 1.987886
v 0.281223 -2.334855 1.690833
v 0.281223 -2.302351 1.690833
v 0.242489 -2.184152 1.933322
v 0.242489 4.343040 1.690833
v 0.242489 -2.184151 1.690833
v 0.242489 4.343040 1.933322
v 0.301502 -2.334856 1.690832
v 0.301502 -2.824900 1.690833
v -0.600062 4.343040 1.690833
v 0.282489 4.383040 1.690832
v 0.282489 -2.171319 1.690832
v 0.341502 -2.314856 1.690832
v 0.341502 -2.824900 1.690833
v -0.600062 4.383040 1.690833
v 0.282489 4.383040 1.545442
v 0.282489 -2.171319 1.545442
v 0.341502 -2.314856 1.545442
v 0.341502 -2.824900 1.545442
v -0.600062 4.383040 1.545442
v 0.281223 -2.334855 1.545442
v 0.281223 -2.302351 1.545442
v 0.242489 4.343040 1.545442
v 0.242489 -2.184151 1.545442
v 0.301502 -2.334856 1.545442
v 0.301502 -2.824900 1.545441
v -0.600062 4.343040 1.545442
vt 0.328614 0.430282
vt 0.328614 0.447162
vt 0.295705 0.447162
vt 0.290918 0.430282
vt 0.413273 0.006703
vt 0.413273 0.073208
vt 0.290918 0.073208
vt 0.290918 0.006703
vt 0.148453 0.006703
vt 0.148453 0.892530
vt 0.034108 0.892530
vt 0.034108 0.006703
vt 0.290918 0.089233
vt 0.290918 0.086614
vt 0.413283 0.086614
vt 0.410531 0.089233
vt 0.290918 0.219782
vt 0.331232 0.219782
vt 0.331233 0.286287
vt 0.290918 0.286287
vt 0.328614 0.495036
vt 0.328614 0.499447
vt 0.290918 0.499447
vt 0.290918 0.495036
vt 0.410520 0.299693
vt 0.405264 0.316433
vt 0.290918 0.316433
vt 0.290918 0.299693
vt 0.410520 0.416876
vt 0.290918 0.416876
vt 0.290918 0.412465
vt 0.410520 0.412465
vt 0.413283 0.126924
vt 0.410531 0.126924
vt 0.194768 0.892526
vt 0.161859 0.892526
vt 0.161859 0.006703
vt 0.194768 0.006703
vt 0.405264 0.173239
vt 0.290918 0.173239
vt 0.290918 0.140330
vt 0.405264 0.140330
vt 0.138924 0.979855
vt 0.253248 0.979853
vt 0.258676 0.985280
vt 0.138924 0.985283
vt 0.253245 0.093802
vt 0.258672 0.095543
vt 0.261252 0.073352
vt 0.261251 0.006858
vt 0.266679 0.006858
vt 0.266679 0.076066
vt 0.258500 0.077763
vt 0.258500 0.073352
vt 0.208174 0.896247
vt 0.208174 0.006703
vt 0.227906 0.006703
vt 0.227904 0.896247
vt 0.290918 0.481630
vt 0.290918 0.460568
vt 0.310650 0.460568
vt 0.310650 0.481630
vt 0.290918 0.186644
vt 0.410692 0.186644
vt 0.410692 0.206376
vt 0.290918 0.206376
vt 0.290919 0.399059
vt 0.290918 0.329839
vt 0.310650 0.329839
vt 0.310650 0.399059
vt 0.136205 0.979315
vt 0.136205 0.984744
vt 0.016417 0.984741
vt 0.021846 0.979312
vt 0.016437 0.095120
vt 0.021864 0.093379
vt 0.013858 0.072933
vt 0.008431 0.075646
vt 0.008432 0.006447
vt 0.013859 0.006447
vt 0.016609 0.077343
vt 0.016609 0.072933
vn 0.9503 0.3114 0.0000
vn -0.0000 0.0000 1.0000
vn 0.0000 1.0000 0.0000
vn 1.0000 -0.0000 -0.0000
vn 0.0000 0.2859 0.9582
vn 0.9249 0.3803 0.0000
vn -0.0000 0.0000 -1.0000
usemtl Material.037
s off
f 12/1/1 15/2/1 13/3/1 5/4/1
f 1/5/2 2/6/2 10/7/2 9/8/2
f 13/9/2 16/10/2 8/11/2 7/12/2
f 4/13/3 10/14/3 2/15/3 3/16/3
f 1/17/4 18/18/4 17/19/4 2/20/4
f 11/21/4 12/22/4 5/23/4 3/24/4
f 5/25/5 13/26/5 7/27/5 6/28/5
f 5/29/2 6/30/2 4/31/2 3/32/2
f 17/33/3 11/34/3 3/16/3 2/15/3
f 14/35/4 16/36/4 13/37/4 15/38/4
f 14/39/3 19/40/3 8/41/3 16/42/3
f 19/43/2 14/44/2 20/45/2 24/46/2
f 14/44/2 15/47/2 21/48/2 20/45/2
f 17/49/2 18/50/2 23/51/2 22/52/2
f 15/47/2 12/53/2 22/52/2 21/48/2
f 17/49/2 22/52/2 12/53/2 11/54/2
f 20/55/4 21/56/4 26/57/4 25/58/4
f 21/59/6 22/60/6 27/61/6 26/62/6
f 24/63/3 20/64/3 25/65/3 29/66/3
f 22/67/4 23/68/4 28/69/4 27/70/4
f 36/71/7 29/72/7 25/73/7 32/74/7
f 32/74/7 25/73/7 26/75/7 33/76/7
f 34/77/7 27/78/7 28/79/7 35/80/7
f 33/76/7 26/75/7 27/78/7 31/81/7
f 34/77/7 30/82/7 31/81/7 27/78/7
