# Blender v2.79 (sub 0) OBJ File: 'bookshelf_collider.blend'
# www.blender.org
mtllib bookshelfCenter_collider.mtl
o object_static_bookshelf_colider_Cube.003
v 0.242489 2.174763 1.545442
v 0.242489 2.174763 -1.454558
v 0.242489 2.174763 1.248388
v 0.242489 2.174763 -1.158233
v 0.242489 2.074763 -1.454558
v 0.242489 2.074763 1.545442
v 0.242489 2.074763 -1.158233
v 0.242489 2.074763 1.248388
v 0.242489 1.280281 1.545442
v 0.242489 1.280281 -1.454558
v 0.242489 1.280281 1.248388
v 0.242489 1.280281 -1.158233
v 0.242489 1.180281 -1.454558
v 0.242489 1.180281 1.545442
v 0.242489 1.180281 -1.158233
v 0.242489 1.180281 1.248388
v 0.242489 0.359467 1.248388
v 0.242489 0.359467 1.545442
v 0.242489 0.359467 -1.158233
v 0.242489 0.359467 -1.454558
v 0.242489 0.259466 -1.158233
v 0.242489 0.259466 1.248388
v 0.242489 0.259466 1.545442
v 0.242489 0.259466 -1.454558
v 0.242489 -0.510629 -1.454558
v 0.242489 -0.510629 -1.158233
v 0.242489 -0.510629 1.248388
v 0.242489 -0.510629 1.545442
v 0.242489 -0.610629 -1.454558
v 0.242489 -0.610629 -1.158233
v 0.242489 -0.610629 1.545442
v 0.242489 -0.610629 1.248388
v 0.242489 -1.429780 1.248388
v 0.242489 -1.429780 -1.454558
v 0.242489 -1.429780 1.545442
v 0.242489 -1.429780 -1.158233
v 0.242489 -1.529780 -1.158233
v 0.242489 -1.529780 1.248388
v 0.242489 -1.529780 1.545442
v 0.242489 -1.529780 -1.454558
v -0.600063 4.343041 1.545442
v -0.600063 4.343041 -1.454558
v 0.242489 -2.181682 1.545442
v 0.242489 4.343041 1.545442
v 0.242489 -2.181682 -1.454558
v 0.242489 4.343041 -1.454558
v 0.301502 -2.334856 -1.454558
v 0.301502 -2.334856 1.545442
v 0.301502 -2.824900 -1.454558
v 0.301502 -2.824900 1.545442
v -0.600063 4.343041 1.248388
v 0.242489 -2.181682 1.248388
v 0.242489 4.343041 1.248388
v 0.301502 -2.334856 1.248388
v 0.301502 -2.824900 1.248388
v -0.600063 4.343041 -1.158233
v 0.242489 -2.181682 -1.158233
v 0.301502 -2.334856 -1.158233
v 0.301502 -2.824900 -1.158233
v 0.242489 4.343041 -1.158233
v 0.242489 3.747248 -1.454558
v 0.242489 3.747248 1.545442
v 0.242489 3.747248 1.248388
v 0.242489 3.747248 -1.158233
v 0.288733 -2.302352 1.545442
v 0.288733 -2.302352 -1.454558
v 0.288733 -2.302352 1.248388
v 0.288733 -2.302352 -1.158233
v -0.570807 -1.529780 -1.158233
v -0.570807 -1.529780 1.248388
v -0.570807 -2.181682 1.248388
v -0.570807 -2.181682 -1.158233
v -0.570807 -2.302352 1.248388
v -0.570807 -2.302352 -1.158233
v -0.570807 2.174763 -1.158233
v -0.570807 -0.510629 -1.158233
v 0.137532 3.747248 -1.158233
v -0.570807 2.074763 1.248388
v 0.137532 2.768898 -1.158233
v -0.570807 1.280281 1.248388
v 0.137532 3.747248 1.248388
v 0.137532 2.768898 1.248388
v -0.570807 2.074763 -1.158233
v -0.570807 1.280281 -1.158233
v -0.570807 1.180281 1.248388
v 0.070045 3.747248 -1.158233
v -0.570807 2.174763 1.248388
v 0.070045 2.768898 -1.158233
v -0.570807 0.359467 1.248388
v -0.570807 0.259466 -1.158233
v -0.570807 -0.510629 1.248388
v -0.570807 0.259466 1.248388
v -0.570807 -0.610629 1.248388
v -0.570807 1.180281 -1.158233
v -0.570807 0.359467 -1.158233
v 0.070045 3.747248 1.248388
v -0.570807 -0.610629 -1.158233
v -0.570807 -1.429780 1.248388
v -0.570807 -1.429780 -1.158233
v -0.570807 3.747248 1.248388
v -0.570807 3.747248 -1.158233
v 0.070045 2.768898 1.248388
v 0.137532 2.768898 1.203088
v 0.070045 2.768898 1.203088
v 0.137532 2.768898 -1.112947
v 0.070045 2.768898 -1.112947
v 0.070045 2.934349 1.111386
v 0.070045 2.934349 -1.021245
v 0.137532 2.934349 1.111386
v 0.137532 2.934349 -1.021245
v 0.137532 3.747248 0.045071
v 0.070045 3.747248 0.045071
v 0.070045 3.441650 0.045071
v 0.137532 3.441650 0.045071
v 0.137532 3.747248 0.578228
v 0.137532 3.306237 0.578228
v 0.070045 3.747248 0.578228
v 0.070045 3.306237 0.578228
v 0.070045 3.747248 -0.488087
v 0.070045 3.306237 -0.488087
v 0.137532 3.747248 -0.488087
v 0.137532 3.306237 -0.488087
v 0.137532 3.747248 0.844807
v 0.137532 3.194056 0.844807
v 0.070045 3.747248 0.844807
v 0.070045 3.194056 0.844807
v 0.070045 3.747248 -0.754666
v 0.070045 3.194056 -0.754666
v 0.137532 3.747248 -0.754665
v 0.137532 3.194056 -0.754666
vt 0.000000 0.000000
vt 0.000000 0.000000
vt 0.000000 0.000000
vt 0.000000 0.000000
vt 0.000000 0.000000
vt 0.000000 0.000000
vt 0.000000 0.000000
vt 0.000000 0.000000
vt 0.000000 0.000000
vt 0.000000 0.000000
vt 0.000000 0.000000
vt 0.000000 0.000000
vt 0.000000 0.000000
vt 0.000000 0.000000
vt 0.000000 0.000000
vt 0.000000 0.000000
vt 0.000000 0.000000
vt 0.000000 0.000000
vt 0.000000 0.000000
vt 0.000000 0.000000
vt 0.000000 0.000000
vt 0.000000 0.000000
vt 0.000000 0.000000
vt 0.000000 0.000000
vt 0.000000 0.000000
vt 0.000000 0.000000
vt 0.000000 0.000000
vt 0.000000 0.000000
vt 0.000000 0.000000
vt 0.000000 0.000000
vt 0.000000 0.000000
vt 0.000000 0.000000
vt 0.000000 0.000000
vt 0.000000 0.000000
vt 0.000000 0.000000
vt 0.000000 0.000000
vt 0.000000 0.000000
vt 0.000000 0.000000
vt 0.000000 0.000000
vt 0.000000 0.000000
vt 0.000000 0.000000
vt 0.000000 0.000000
vt 0.000000 0.000000
vt 0.000000 0.000000
vt 0.000000 0.000000
vt 0.000000 0.000000
vt 0.000000 0.000000
vt 0.000000 0.000000
vt 0.000000 0.000000
vt 0.000000 0.000000
vt 0.000000 0.000000
vt 0.000000 0.000000
vt 0.000000 0.000000
vt 0.000000 0.000000
vt 0.000000 0.000000
vt 0.000000 0.000000
vt 0.000000 0.000000
vt 0.000000 0.000000
vt 0.000000 0.000000
vt 0.000000 0.000000
vt 0.000000 0.000000
vt 0.000000 0.000000
vt 0.000000 0.000000
vt 0.000000 0.000000
vt 0.000000 0.000000
vt 0.000000 0.000000
vt 0.000000 0.000000
vt 0.000000 0.000000
vt 0.000000 0.000000
vt 0.000000 0.000000
vt 0.000000 0.000000
vt 0.000000 0.000000
vt 0.000000 0.000000
vt 0.000000 0.000000
vt 0.000000 0.000000
vt 0.000000 0.000000
vt 0.000000 0.000000
vt 0.000000 0.000000
vt 0.000000 0.000000
vt 0.000000 0.000000
vt 0.000000 0.000000
vt 0.000000 0.000000
vt 0.000000 0.000000
vt 0.000000 0.000000
vt 0.000000 0.000000
vt 0.000000 0.000000
vt 0.000000 0.000000
vt 0.000000 0.000000
vt 0.000000 0.000000
vt 0.000000 0.000000
vt 0.000000 0.000000
vt 0.000000 0.000000
vt 0.000000 0.000000
vt 0.000000 0.000000
vt 0.000000 0.000000
vt 0.000000 0.000000
vt 0.000000 0.000000
vt 0.000000 0.000000
vt 0.000000 0.000000
vt 0.000000 0.000000
vt 0.000000 0.000000
vt 0.000000 0.000000
vt 0.000000 0.000000
vt 0.000000 0.000000
vt 0.000000 0.000000
vt 0.000000 0.000000
vt 0.000000 0.000000
vt 0.000000 0.000000
vt 0.000000 0.000000
vt 0.000000 0.000000
vt 0.000000 0.000000
vt 0.000000 0.000000
vt 0.000000 0.000000
vt 0.000000 0.000000
vt 0.000000 0.000000
vt 0.000000 0.000000
vt 0.000000 0.000000
vt 0.000000 0.000000
vt 0.000000 0.000000
vt 0.000000 0.000000
vt 0.000000 0.000000
vt 0.000000 0.000000
vt 0.000000 0.000000
vt 0.000000 0.000000
vt 0.000000 0.000000
vt 0.000000 0.000000
vt 0.000000 0.000000
vt 0.000000 0.000000
vt 0.000000 0.000000
vt 0.000000 0.000000
vn 1.0000 0.0000 0.0000
vn 0.0000 0.0000 -1.0000
vn 0.0000 0.0000 1.0000
vn 0.0000 1.0000 0.0000
vn 0.0000 -1.0000 0.0000
vn 0.9308 0.3656 0.0000
vn 0.9338 0.3579 0.0000
vn 0.0000 -0.4848 0.8746
vn -1.0000 0.0000 0.0000
vn 0.0000 -0.7163 -0.6978
vn -0.0000 -0.4848 -0.8746
vn 0.0000 -0.9692 0.2462
vn 0.0000 -0.9692 -0.2462
vn 0.0000 -0.9217 0.3879
vn 0.0000 -0.9217 -0.3879
vn 0.0000 -0.7163 0.6978
usemtl None
s off
f 52/1/1 38/2/1 39/3/1 43/4/1
f 7/5/1 4/6/1 3/7/1 8/8/1
f 5/9/1 2/10/1 4/6/1 7/5/1
f 45/11/1 40/12/1 37/13/1 57/14/1
f 15/15/1 12/16/1 11/17/1 16/18/1
f 29/19/1 25/20/1 26/21/1 30/22/1
f 20/23/1 13/24/1 15/15/1 19/25/1
f 22/26/1 17/27/1 18/28/1 23/29/1
f 38/2/2 52/1/2 71/30/2 70/31/2
f 57/14/3 37/13/3 69/32/3 72/33/3
f 16/18/1 11/17/1 9/34/1 14/35/1
f 11/17/1 8/8/1 6/36/1 9/34/1
f 33/37/1 32/38/1 31/39/1 35/40/1
f 27/41/1 22/26/1 23/29/1 28/42/1
f 17/27/1 16/18/1 14/35/1 18/28/1
f 3/7/4 4/6/4 75/43/4 87/44/4
f 4/6/3 64/45/3 101/46/3 75/43/3
f 21/47/1 19/25/1 17/27/1 22/26/1
f 30/22/1 26/21/1 27/41/1 32/38/1
f 32/38/1 27/41/1 28/42/1 31/39/1
f 24/48/1 20/23/1 19/25/1 21/47/1
f 64/45/5 63/49/5 100/50/5 101/46/5
f 40/12/1 34/51/1 36/52/1 37/13/1
f 12/16/3 7/5/3 83/53/3 84/54/3
f 8/8/1 3/7/1 1/55/1 6/36/1
f 13/24/1 10/56/1 12/16/1 15/15/1
f 34/51/1 29/19/1 30/22/1 36/52/1
f 37/13/1 36/52/1 33/37/1 38/2/1
f 38/2/1 33/37/1 35/40/1 39/3/1
f 25/20/1 24/48/1 21/47/1 26/21/1
f 26/21/3 21/47/3 90/57/3 76/58/3
f 17/27/4 19/25/4 95/59/4 89/60/4
f 27/41/4 26/21/4 76/58/4 91/61/4
f 10/56/1 5/9/1 7/5/1 12/16/1
f 63/49/1 53/62/1 44/63/1 62/64/1
f 53/62/4 51/65/4 41/66/4 44/63/4
f 67/67/6 65/68/6 48/69/6 54/70/6
f 58/71/1 54/70/1 55/72/1 59/73/1
f 54/70/1 48/69/1 50/74/1 55/72/1
f 68/75/6 67/67/6 54/70/6 58/71/6
f 60/76/4 56/77/4 51/65/4 53/62/4
f 64/45/1 60/76/1 53/62/1 63/49/1
f 61/78/1 46/79/1 60/76/1 64/45/1
f 46/79/4 42/80/4 56/77/4 60/76/4
f 66/81/6 68/75/6 58/71/6 47/82/6
f 47/82/1 58/71/1 59/73/1 49/83/1
f 63/49/2 3/7/2 87/44/2 100/50/2
f 36/52/3 30/22/3 97/84/3 99/85/3
f 2/10/1 61/78/1 64/45/1 4/6/1
f 3/7/1 63/49/1 62/64/1 1/55/1
f 68/75/3 57/14/3 72/33/3 74/86/3
f 45/11/7 57/14/7 68/75/7 66/81/7
f 67/67/4 68/75/4 74/86/4 73/87/4
f 52/1/7 43/4/7 65/68/7 67/67/7
f 72/33/1 69/32/1 70/31/1 71/30/1
f 72/33/1 71/30/1 73/87/1 74/86/1
f 52/1/2 67/67/2 73/87/2 71/30/2
f 37/13/5 38/2/5 70/31/5 69/32/5
f 84/54/1 83/53/1 78/88/1 80/89/1
f 76/58/1 90/57/1 92/90/1 91/61/1
f 99/85/1 97/84/1 93/91/1 98/92/1
f 95/59/1 94/93/1 85/94/1 89/60/1
f 108/95/8 106/96/8 105/97/8 110/98/8
f 75/43/1 101/46/1 100/50/1 87/44/1
f 16/18/2 17/27/2 89/60/2 85/94/2
f 104/99/5 103/100/5 82/101/5 102/102/5
f 30/22/5 32/38/5 93/91/5 97/84/5
f 33/37/4 36/52/4 99/85/4 98/92/4
f 124/103/1 123/104/1 81/105/1 109/106/1
f 15/15/5 16/18/5 85/94/5 94/93/5
f 32/38/2 33/37/2 98/92/2 93/91/2
f 19/25/3 15/15/3 94/93/3 95/59/3
f 7/5/5 8/8/5 78/88/5 83/53/5
f 8/8/2 11/17/2 80/89/2 78/88/2
f 11/17/4 12/16/4 84/54/4 80/89/4
f 21/47/5 22/26/5 92/90/5 90/57/5
f 22/26/2 27/41/2 91/61/2 92/90/2
f 128/107/9 127/108/9 86/109/9 108/95/9
f 88/110/5 79/111/5 105/97/5 106/96/5
f 124/103/10 109/106/10 107/112/10 126/113/10
f 106/96/9 108/95/9 86/109/9 88/110/9
f 102/102/9 96/114/9 107/112/9 104/99/9
f 79/111/1 77/115/1 110/98/1 105/97/1
f 103/100/1 109/106/1 81/105/1 82/101/1
f 104/99/11 107/112/11 109/106/11 103/100/11
f 122/116/12 114/117/12 113/118/12 120/119/12
f 118/120/9 117/121/9 112/122/9 113/118/9
f 122/116/1 121/123/1 111/124/1 114/117/1
f 126/113/9 125/125/9 117/121/9 118/120/9
f 114/117/13 116/126/13 118/120/13 113/118/13
f 114/117/1 111/124/1 115/127/1 116/126/1
f 130/128/1 129/129/1 121/123/1 122/116/1
f 130/128/14 122/116/14 120/119/14 128/107/14
f 113/118/9 112/122/9 119/130/9 120/119/9
f 107/112/9 96/114/9 125/125/9 126/113/9
f 116/126/15 124/103/15 126/113/15 118/120/15
f 116/126/1 115/127/1 123/104/1 124/103/1
f 110/98/16 130/128/16 128/107/16 108/95/16
f 110/98/1 77/115/1 129/129/1 130/128/1
f 120/119/9 119/130/9 127/108/9 128/107/9
